SplineFontDB: 3.0
FontName: Jones*-Book-Condenced
FullName: Jones* Book Condenced
FamilyName: Jones*
Weight: Book
Copyright: This is a modified version of "Montserrat", a font by Julieta Ulanovsky. Copyright 2015 Indestructible Type
Version: 002.000
ItalicAngle: 0
UnderlinePosition: -100
UnderlineWidth: 50
Ascent: 800
Descent: 200
InvalidEm: 0
sfntRevision: 0x00010000
LayerCount: 2
Layer: 0 0 "Back" 1
Layer: 1 0 "Fore" 0
XUID: [1021 266 -223186452 3571814]
StyleMap: 0x0000
FSType: 8
OS2Version: 3
OS2_WeightWidthSlopeOnly: 0
OS2_UseTypoMetrics: 0
CreationTime: 1401186238
ModificationTime: 1445790347
PfmFamily: 81
TTFWeight: 300
TTFWidth: 3
LineGap: 0
VLineGap: 0
Panose: 0 0 5 0 0 0 0 0 0 0
OS2TypoAscent: 968
OS2TypoAOffset: 0
OS2TypoDescent: -251
OS2TypoDOffset: 0
OS2TypoLinegap: 0
OS2WinAscent: 1006
OS2WinAOffset: 0
OS2WinDescent: 194
OS2WinDOffset: 0
HheadAscent: 1006
HheadAOffset: 0
HheadDescent: -194
HheadDOffset: 0
OS2SubXSize: 650
OS2SubYSize: 600
OS2SubXOff: 0
OS2SubYOff: 75
OS2SupXSize: 650
OS2SupYSize: 600
OS2SupXOff: 0
OS2SupYOff: 350
OS2StrikeYSize: 50
OS2StrikeYPos: 319
OS2CapHeight: 700
OS2XHeight: 532
OS2Vendor: 'UKWN'
OS2CodePages: 20000093.00000000
OS2UnicodeRanges: 00000007.00000000.00000000.00000000
Lookup: 1 0 0 "'aalt' Access All Alternates lookup 0" { "'aalt' Access All Alternates lookup 0 subtable"  } ['aalt' ('DFLT' <'dflt' > 'grek' <'dflt' > 'latn' <'CAT ' 'MOL ' 'ROM ' 'dflt' > ) ]
Lookup: 3 0 0 "'aalt' Access All Alternates lookup 1" { "'aalt' Access All Alternates lookup 1 subtable"  } ['aalt' ('DFLT' <'dflt' > 'grek' <'dflt' > 'latn' <'CAT ' 'MOL ' 'ROM ' 'dflt' > ) ]
Lookup: 1 0 0 "'locl' Localized Forms in Latin lookup 2" { "'locl' Localized Forms in Latin lookup 2 subtable"  } ['locl' ('latn' <'ROM ' > ) ]
Lookup: 1 0 0 "'locl' Localized Forms in Latin lookup 3" { "'locl' Localized Forms in Latin lookup 3 subtable"  } ['locl' ('latn' <'MOL ' > ) ]

StartChar: .notdef
Encoding: 65536 -1 0
Width: 421
Flags: MW
HStem: -2 54<79 343 79 424> 648 54<79 343 79 79>
VStem: -2 55<103 597 103 702> 369 55<103 597 597 597>
LayerCount: 2
Fore
SplineSet
53 597 m 1
 53 103 l 1
 185 350 l 1
 53 597 l 1
79 52 m 1
 343 52 l 1
 211 300 l 1
 79 52 l 1
237 350 m 1
 369 103 l 1
 369 597 l 1
 237 350 l 1
211 400 m 1
 343 648 l 1
 79 648 l 1
 211 400 l 1
-2 -2 m 1
 -2 702 l 1
 424 702 l 1
 424 -2 l 1
 -2 -2 l 1
EndSplineSet
EndChar

StartChar: exclam
Encoding: 33 33 2
Width: 203
GlyphClass: 2
Flags: MW
HStem: -12 114<91.5 122.5>
VStem: 51 113<29.5 60.5> 60 94<519 694>
LayerCount: 2
Fore
SplineSet
154 519 m 1xa0
 136 220 l 1
 78 220 l 1
 60 519 l 1
 60 694 l 1
 154 694 l 1
 154 519 l 1xa0
51 45 m 0xc0
 51 76 76 102 107 102 c 0
 138 102 164 76 164 45 c 0
 164 14 138 -12 107 -12 c 0
 76 -12 51 14 51 45 c 0xc0
EndSplineSet
EndChar

StartChar: quotedbl
Encoding: 34 34 3
Width: 370
GlyphClass: 2
Flags: MW
HStem: 542 210<79.5 110.5 79.5 115 73 110.5 79.5 242 248.5 279.5 79.5 284>
VStem: 39 113<673 711.5> 208 113<673 711.5>
LayerCount: 2
Fore
SplineSet
115 542 m 1
 73 542 l 1
 73 544 l 1
 57 647 39 650 39 696 c 0
 39 727 64 752 95 752 c 0
 126 752 152 727 152 696 c 0
 152 650 132 647 116 544 c 1
 115 542 l 1
284 542 m 1
 242 542 l 1
 242 544 l 1
 226 647 208 650 208 696 c 0
 208 727 233 752 264 752 c 0
 295 752 321 727 321 696 c 0
 321 650 301 647 285 544 c 1
 284 542 l 1
EndSplineSet
EndChar

StartChar: numbersign
Encoding: 35 35 4
Width: 632
GlyphClass: 2
Flags: MW
HStem: -2 21G<138 210 138 138 348 419 348 348> 170 92<28 155 19 165 236 365 28 227 445 567> 432 92<61 181 52 190 262 391 61 253 472 600> 682 20G<208 280 280 280 417 490 490 490>
LayerCount: 2
Fore
SplineSet
391 432 m 1
 253 432 l 1
 236 262 l 1
 374 262 l 1
 391 432 l 1
463 432 m 1
 445 262 l 1
 575 262 l 1
 567 170 l 1
 437 170 l 1
 419 -2 l 1
 348 -2 l 1
 365 170 l 1
 227 170 l 1
 210 -2 l 1
 138 -2 l 1
 155 170 l 1
 19 170 l 1
 28 262 l 1
 165 262 l 1
 181 432 l 1
 52 432 l 1
 61 524 l 1
 190 524 l 1
 208 702 l 1
 280 702 l 1
 262 524 l 1
 400 524 l 1
 417 702 l 1
 490 702 l 1
 472 524 l 1
 607 524 l 1
 600 432 l 1
 463 432 l 1
EndSplineSet
EndChar

StartChar: dollar
Encoding: 36 36 5
Width: 628
GlyphClass: 2
Flags: MW
HStem: -8 84<294 294> 321 82<294 294> 621 82<294 294>
VStem: 84 84<482 544 482 561.5> 294 84<-140 -8 -8 -8 76 301 403 619 704 835> 485 87<159.5 221>
AnchorPoint: "Anchor-0" 337 -5 basechar 0
LayerCount: 2
Fore
SplineSet
168 512 m 0
 168 452 228 422 294 403 c 1
 294 621 l 1
 222 612 168 576 168 512 c 0
485 191 m 0
 485 251 433 282 378 301 c 1
 378 76 l 1
 442 88 485 128 485 191 c 0
84 514 m 0
 84 609 165 688 294 703 c 1
 294 835 l 1
 378 835 l 1
 378 704 l 1
 442 696 506 666 562 629 c 1
 563 627 l 1
 522 551 l 1
 520 553 l 1
 466 589 423 611 378 619 c 1
 378 382 l 1
 461 358 572 327 572 189 c 0
 572 85 483 8 378 -7 c 1
 378 -140 l 1
 294 -140 l 1
 294 -8 l 1
 195 1 104 47 39 106 c 1
 38 108 l 1
 88 179 l 1
 91 177 l 1
 154 122 226 85 294 76 c 1
 294 321 l 1
 194 345 84 383 84 514 c 0
EndSplineSet
EndChar

StartChar: percent
Encoding: 37 37 6
Width: 912
GlyphClass: 2
Flags: HMW
HStem: -4 66<712 778 712 794> 282 68<182 264 182 284> 348 64<712.5 777.5> 636 63<182.5 263.5>
VStem: 13 68<451.5 533.5 451.5 549.5> 365 69<451.5 534> 563 68<162.5 244.5 162.5 263.5> 859 68<162.5 245>
LayerCount: 2
Fore
SplineSet
195 286 m 0
 99 286 13 375 13 494 c 0
 13 613 97 702 195 702 c 0xbf
 293 702 377 613 377 494 c 0
 377 375 293 286 195 286 c 0
195 633 m 0
 130 633 81 575 81 494 c 0
 81 411 129 357 195 357 c 4
 261 357 309 411 309 494 c 0
 309 576 260 633 195 633 c 0
253 -5 m 1x9f
 145 -5 l 1
 654 700 l 1
 739 700 l 1
 253 -5 l 1x9f
715 -4 m 0
 619 -4 533 85 533 204 c 0
 533 323 617 412 715 412 c 0xbf
 813 412 897 323 897 204 c 0
 897 85 813 -4 715 -4 c 0
715 343 m 0
 650 343 601 285 601 204 c 0
 601 121 649 67 715 67 c 0
 781 67 829 121 829 204 c 0
 829 286 780 343 715 343 c 0
EndSplineSet
EndChar

StartChar: ampersand
Encoding: 38 38 7
Width: 582
GlyphClass: 2
Flags: MW
HStem: -8 82<213.501 262.001 213.501 270> 654 78<252.001 295.501>
VStem: 44 85 118 67 351 66
LayerCount: 2
Fore
SplineSet
402 206 m 1xd8
 421.359375 241.663085938 442.020507812 282.060546875 458 330 c 1
 527 286 l 1
 526 284 l 2
 505 235 481 192 454 155 c 1
 569 50 l 1
 516 -2 l 1
 415 95 l 1
 365 36 301 -8 239 -8 c 0
 138 -8 44 76 44 191 c 0xe8
 44 290 112 349 170 396 c 1
 134 458 118 507 118 557 c 0
 118 652 187 732 275 732 c 0
 360 732 417 660 417 573 c 0
 417 476 334 421 266 366 c 1
 296 324 355 263 402 206 c 1xd8
185.000976562 553 m 0xd8
 185.000976562 517 202.000976562 476 229.000976562 429 c 1
 282.000976562 474 351.000976562 516 351.000976562 568 c 0
 351.000976562 617 316.000976562 654 275.000976562 654 c 0
 229.000976562 654 185.000976562 617 185.000976562 553 c 0xd8
242.000976562 74 m 0
 282.000976562 74 330.000976562 102 365.000976562 143 c 1
 310.000976562 212 243.000976562 284 208.000976562 334 c 1
 170.000976562 296 129.000976562 256 129.000976562 196 c 0xe8
 129.000976562 118 185.000976562 74 242.000976562 74 c 0
EndSplineSet
EndChar

StartChar: quotesingle
Encoding: 39 39 8
Width: 199
GlyphClass: 2
Flags: MW
HStem: 576 176<84.5 97 37 115.5>
VStem: 43 113<689 710.5 689 710.5>
LayerCount: 2
Fore
SplineSet
147 664 m 2
 97 576 l 1
 37 576 l 1
 77 643 l 1
 57 652 43 672 43 695 c 0
 43 726 69 752 100 752 c 0
 131 752 156 726 156 695 c 0
 156 683 152 672 147 664 c 2
EndSplineSet
EndChar

StartChar: parenleft
Encoding: 40 40 9
Width: 313
GlyphClass: 2
Flags: MW
HStem: 724 20G<190 275 275 275>
VStem: 72 83<226 392>
LayerCount: 2
Fore
SplineSet
190 744 m 1
 275 744 l 1
 272 741 l 1
 199 627 155 475 155 309 c 0
 155 143 199 -9 272 -123 c 1
 275 -126 l 1
 190 -126 l 1
 189 -125 l 1
 110 -10 72 143 72 309 c 0
 72 475 110 628 189 743 c 1
 190 744 l 1
EndSplineSet
EndChar

StartChar: parenright
Encoding: 41 41 10
Width: 342
GlyphClass: 2
Flags: MW
HStem: 724 20G<104 188 188 188>
VStem: 224 83<226 392 226 392.186>
LayerCount: 2
Fore
SplineSet
224 309 m 0
 224 475.37109375 179.1171875 631.32421875 104 744 c 1
 188 744 l 1
 189 743 l 1
 268 628 307 475 307 309 c 0
 307 143 268 -10 189 -125 c 1
 188 -126 l 1
 104 -126 l 1
 179.111328125 -13.3330078125 224 142.647460938 224 309 c 0
EndSplineSet
EndChar

StartChar: asterisk
Encoding: 42 42 11
Width: 343
GlyphClass: 2
Flags: MW
HStem: 406 318<142 197 142 197>
VStem: 142 55<406 406>
LayerCount: 2
Fore
SplineSet
142 724 m 1
 197 724 l 1
 195 610 l 1
 292 669 l 1
 320 621 l 1
 220 564 l 1
 320 508 l 1
 292 460 l 1
 195 519 l 1
 197 406 l 1
 142 406 l 1
 144 520 l 1
 45 461 l 1
 17 508 l 1
 117 564 l 1
 17 621 l 1
 45 668 l 1
 144 610 l 1
 142 724 l 1
EndSplineSet
EndChar

StartChar: plus
Encoding: 43 43 12
Width: 468
GlyphClass: 2
Flags: MW
HStem: 282 84<26 192 26 192 272 436 26 272> 522 20G<192 272 272 272>
VStem: 192 80<108 282 108 282 366 542>
LayerCount: 2
Fore
SplineSet
436 282 m 1
 272 282 l 1
 272 108 l 1
 192 108 l 1
 192 282 l 1
 26 282 l 1
 26 366 l 1
 192 366 l 1
 192 542 l 1
 272 542 l 1
 272 366 l 1
 436 366 l 1
 436 282 l 1
EndSplineSet
EndChar

StartChar: comma
Encoding: 44 44 13
Width: 204
GlyphClass: 2
Flags: MW
HStem: -74 176<84.5 97 37 115.5>
VStem: 43 113<39 60.5 39 60.5>
LayerCount: 2
Fore
SplineSet
147 14 m 2
 97 -74 l 1
 37 -74 l 1
 77 -7 l 1
 57 2 43 22 43 45 c 0
 43 76 69 102 100 102 c 0
 131 102 156 76 156 45 c 0
 156 33 152 22 147 14 c 2
EndSplineSet
EndChar

StartChar: hyphen
Encoding: 45 45 14
Width: 356
GlyphClass: 2
Flags: MW
HStem: 262 84<47 298 47 298>
VStem: 47 251<262 346 262 346>
LayerCount: 2
Fore
SplineSet
298 262 m 1
 47 262 l 1
 47 346 l 1
 298 346 l 1
 298 262 l 1
EndSplineSet
EndChar

StartChar: period
Encoding: 46 46 15
Width: 207
GlyphClass: 2
Flags: MW
HStem: -12 114<82.5 113.5>
VStem: 42 113<29.5 60.5>
LayerCount: 2
Fore
SplineSet
42 45 m 0
 42 76 67 102 98 102 c 0
 129 102 155 76 155 45 c 0
 155 14 129 -12 98 -12 c 0
 67 -12 42 14 42 45 c 0
EndSplineSet
EndChar

StartChar: slash
Encoding: 47 47 16
Width: 308
GlyphClass: 2
Flags: W
LayerCount: 2
Fore
SplineSet
78 -120 m 1
 -16 -120 l 1
 269 818 l 1
 362 818 l 1
 78 -120 l 1
EndSplineSet
Substitution2: "'frac' Diagonal Fractions lookup 8 subtable" fraction
Substitution2: "'aalt' Access All Alternates lookup 0 subtable" fraction
EndChar

StartChar: zero
Encoding: 48 48 17
Width: 529
GlyphClass: 2
Flags: MW
HStem: -8 90<217 306.5 217 334> 618 85<221 302.5>
VStem: 26 86<267 438.5 267 452> 410 86<267 438.5>
LayerCount: 2
Fore
SplineSet
410 350 m 0
 410 527 343 618 262 618 c 0
 180 618 112 527 112 350 c 0
 112 184 172 82 262 82 c 0
 351 82 410 184 410 350 c 0
26 348 m 0
 26 556 125 703 262 703 c 0
 398 703 496 556 496 348 c 0
 496 140 406 -8 262 -8 c 0
 117 -8 26 140 26 348 c 0
EndSplineSet
Substitution2: "'frac' Diagonal Fractions lookup 9 subtable" zero.numr
Substitution2: "'dnom' Denominators lookup 7 subtable" zero.dnom
Substitution2: "'numr' Numerators lookup 6 subtable" zero.numr
AlternateSubs2: "'aalt' Access All Alternates lookup 1 subtable" zero.numr zero.dnom
EndChar

StartChar: one
Encoding: 49 49 18
Width: 567
GlyphClass: 2
Flags: MW
HStem: -5 21G<314 401 314 314> 539 21G<120 120>
VStem: 314 87<-5 597 597 597>
LayerCount: 2
Fore
SplineSet
401 719 m 1
 401 -5 l 1
 314 -5 l 1
 314 597 l 1
 120 539 l 1
 120 629 l 1
 401 719 l 1
EndSplineSet
Substitution2: "'frac' Diagonal Fractions lookup 9 subtable" one.numr
Substitution2: "'dnom' Denominators lookup 7 subtable" one.dnom
Substitution2: "'numr' Numerators lookup 6 subtable" one.numr
Substitution2: "'sups' Superscript lookup 5 subtable" onesuperior
AlternateSubs2: "'aalt' Access All Alternates lookup 1 subtable" onesuperior one.numr one.dnom
EndChar

StartChar: two
Encoding: 50 50 19
Width: 546
GlyphClass: 2
Flags: MW
HStem: -5 81<152 501 152 501> 620 85<234.084 297.5>
VStem: 384 85<492.5 550>
LayerCount: 2
Fore
SplineSet
258 620 m 0
 210.16796875 620 135.594726562 577.594726562 80 522 c 1
 40 598 l 1
 42 599 l 1
 118 661 195 705 269 705 c 0
 377 705 469 621 469 512 c 0
 469 429 393 365 331 285 c 1
 152 76 l 1
 501 76 l 1
 501 -5 l 1
 48 -5 l 1
 48 85 l 1
 296 357 l 2
 338 409 384 467 384 518 c 0
 384 582 337 620 258 620 c 0
EndSplineSet
Substitution2: "'frac' Diagonal Fractions lookup 9 subtable" two.numr
Substitution2: "'dnom' Denominators lookup 7 subtable" two.dnom
Substitution2: "'numr' Numerators lookup 6 subtable" two.numr
Substitution2: "'sups' Superscript lookup 5 subtable" twosuperior
AlternateSubs2: "'aalt' Access All Alternates lookup 1 subtable" twosuperior two.numr two.dnom
EndChar

StartChar: three
Encoding: 51 51 20
Width: 539
GlyphClass: 2
Flags: MW
HStem: -10 78<228 300> 619 80<76 359 76 452>
VStem: 404 81<165.5 256.5>
LayerCount: 2
Fore
SplineSet
452 622 m 1
 279 408 l 1
 308 405 l 2
 404 395 485 326 485 214 c 0
 485 81 389 -10 261 -10 c 0
 190 -10 106 21 45 67 c 1
 44 68 l 1
 85 140 l 1
 87 138 l 1
 137 97 202 68 254 68 c 0
 346 68 404 119 404 212 c 0
 404 301 342 334 262 334 c 2
 189 334 l 1
 189 396 l 1
 359 619 l 1
 76 619 l 1
 76 699 l 1
 452 699 l 1
 452 622 l 1
EndSplineSet
Substitution2: "'frac' Diagonal Fractions lookup 9 subtable" three.numr
Substitution2: "'dnom' Denominators lookup 7 subtable" three.dnom
Substitution2: "'numr' Numerators lookup 6 subtable" three.numr
Substitution2: "'sups' Superscript lookup 5 subtable" threesuperior
AlternateSubs2: "'aalt' Access All Alternates lookup 1 subtable" threesuperior three.numr three.dnom
EndChar

StartChar: four
Encoding: 52 52 21
Width: 553
GlyphClass: 2
Flags: MW
HStem: -2 21G<344 425 344 344> 170 74<125 344 125 344 425 527> 680 20G<321 425 425 425>
VStem: 344 81<-2 170 -2 170 244 617 617 617>
LayerCount: 2
Fore
SplineSet
344 244 m 1
 344 617 l 1
 125 244 l 1
 344 244 l 1
22 231 m 1
 321 700 l 1
 425 700 l 1
 425 244 l 1
 527 244 l 1
 527 170 l 1
 425 170 l 1
 425 -2 l 1
 344 -2 l 1
 344 170 l 1
 22 170 l 1
 22 231 l 1
EndSplineSet
Substitution2: "'frac' Diagonal Fractions lookup 9 subtable" four.numr
Substitution2: "'dnom' Denominators lookup 7 subtable" four.dnom
Substitution2: "'numr' Numerators lookup 6 subtable" four.numr
AlternateSubs2: "'aalt' Access All Alternates lookup 1 subtable" four.numr four.dnom
EndChar

StartChar: five
Encoding: 53 53 22
Width: 539
GlyphClass: 2
Flags: MW
HStem: -9 86<232.5 299 232.5 329.5> 337 88<91 172 91 172> 346 80<272 303.5> 619 81<172 465 91 466 172 172>
VStem: 91 81<425 619 425 700> 405 89<178 266>
LayerCount: 2
Fore
SplineSet
465 700 m 1xdc
 466 619 l 1
 172 619 l 1
 172 425 l 1xdc
 272 426 l 2
 396 426 494 353 494 228 c 0
 494 85 394 -9 265 -9 c 0
 197 -9 108 23 39 71 c 1
 37 73 l 1
 92 144 l 1
 94 143 l 1
 150 106 207 77 258 77 c 0
 340 77 405 132 405 224 c 0
 405 308 344 346 263 346 c 0xbc
 229 346 141 342 94 337 c 1
 91 337 l 1
 91 700 l 1
 465 700 l 1xdc
EndSplineSet
Substitution2: "'frac' Diagonal Fractions lookup 9 subtable" five.numr
Substitution2: "'dnom' Denominators lookup 7 subtable" five.dnom
Substitution2: "'numr' Numerators lookup 6 subtable" five.numr
AlternateSubs2: "'aalt' Access All Alternates lookup 1 subtable" five.numr five.dnom
EndChar

StartChar: six
Encoding: 54 54 23
Width: 542
GlyphClass: 2
Flags: MW
HStem: -10 90<238.5 317 238.5 347> 372 86<266.5 321.5> 622 83<248.5 325.5>
VStem: 28 89<355 430 355 446> 421 87<184.5 275>
LayerCount: 2
Fore
SplineSet
421 231 m 0
 421 319 360 372 283 372 c 0
 206 372 136 317 137 227 c 0
 138 158 198 80 279 80 c 0
 355 80 421 138 421 231 c 0
28 334 m 0
 28 558 146 705 298 705 c 0
 355 705 430 684 487 652 c 2
 489 651 l 1
 452 576 l 1
 450 577 l 1
 408 605 347 622 304 622 c 0
 193 622 117 505 117 355 c 1
 156 417 232 458 301 458 c 0
 422 458 508 365 508 228 c 0
 508 82 410 -10 284 -10 c 0
 137 -10 28 118 28 334 c 0
EndSplineSet
Substitution2: "'frac' Diagonal Fractions lookup 9 subtable" six.numr
Substitution2: "'dnom' Denominators lookup 7 subtable" six.dnom
Substitution2: "'numr' Numerators lookup 6 subtable" six.numr
AlternateSubs2: "'aalt' Access All Alternates lookup 1 subtable" six.numr six.dnom
EndChar

StartChar: seven
Encoding: 55 55 24
Width: 545
GlyphClass: 2
Flags: HMW
HStem: -5 21G<172 249 172 172> 619 81<36 403 36 500>
LayerCount: 2
Fore
SplineSet
500 700 m 1
 500 627 l 1
 249 -5 l 1
 167 -5 l 5
 403 619 l 1
 36 619 l 1
 36 700 l 1
 500 700 l 1
EndSplineSet
Substitution2: "'frac' Diagonal Fractions lookup 9 subtable" seven.numr
Substitution2: "'dnom' Denominators lookup 7 subtable" seven.dnom
Substitution2: "'numr' Numerators lookup 6 subtable" seven.numr
AlternateSubs2: "'aalt' Access All Alternates lookup 1 subtable" seven.numr seven.dnom
EndChar

StartChar: eight
Encoding: 56 56 25
Width: 526
GlyphClass: 2
Flags: MW
HStem: -10 80<215.5 304.5 215.5 327.5> 326 86<226 294.5 226 300.5> 628 77<222 298.5>
VStem: 24 82<167.5 234.5> 59 70<493 556 493 582> 391 70<493 556> 414 82<167.5 236 130.5 245>
LayerCount: 2
Fore
SplineSet
414 207 m 0xf2
 414 283 341 326 260 326 c 0
 180 326 106 283 106 207 c 0
 106 128 171 70 260 70 c 0
 349 70 414 128 414 207 c 0xf2
391 527 m 0xec
 391 585 337 628 260 628 c 0
 184 628 129 585 129 527 c 0
 129 459 192 412 260 412 c 0
 329 412 391 459 391 527 c 0xec
59 526 m 0
 59 638 143 705 260 705 c 0
 378 705 461 636 461 522 c 0xec
 461 455 438 402 384 372 c 1
 459 342 496 278 496 194 c 0
 496 67 395 -10 260 -10 c 0
 125 -10 24 67 24 192 c 0xf2
 24 277 64 342 141 372 c 1
 84 405 59 459 59 526 c 0
EndSplineSet
Substitution2: "'frac' Diagonal Fractions lookup 9 subtable" eight.numr
Substitution2: "'dnom' Denominators lookup 7 subtable" eight.dnom
Substitution2: "'numr' Numerators lookup 6 subtable" eight.numr
AlternateSubs2: "'aalt' Access All Alternates lookup 1 subtable" eight.numr eight.dnom
EndChar

StartChar: nine
Encoding: 57 57 26
Width: 536
GlyphClass: 2
Flags: MW
HStem: -10 83<210.5 287.5 210.5 314> 237 91<214.5 269.5> 620 85<219 297.5>
VStem: 28 87<425 515.5 425 541> 413 89<265 340>
LayerCount: 2
Fore
SplineSet
115 469 m 0
 115 381 176 328 253 328 c 0
 330 328 398 383 397 473 c 0
 396 542 338 620 257 620 c 0
 181 620 115 562 115 469 c 0
502 362 m 0
 502 138 390 -10 238 -10 c 0
 181 -10 106 11 49 43 c 2
 47 44 l 1
 84 119 l 1
 86 118 l 1
 128 90 189 73 232 73 c 0
 343 73 413 190 413 340 c 1
 380 278 304 237 235 237 c 0
 114 237 28 331 28 468 c 0
 28 614 126 705 252 705 c 0
 397 705 502 578 502 362 c 0
EndSplineSet
Substitution2: "'frac' Diagonal Fractions lookup 9 subtable" nine.numr
Substitution2: "'dnom' Denominators lookup 7 subtable" nine.dnom
Substitution2: "'numr' Numerators lookup 6 subtable" nine.numr
AlternateSubs2: "'aalt' Access All Alternates lookup 1 subtable" nine.numr nine.dnom
EndChar

StartChar: colon
Encoding: 58 58 27
Width: 202
GlyphClass: 2
Flags: MW
HStem: -12 114<82.5 113.5> 280 112<82.5 113.5>
VStem: 42 113<29.5 60.5 320.5 351.5>
LayerCount: 2
Fore
SplineSet
42 45 m 0
 42 76 67 102 98 102 c 0
 129 102 155 76 155 45 c 0
 155 14 129 -12 98 -12 c 0
 67 -12 42 14 42 45 c 0
42 336 m 0
 42 367 67 392 98 392 c 0
 129 392 155 367 155 336 c 0
 155 305 129 280 98 280 c 0
 67 280 42 305 42 336 c 0
EndSplineSet
EndChar

StartChar: semicolon
Encoding: 59 59 28
Width: 205
GlyphClass: 2
Flags: MW
HStem: 280 112<84.5 115.5>
VStem: 43 113<39 60.5 39 60.5 320.5 351.5>
LayerCount: 2
Fore
SplineSet
43 336 m 0
 43 367 69 392 100 392 c 0
 131 392 156 367 156 336 c 0
 156 305 131 280 100 280 c 0
 69 280 43 305 43 336 c 0
147 14 m 2
 97 -74 l 1
 37 -74 l 1
 77 -7 l 1
 57 2 43 22 43 45 c 0
 43 76 69 102 100 102 c 0
 131 102 156 76 156 45 c 0
 156 33 152 22 147 14 c 2
EndSplineSet
EndChar

StartChar: less
Encoding: 60 60 29
Width: 452
GlyphClass: 2
Flags: W
LayerCount: 2
Fore
SplineSet
420 471 m 1
 112 326 l 1
 420 180 l 1
 420 85 l 1
 26 273 l 1
 26 378 l 1
 420 566 l 1
 420 471 l 1
EndSplineSet
EndChar

StartChar: equal
Encoding: 61 61 30
Width: 452
GlyphClass: 2
Flags: MW
HStem: 178 84<26 420 26 420> 388 84<26 420 26 420>
LayerCount: 2
Fore
SplineSet
420 178 m 1
 26 178 l 1
 26 262 l 1
 420 262 l 1
 420 178 l 1
420 388 m 1
 26 388 l 1
 26 472 l 1
 420 472 l 1
 420 388 l 1
EndSplineSet
EndChar

StartChar: greater
Encoding: 62 62 31
Width: 452
GlyphClass: 2
Flags: W
LayerCount: 2
Fore
SplineSet
26 185 m 1
 334 330 l 1
 26 476 l 1
 26 571 l 1
 420 383 l 1
 420 278 l 1
 26 90 l 1
 26 185 l 1
EndSplineSet
EndChar

StartChar: question
Encoding: 63 63 32
Width: 419
GlyphClass: 2
Flags: MW
HStem: -12 114<183.5 214.5> 620 78<166.5 232>
VStem: 8 79<492 495 492 561> 146 106<29.5 60.5> 152 92<328 392> 161 77<196 196> 313 82<479 539>
LayerCount: 2
Fore
SplineSet
146 45 m 0xf2
 146 76 168 102 199 102 c 0
 230 102 252 76 252 45 c 0
 252 14 230 -12 199 -12 c 0
 168 -12 146 14 146 45 c 0xf2
87 492 m 1
 8 492 l 1
 8 495 l 2
 8 627 90 698 202 698 c 0
 310 698 395 608 395 508 c 0
 395 392 322 340 244 328 c 1xea
 238 196 l 1
 161 196 l 1xe6
 152 392 l 1xea
 184 392 l 2
 258 392 313 447 313 511 c 0
 313 567 264 620 200 620 c 0
 133 620 91 562 88 495 c 1
 87 492 l 1
EndSplineSet
EndChar

StartChar: at
Encoding: 64 64 33
Width: 859
GlyphClass: 2
Flags: MW
HStem: -156 88<336 444.5 336 451.5> -27 20G<588 588> 20 78<653.5 682.5 653.5 701.5> 32 78<371 428.5> 430 80<371 427.5 341 439> 618 86<345 529>
VStem: 25 91<170 365.5 170 390.5> 199 92<226 320.5 226 335.5> 526 95<224.5 320> 533 88<441 500> 737 91<217.5 368>
LayerCount: 2
Fore
SplineSet
404 430 m 0xdfa0
 338 430 291 367 291 274 c 0
 291 178 337 110 405 110 c 0
 475 110 526 176 526 273 c 0
 526 367 474 430 404 430 c 0xdfa0
431 704 m 0
 657 704 828 522 828 272 c 0
 828 120 748 20 655 20 c 0xef60
 602 20 557 46 545 101 c 1
 506 54 453 32 404 32 c 0xdf60
 305 32 199 128 199 269 c 0
 199 402 287 510 395 510 c 0
 460 510 516 465 533 441 c 1
 533 500 l 1
 621 500 l 1
 621 149 l 2
 621 113 643 98 664 98 c 0xef60
 701 98 737 166 737 269 c 0
 737 467 627 618 431 618 c 0
 259 618 116 464 116 267 c 0
 116 73 251 -68 421 -68 c 0
 468 -68 531 -49 586 -9 c 1
 588 -7 l 1
 629 -85 l 1
 628 -86 l 1
 570 -128 482 -156 421 -156 c 0
 198 -156 25 25 25 267 c 0
 25 514 207 704 431 704 c 0
EndSplineSet
EndChar

StartChar: A
Encoding: 65 65 34
Width: 721
GlyphClass: 2
Flags: HMW
HStem: 0 21G<53 141 53 53 564 564 564 656> 182 74<231 474 231 501 205 474> 680 20G<321 389 389 389>
LayerCount: 2
Fore
SplineSet
352 578 m 1
 231 256 l 1
 474 256 l 1
 352 578 l 1
496 182 m 5
 210 182 l 1
 141 0 l 1
 53 0 l 1
 321 700 l 1
 389 700 l 1
 656 0 l 1
 564 0 l 1
 496 182 l 5
EndSplineSet
Substitution2: "Single Substitution lookup 14 subtable" ordfeminine
Substitution2: "'aalt' Access All Alternates lookup 0 subtable" ordfeminine
Position2: "'cpsp' Capital Spacing lookup 0 subtable" dx=5 dy=0 dh=10 dv=0
EndChar

StartChar: B
Encoding: 66 66 35
Width: 615
GlyphClass: 2
Flags: MW
HStem: 0 78<141 326 326 328> 314 84<141 326 141 326> 622 78<141 318 141 141>
VStem: 58 83<78 314 398 622> 445 86<486 547.5> 463 91<155 237>
LayerCount: 2
Fore
SplineSet
326 314 m 2xf4
 141 314 l 1
 141 78 l 1
 326 78 l 2
 409 78 463 113 463 197 c 0
 463 277 409 314 326 314 c 2xf4
318 622 m 2
 141 622 l 1
 141 398 l 1
 326 398 l 2
 402 398 445 447 445 514 c 0xf8
 445 581 395 622 318 622 c 2
58 0 m 1
 58 700 l 1
 322 700 l 2
 440 700 531 634 531 524 c 0xf8
 531 448 487 385 422 364 c 1
 506 345 554 284 554 193 c 0xf4
 554 72 457 0 328 0 c 2
 58 0 l 1
EndSplineSet
Position2: "'cpsp' Capital Spacing lookup 0 subtable" dx=5 dy=0 dh=10 dv=0
EndChar

StartChar: C
Encoding: 67 67 36
Width: 655
GlyphClass: 2
Flags: MW
HStem: -5 81<298.5 393.795 298.5 397.885> 622 81<298.5 394.5>
VStem: 48 87<275 428.5 275 450.5>
AnchorPoint: "Anchor-0" 404 0 basechar 0
LayerCount: 2
Fore
SplineSet
602 112 m 1
 531.37890625 41.37890625 438.76953125 -5 357 -5 c 0
 190 -5 48 150 48 351 c 0
 48 550 191 703 360 703 c 0
 441.866210938 703 533.318359375 660.681640625 601 593 c 1
 543 529 l 1
 541 531 l 2
 490 585 427 622 362 622 c 0
 235 622 135 505 135 352 c 0
 135 198 235 76 362 76 c 0
 425.58984375 76 494.78515625 121.78515625 546 173 c 1
 602 112 l 1
EndSplineSet
Position2: "'cpsp' Capital Spacing lookup 0 subtable" dx=5 dy=0 dh=10 dv=0
EndChar

StartChar: D
Encoding: 68 68 37
Width: 684
GlyphClass: 2
Flags: MW
HStem: 0 78<146 307> 618 82<146 308 146 146>
VStem: 58 88<78 618 78 700 78 700> 536 84<273.5 430>
LayerCount: 2
Fore
SplineSet
308 618 m 2
 146 618 l 1
 146 78 l 1
 312 78 l 2
 437 78 536 198 536 349 c 0
 536 511 435 618 308 618 c 2
58 0 m 1
 58 700 l 1
 309 700 l 2
 480 700 620 553 620 350 c 0
 620 148 480 0 307 0 c 2
 58 0 l 1
EndSplineSet
Position2: "'cpsp' Capital Spacing lookup 0 subtable" dx=5 dy=0 dh=10 dv=0
EndChar

StartChar: E
Encoding: 69 69 38
Width: 580
GlyphClass: 2
Flags: MW
HStem: 0 79<141 517 141 517> 310 80<141 465 141 465> 625 75<141 505 141 141>
VStem: 58 83<79 310 390 625>
AnchorPoint: "Anchor-0" 312 0 basechar 0
LayerCount: 2
Fore
SplineSet
505 700 m 1
 505 625 l 1
 141 625 l 1
 141 390 l 1
 465 390 l 1
 465 310 l 1
 141 310 l 1
 141 79 l 1
 517 79 l 1
 517 0 l 1
 58 0 l 1
 58 700 l 1
 505 700 l 1
EndSplineSet
Position2: "'cpsp' Capital Spacing lookup 0 subtable" dx=5 dy=0 dh=10 dv=0
EndChar

StartChar: F
Encoding: 70 70 39
Width: 540
GlyphClass: 2
Flags: MW
HStem: 0 21G<58 141 58 58> 300 79<141 449 141 449> 620 80<141 482 141 141>
VStem: 58 83<0 300 379 620>
LayerCount: 2
Fore
SplineSet
483 700 m 1
 482 620 l 1
 141 620 l 1
 141 379 l 1
 449 379 l 1
 449 300 l 1
 141 300 l 1
 141 0 l 1
 58 0 l 1
 58 700 l 1
 483 700 l 1
EndSplineSet
Position2: "'cpsp' Capital Spacing lookup 0 subtable" dx=5 dy=0 dh=10 dv=0
EndChar

StartChar: G
Encoding: 71 71 40
Width: 664
GlyphClass: 2
Flags: MW
HStem: -5 82<299.5 393 299.5 398> 298 83<360 521 360 596> 535 21G<550 550> 625 78<297.5 392.963>
VStem: 48 83<270 425 270 450> 521 75<139 298 298 298>
AnchorPoint: "Anchor-0" 408 0 basechar 0
LayerCount: 2
Fore
SplineSet
550 535 m 1
 500.936523438 584.063476562 422.926757812 625 363 625 c 0
 232 625 131 500 131 350 c 0
 131 190 233 77 366 77 c 0
 420 77 474 108 521 139 c 1
 521 298 l 1
 360 298 l 1
 360 381 l 1
 596 381 l 1
 596 87 l 1
 595 86 l 1
 524 32 437 -5 359 -5 c 0
 190 -5 48 150 48 350 c 0
 48 550 192 703 365 703 c 0
 446 703 530 665 599 605 c 1
 600 604 l 1
 550 535 l 1
EndSplineSet
Position2: "'cpsp' Capital Spacing lookup 0 subtable" dx=5 dy=0 dh=10 dv=0
EndChar

StartChar: H
Encoding: 72 72 41
Width: 664
GlyphClass: 2
Flags: MW
HStem: 0 21G<58 151 58 58 496 589 496 496> 300 81<151 496 151 496> 680 20G<58 151 151 151 496 589 589 589>
VStem: 58 93<0 300 0 381 381 700> 496 93<0 300 300 300 381 700 0 700>
LayerCount: 2
Fore
SplineSet
589 700 m 1
 589 0 l 1
 496 0 l 1
 496 300 l 1
 151 300 l 1
 151 0 l 1
 58 0 l 1
 58 700 l 1
 151 700 l 1
 151 381 l 1
 496 381 l 1
 496 700 l 1
 589 700 l 1
EndSplineSet
Position2: "'cpsp' Capital Spacing lookup 0 subtable" dx=5 dy=0 dh=10 dv=0
EndChar

StartChar: I
Encoding: 73 73 42
Width: 253
GlyphClass: 2
Flags: MW
HStem: 0 21G<73 160 73 73> 680 20G<73 160 160 160>
VStem: 73 87<0 700 0 700>
LayerCount: 2
Fore
SplineSet
160 700 m 1
 160 0 l 1
 73 0 l 1
 73 700 l 1
 160 700 l 1
EndSplineSet
Position2: "'cpsp' Capital Spacing lookup 0 subtable" dx=5 dy=0 dh=10 dv=0
EndChar

StartChar: J
Encoding: 74 74 43
Width: 495
GlyphClass: 2
Flags: MW
HStem: -5 80<210.5 267.5 210.5 287.5> 680 20G<344 428 428 428>
VStem: 344 84<211 217 217 700>
LayerCount: 2
Fore
SplineSet
344 700 m 1
 428 700 l 1
 428 217 l 2
 428 76 343 -5 232 -5 c 0
 163 -5 93 32 41 96 c 1
 39 98 l 1
 104 156 l 1
 106 154 l 1
 152 102 187 75 234 75 c 0
 301 75 344 131 344 211 c 2
 344 700 l 1
EndSplineSet
Position2: "'cpsp' Capital Spacing lookup 0 subtable" dx=5 dy=0 dh=10 dv=0
EndChar

StartChar: K
Encoding: 75 75 44
Width: 643
GlyphClass: 2
Flags: MW
HStem: 0 21G<58 58 58 141 487 487 487 594> 680 20G<58 141 141 141 468 580 580 580>
VStem: 58 83<0 140 262 700>
AnchorPoint: "Anchor-0" 334 0 basechar 0
LayerCount: 2
Fore
SplineSet
58 0 m 1
 58 700 l 1
 141 700 l 1
 141 262 l 1
 468 700 l 1
 580 700 l 1
 338 401 l 1
 594 0 l 1
 487 0 l 1
 289 338 l 1
 141 140 l 1
 141 0 l 1
 58 0 l 1
EndSplineSet
Position2: "'cpsp' Capital Spacing lookup 0 subtable" dx=5 dy=0 dh=10 dv=0
EndChar

StartChar: L
Encoding: 76 76 45
Width: 507
GlyphClass: 2
Flags: MW
HStem: 0 76<146 445 146 445> 680 20G<58 146 146 146>
VStem: 58 88<76 700 76 700 76 700>
AnchorPoint: "Anchor-0" 271 0 basechar 0
LayerCount: 2
Fore
SplineSet
146 700 m 1
 146 76 l 1
 445 76 l 1
 445 0 l 1
 58 0 l 1
 58 700 l 1
 146 700 l 1
EndSplineSet
Position2: "'cpsp' Capital Spacing lookup 0 subtable" dx=5 dy=0 dh=10 dv=0
EndChar

StartChar: M
Encoding: 77 77 46
Width: 767
GlyphClass: 2
Flags: MW
HStem: 0 21G<58 144 58 58 608 692 608 608> 680 20G<58 167 167 167 585 692 692 692>
VStem: 58 86<0 580 0 700> 608 84<0 580 580 580>
LayerCount: 2
Fore
SplineSet
692 700 m 1
 692 0 l 1
 608 0 l 1
 608 580 l 1
 408 73 l 1
 344 73 l 1
 144 580 l 1
 144 0 l 1
 58 0 l 1
 58 700 l 1
 167 700 l 1
 376 173 l 1
 585 700 l 1
 692 700 l 1
EndSplineSet
Position2: "'cpsp' Capital Spacing lookup 0 subtable" dx=5 dy=0 dh=10 dv=0
EndChar

StartChar: N
Encoding: 78 78 47
Width: 646
GlyphClass: 2
Flags: MW
HStem: 0 21G<58 146 58 58 473 570 473 473> 680 20G<58 155 155 155 484 570 570 570>
VStem: 58 88<0 577 0 700> 484 86<122 700 0 700>
AnchorPoint: "Anchor-0" 376 0 basechar 0
LayerCount: 2
Fore
SplineSet
570 700 m 1
 570 0 l 1
 473 0 l 1
 146 577 l 1
 146 0 l 1
 58 0 l 1
 58 700 l 1
 155 700 l 1
 484 122 l 1
 484 700 l 1
 570 700 l 1
EndSplineSet
Position2: "'cpsp' Capital Spacing lookup 0 subtable" dx=5 dy=0 dh=10 dv=0
EndChar

StartChar: O
Encoding: 79 79 48
Width: 741
GlyphClass: 2
Flags: MW
HStem: -5 78<302 424 302 447> 622 82<301.5 424>
VStem: 48 88<273.5 426.5 273.5 450.5> 593 83<273.5 426>
LayerCount: 2
Fore
SplineSet
593 350 m 0
 593 502 485 622 363 622 c 0
 240 622 136 503 136 350 c 0
 136 197 241 73 363 73 c 0
 485 73 593 197 593 350 c 0
48 350 m 0
 48 551 192 704 362 704 c 0
 532 704 676 550 676 350 c 0
 676 150 532 -5 362 -5 c 0
 192 -5 48 150 48 350 c 0
EndSplineSet
Substitution2: "Single Substitution lookup 14 subtable" ordmasculine
Substitution2: "'aalt' Access All Alternates lookup 0 subtable" ordmasculine
Position2: "'cpsp' Capital Spacing lookup 0 subtable" dx=5 dy=0 dh=10 dv=0
EndChar

StartChar: P
Encoding: 80 80 49
Width: 592
GlyphClass: 2
Flags: MW
HStem: 0 21G<58 58 58 141> 249 85<141 310 141 323> 622 78<141 310 310 323 141 141>
VStem: 58 83<0 249 334 622> 440 90<435 519.5>
LayerCount: 2
Fore
SplineSet
323 622 m 2
 141 622 l 1
 141 334 l 1
 323 334 l 2
 396 334 440 392 440 478 c 0
 440 561 393 622 323 622 c 2
58 0 m 1
 58 700 l 1
 310 700 l 2
 437 700 530 613 530 480 c 0
 530 342 437 249 310 249 c 2
 141 249 l 1
 141 0 l 1
 58 0 l 1
EndSplineSet
Position2: "'cpsp' Capital Spacing lookup 0 subtable" dx=5 dy=0 dh=10 dv=0
EndChar

StartChar: Q
Encoding: 81 81 50
Width: 741
GlyphClass: 2
Flags: MW
HStem: -5 77<302 384 302 392.5> 624 79<301.5 424>
VStem: 48 85<273.5 426 273.5 450.5> 590 86<312.5 426.5>
LayerCount: 2
Fore
SplineSet
48 350 m 0
 48 551 192 703 362 703 c 0
 532 703 676 550 676 350 c 0
 676 255 640 171 582 108 c 1
 667 26 l 1
 607 -41 l 1
 525 51 l 1
 479 16 423 -5 362 -5 c 0
 192 -5 48 150 48 350 c 0
476 106 m 1
 347 256 l 1
 396 323 l 1
 534 162 l 1
 569 210 590 275 590 350 c 0
 590 503 485 624 363 624 c 0
 240 624 133 502 133 350 c 0
 133 197 241 72 363 72 c 0
 405 72 443 84 476 106 c 1
EndSplineSet
Position2: "'cpsp' Capital Spacing lookup 0 subtable" dx=5 dy=0 dh=10 dv=0
EndChar

StartChar: R
Encoding: 82 82 51
Width: 613
GlyphClass: 2
Flags: MW
HStem: 0 21G<58 58 58 141 458 458 458 558> 281 74<141 303 141 327> 622 78<141 327 141 141>
VStem: 58 83<0 281 0 355 355 622> 461 83<436.5 521>
AnchorPoint: "Anchor-0" 341 0 basechar 0
LayerCount: 2
Fore
SplineSet
58 0 m 1
 58 700 l 1
 327 700 l 2
 454 700 544 618 544 485 c 0
 544 368 478 302 382 284 c 1
 558 0 l 1
 458 0 l 1
 303 281 l 1
 141 281 l 1
 141 0 l 1
 58 0 l 1
327 622 m 2
 141 622 l 1
 141 355 l 1
 327 355 l 2
 406 355 461 390 461 483 c 0
 461 559 430 622 327 622 c 2
EndSplineSet
Position2: "'cpsp' Capital Spacing lookup 0 subtable" dx=5 dy=0 dh=10 dv=0
EndChar

StartChar: S
Encoding: 83 83 52
Width: 584
GlyphClass: 2
Flags: MW
HStem: -9 83<260 333.5 260 358> 622 83<262 327.5>
VStem: 84 83<472.5 548 472.5 567> 441 87<154 189 131 230>
AnchorPoint: "Anchor-0" 337 -5 basechar 0
LayerCount: 2
Fore
SplineSet
84 514 m 0
 84 620 181 705 305 705 c 0
 379 705 461 671 526 628 c 1
 528 627 l 1
 487 551 l 1
 484 552 l 1
 410 598 357 622 298 622 c 0
 226 622 167 585 167 511 c 0
 167 434 248 407 314 388 c 0
 401 362 537 339 528 189 c 1
 528 73 421 -9 295 -9 c 0
 205 -9 111 41 39 107 c 1
 38 108 l 1
 88 179 l 1
 91 177 l 1
 162 115 230 74 290 74 c 0
 377 74 441 116 441 192 c 0
 441 268 356 296 290 315 c 0
 207 339 84 370 84 514 c 0
EndSplineSet
Position2: "'cpsp' Capital Spacing lookup 0 subtable" dx=5 dy=0 dh=10 dv=0
EndChar

StartChar: T
Encoding: 84 84 53
Width: 614
GlyphClass: 2
Flags: MW
HStem: 0 21G<259 346 259 259> 623 77<39 256 39 562 344 562 344 344>
VStem: 259 87<0 0>
AnchorPoint: "Anchor-0" 316 0 basechar 0
LayerCount: 2
Fore
SplineSet
562 700 m 1
 562 623 l 1
 344 623 l 1
 346 0 l 1
 259 0 l 1
 256 623 l 1
 39 623 l 1
 39 700 l 1
 562 700 l 1
EndSplineSet
Position2: "'cpsp' Capital Spacing lookup 0 subtable" dx=5 dy=0 dh=10 dv=0
EndChar

StartChar: U
Encoding: 85 85 54
Width: 624
GlyphClass: 2
Flags: MW
HStem: -5 76<254.5 355 254.5 379.5> 680 20G<54 142 142 142 465 553 553 553>
VStem: 54 88<290 700> 465 88<288 290 290 700>
LayerCount: 2
Fore
SplineSet
465 700 m 1
 553 700 l 1
 553 290 l 2
 553 107 455 -5 304 -5 c 0
 153 -5 54 107 54 290 c 2
 54 700 l 1
 142 700 l 1
 142 288 l 2
 142 151 204 71 305 71 c 0
 405 71 465 150 465 288 c 2
 465 700 l 1
EndSplineSet
Position2: "'cpsp' Capital Spacing lookup 0 subtable" dx=5 dy=0 dh=10 dv=0
EndChar

StartChar: V
Encoding: 86 86 55
Width: 685
GlyphClass: 2
Flags: MW
HStem: 0 21G<293 399 293 293> 680 20G<42 140 140 140 538 632 632 632>
LayerCount: 2
Fore
SplineSet
632 700 m 1
 399 0 l 1
 293 0 l 1
 42 700 l 1
 140 700 l 1
 349 95 l 1
 538 700 l 1
 632 700 l 1
EndSplineSet
Position2: "'cpsp' Capital Spacing lookup 0 subtable" dx=5 dy=0 dh=10 dv=0
EndChar

StartChar: W
Encoding: 87 87 56
Width: 1054
GlyphClass: 2
Flags: HMW
HStem: 0 21G<268 364 268 268 680 775 680 680> 680 20G<34 127 127 127 556 556 923 1010 1010 1010>
LayerCount: 2
Fore
SplineSet
1010 700 m 1
 775 0 l 1
 680 0 l 1
 523 536 l 5
 364 0 l 1
 268 0 l 1
 34 700 l 1
 127 700 l 1
 321 119 l 1
 492 699 l 1
 556 700 l 1
 728 122 l 1
 923 700 l 1
 1010 700 l 1
EndSplineSet
Position2: "'cpsp' Capital Spacing lookup 0 subtable" dx=5 dy=0 dh=10 dv=0
EndChar

StartChar: X
Encoding: 88 88 57
Width: 657
GlyphClass: 2
Flags: MW
HStem: 0 21G<39 148 39 39 502 612 502 502> 680 20G<57 162 162 162 486 592 592 592>
LayerCount: 2
Fore
SplineSet
592 700 m 1
 375 364 l 1
 612 0 l 1
 502 0 l 1
 326 292 l 1
 148 0 l 1
 39 0 l 1
 276 359 l 1
 57 700 l 1
 162 700 l 1
 324 429 l 1
 486 700 l 1
 592 700 l 1
EndSplineSet
Position2: "'cpsp' Capital Spacing lookup 0 subtable" dx=5 dy=0 dh=10 dv=0
EndChar

StartChar: Y
Encoding: 89 89 58
Width: 641
GlyphClass: 2
Flags: MW
HStem: 0 21G<284 371 284 284> 680 20G<34 128 128 128 505 601 601 601>
VStem: 284 87<0 249 249 249>
LayerCount: 2
Fore
SplineSet
601 700 m 1
 371 253 l 1
 371 0 l 1
 284 0 l 1
 284 249 l 1
 34 700 l 1
 128 700 l 1
 318 331 l 1
 505 700 l 1
 601 700 l 1
EndSplineSet
Position2: "'cpsp' Capital Spacing lookup 0 subtable" dx=5 dy=0 dh=10 dv=0
EndChar

StartChar: Z
Encoding: 90 90 59
Width: 638
GlyphClass: 2
Flags: MW
HStem: 0 80<162 567 162 567> 620 80<67 455 67 562>
LayerCount: 2
Fore
SplineSet
562 700 m 1
 562 617 l 1
 162 80 l 1
 567 80 l 1
 567 0 l 1
 54 0 l 1
 54 83 l 1
 455 620 l 1
 67 620 l 1
 67 700 l 1
 562 700 l 1
EndSplineSet
Position2: "'cpsp' Capital Spacing lookup 0 subtable" dx=5 dy=0 dh=10 dv=0
EndChar

StartChar: bracketleft
Encoding: 91 91 60
Width: 340
GlyphClass: 2
Flags: MW
HStem: -126 66<150 304 150 304> 678 66<150 304 150 150>
VStem: 72 78<-60 678 -60 744 -60 744>
LayerCount: 2
Fore
SplineSet
304 678 m 1
 150 678 l 1
 150 -60 l 1
 304 -60 l 1
 304 -126 l 1
 72 -126 l 1
 72 744 l 1
 304 744 l 1
 304 678 l 1
EndSplineSet
EndChar

StartChar: backslash
Encoding: 92 92 61
Width: 509
GlyphClass: 2
Flags: W
LayerCount: 2
Fore
SplineSet
204 818 m 1
 487 -120 l 1
 384 -120 l 1
 101 818 l 1
 204 818 l 1
EndSplineSet
EndChar

StartChar: bracketright
Encoding: 93 93 62
Width: 455
GlyphClass: 2
Flags: MW
HStem: -126 66<121 275 121 353 121 275> 678 66<121 275 121 353>
VStem: 275 78<-60 678 678 678>
LayerCount: 2
Fore
SplineSet
353 744 m 1
 353 -126 l 1
 121 -126 l 1
 121 -60 l 1
 275 -60 l 1
 275 678 l 1
 121 678 l 1
 121 744 l 1
 353 744 l 1
EndSplineSet
EndChar

StartChar: asciicircum
Encoding: 94 94 63
Width: 484
GlyphClass: 2
Flags: W
LayerCount: 2
Fore
SplineSet
361 130 m 1
 239 449 l 1
 117 130 l 1
 22 130 l 1
 197 528 l 1
 280 528 l 1
 455 130 l 1
 361 130 l 1
EndSplineSet
EndChar

StartChar: underscore
Encoding: 95 95 64
Width: 500
GlyphClass: 2
Flags: MW
HStem: -206 74<-2 503 -2 503>
LayerCount: 2
Fore
SplineSet
503 -206 m 1
 -2 -206 l 1
 -2 -132 l 1
 503 -132 l 1
 503 -206 l 1
EndSplineSet
EndChar

StartChar: grave
Encoding: 96 96 65
Width: 333
GlyphClass: 2
Flags: MW
HStem: 606 154<144 254 144 177>
VStem: 61 193<606 718>
LayerCount: 2
Fore
SplineSet
61 718 m 1
 144 760 l 1
 254 606 l 1
 177 606 l 1
 61 718 l 1
EndSplineSet
EndChar

StartChar: a
Encoding: 97 97 66
Width: 529
GlyphClass: 2
Flags: MW
HStem: -5 78<198 243.5> 238 69<225 239 239 378> 455 81<231.5 290>
VStem: 44 82<131 187.5 131 210> 378 84
LayerCount: 2
Fore
SplineSet
462 0 m 1
 379 0 l 1
 379 61 l 1
 345 16 274 -5 213 -5 c 0
 117 -5 44 66 44 161 c 0
 44 259 119 306 225 307 c 2
 378 307 l 1
 378 355 l 2
 378 429 324 455 256 455 c 0
 207 455 161 433 117 397 c 1
 115 396 l 1
 74 467 l 1
 76 469 l 1
 145 513 190 536 273 536 c 0
 382 536 460 465 461 348 c 2
 462 0 l 1
126 161 m 0
 126 101 168 73 228 73 c 0
 295 73 378 103 378 168 c 2
 378 238 l 1
 239 238 l 2
 178 238 126 214 126 161 c 0
EndSplineSet
Substitution2: "Single Substitution lookup 14 subtable" ordfeminine
Substitution2: "'aalt' Access All Alternates lookup 0 subtable" ordfeminine
EndChar

StartChar: b
Encoding: 98 98 67
Width: 605
GlyphClass: 2
Flags: MW
HStem: -4 78<275.5 344 258 371.5> 460 76<274.5 344> 722 20G<70 150 150 150>
VStem: 70 80<0 86 208 326.5 446 742> 454 81<208.5 326>
LayerCount: 2
Fore
SplineSet
150 268 m 0
 150 148 216 74 300 74 c 0
 388 74 454 149 454 268 c 0
 454 384 388 460 300 460 c 0
 216 460 150 385 150 268 c 0
150 446 m 1
 183 504 242 536 307 536 c 0
 431 536 535 426 535 264 c 0
 535 105 434 -4 309 -4 c 0
 242 -4 183 28 150 86 c 1
 150 0 l 1
 70 0 l 1
 70 742 l 1
 150 742 l 1
 150 446 l 1
EndSplineSet
EndChar

StartChar: c
Encoding: 99 99 68
Width: 543
GlyphClass: 2
Flags: MW
HStem: -6 81<243 311.5 243 324.5> 455 81<243 310>
VStem: 44 86<211.5 318.5 211.5 342.5>
AnchorPoint: "Anchor-0" 308 0 basechar 0
LayerCount: 2
Fore
SplineSet
490 97 m 1
 489 95 l 1
 439 32 362 -6 287 -6 c 0
 160 -6 44 110 44 265 c 0
 44 420 157 536 287 536 c 0
 357 536 429 502 479 446 c 1
 481 444 l 1
 422 383 l 1
 421 385 l 1
 385 425 333 455 287 455 c 0
 199 455 130 372 130 265 c 0
 130 158 199 75 287 75 c 0
 336 75 396 110 429 150 c 1
 431 152 l 1
 490 97 l 1
EndSplineSet
EndChar

StartChar: d
Encoding: 100 100 69
Width: 600
GlyphClass: 2
Flags: MW
HStem: -4 78<244 312.5> 460 76<244 314 219 330> 722 20G<438 518 518 518>
VStem: 54 81<208.5 326 208.5 345> 438 80<0 86 86 86 208 326.5 446 742 0 742>
LayerCount: 2
Fore
SplineSet
54 264 m 0
 54 426 157 536 281 536 c 0
 347 536 406 504 438 446 c 1
 438 742 l 1
 518 742 l 1
 518 0 l 1
 438 0 l 1
 438 86 l 1
 405 27 346 -4 279 -4 c 0
 154 -4 54 105 54 264 c 0
135 268 m 0
 135 149 200 74 288 74 c 0
 372 74 438 148 438 268 c 0
 438 385 372 460 288 460 c 0
 200 460 135 384 135 268 c 0
EndSplineSet
EndChar

StartChar: e
Encoding: 101 101 70
Width: 550
GlyphClass: 2
Flags: MW
HStem: -6 80<239 308 239 319> 228 70<131 412 130 495 131 131> 455 81<236 321>
VStem: 44 87<228 228 228 332.5> 412 86<298 300 300 331.5>
LayerCount: 2
Fore
SplineSet
275 455 m 0
 197 455 141 389 130 298 c 1
 412 298 l 1
 412 300 l 2
 412 363 367 455 275 455 c 0
495 228 m 1
 131 228 l 1
 144 139 202 74 276 74 c 0
 340 74 393 112 419 148 c 1
 421 150 l 1
 475 90 l 1
 473 88 l 1
 422 29 355 -6 283 -6 c 0
 140 -6 44 130 44 265 c 0
 44 400 137 536 275 536 c 0
 413 536 498 399 498 265 c 0
 498 250 496 239 495 230 c 2
 495 228 l 1
EndSplineSet
EndChar

StartChar: f
Encoding: 102 102 71
Width: 448
GlyphClass: 2
Flags: MW
HStem: 0 21G<121 205 121 121> 432 76<41 121 41 121 206 354> 665 82<252.5 294.5 234 297.56>
VStem: 121 85<0 432 432 432 508 572>
LayerCount: 2
Fore
SplineSet
375 631 m 1
 354.794921875 651.205078125 315.119140625 665 280 665 c 0
 225 665 206 639 206 572 c 2
 206 508 l 1
 354 508 l 1
 354 432 l 1
 206 432 l 1
 205 0 l 1
 121 0 l 1
 121 432 l 1
 41 432 l 1
 41 508 l 1
 121 508 l 1
 121 582 l 2
 121 697 194 747 274 747 c 0
 315 747 368 735 403 710 c 1
 405 708 l 1
 375 631 l 1
EndSplineSet
EndChar

StartChar: g
Encoding: 103 103 72
Width: 583
GlyphClass: 2
Flags: MW
HStem: -197 80<250 316.5 250 349> 25 79<232 307.5 232 308.5> 455 81<239.5 306.5 216 316>
VStem: 57 83<229 330 229 357> 414 84<50 53 53 108 108 108 211 345.5 452 532>
LayerCount: 2
Fore
SplineSet
414 532 m 1
 498 532 l 1
 498 53 l 2
 498 -100 418 -197 280 -197 c 0
 212 -197 153 -171 91 -127 c 1
 89 -125 l 1
 131 -58 l 1
 133 -59 l 1
 174 -96 224 -117 276 -117 c 0
 357 -117 414 -70 414 50 c 2
 414 108 l 1
 384 54 340 25 277 25 c 0
 159 25 57 129 57 282 c 0
 57 432 158 536 274 536 c 0
 339 536 384 506 414 452 c 1
 414 532 l 1
140 278 m 0
 140 180 193 104 271 104 c 0
 344 104 414 144 414 278 c 0
 414 413 352 455 280 455 c 0
 199 455 140 382 140 278 c 0
EndSplineSet
EndChar

StartChar: h
Encoding: 104 104 73
Width: 565
GlyphClass: 2
Flags: MW
HStem: 0 21G<58 151 58 58 407 494 407 407> 453 83<278 325> 722 20G<58 151 151 151>
VStem: 58 93<0 262 453 742> 407 87<0 328 328 330 0 367>
AnchorPoint: "Anchor-0" 305 0 basechar 0
LayerCount: 2
Fore
SplineSet
151 453 m 1
 189 515 242 536 314 536 c 0
 418 536 494 457 494 330 c 2
 494 0 l 1
 407 0 l 1
 407 328 l 2
 407 406 361 453 289 453 c 0
 197 453 151 374 151 262 c 2
 151 0 l 1
 58 0 l 1
 58 742 l 1
 151 742 l 1
 151 453 l 1
EndSplineSet
EndChar

StartChar: i
Encoding: 105 105 74
Width: 269
GlyphClass: 2
Flags: MW
HStem: 0 21G<75 162 75 75> 512 20G<75 162 162 162> 641 113<103.5 134.5>
VStem: 62 113<682.5 713.5> 75 87<0 532 0 532>
LayerCount: 2
Fore
SplineSet
162 532 m 1xe8
 162 0 l 1
 75 0 l 1
 75 532 l 1
 162 532 l 1xe8
119 641 m 0
 88 641 62 667 62 698 c 0
 62 729 88 754 119 754 c 0
 150 754 175 729 175 698 c 0xf0
 175 667 150 641 119 641 c 0
EndSplineSet
EndChar

StartChar: j
Encoding: 106 106 75
Width: 287
GlyphClass: 2
Flags: MW
HStem: -199 87<132.5 164.5 132.5 186> 512 20G<215 302 302 302> 641 113<242.5 273.5>
VStem: 202 113<682.5 713.5> 215 87<-4 532>
LayerCount: 2
Fore
SplineSet
215 532 m 1xe8
 302 532 l 1
 302 -12 l 2
 302 -139 229 -199 143 -199 c 0
 102 -199 62 -186 31 -163 c 1
 29 -161 l 1
 70 -89 l 1
 72 -90 l 2
 94 -104 122 -112 143 -112 c 0
 186 -112 215 -70 215 -4 c 2
 215 532 l 1xe8
258 641 m 0
 227 641 202 667 202 698 c 0
 202 729 227 754 258 754 c 0
 289 754 315 729 315 698 c 0xf0
 315 667 289 641 258 641 c 0
EndSplineSet
EndChar

StartChar: k
Encoding: 107 107 76
Width: 553
GlyphClass: 2
Flags: MW
HStem: 0 21G<58 143 58 58 401 503 401 401> 512 20G<380 489 489 489> 722 20G<58 143 143 143>
VStem: 58 85<0 116 228 742>
AnchorPoint: "Anchor-0" 106 0 basechar 0
LayerCount: 2
Fore
SplineSet
225 333 m 1
 380 532 l 1
 489 532 l 1
 310 326 l 1
 503 0 l 1
 401 0 l 1
 261 266 l 1
 143 116 l 1
 143 0 l 1
 58 0 l 1
 58 742 l 1
 143 742 l 1
 143 228 l 1
 224 331 l 1
 223 333 l 1
 225 333 l 1
EndSplineSet
EndChar

StartChar: l
Encoding: 108 108 77
Width: 250
GlyphClass: 2
Flags: MW
HStem: 0 21G<70 160 70 70> 722 20G<70 160 160 160>
VStem: 70 90<0 742 0 742>
AnchorPoint: "Anchor-0" 131 0 basechar 0
LayerCount: 2
Fore
SplineSet
160 742 m 1
 160 0 l 1
 70 0 l 1
 70 742 l 1
 160 742 l 1
EndSplineSet
EndChar

StartChar: m
Encoding: 109 109 78
Width: 803
GlyphClass: 2
Flags: MW
HStem: 0 21G<57 141 57 57 347 437 347 347 643 733 643 643> 454 82<239.5 280 534.5 571.5>
VStem: 57 84<0 292 451 532> 347 90<0 282 0 328 0 367.5> 643 90<0 328 328 330 0 372.5>
LayerCount: 2
Fore
SplineSet
410 432 m 1
 437 490 498 536 571 536 c 0
 673 536 733 457 733 330 c 2
 733 0 l 1
 643 0 l 1
 643 328 l 2
 643 417 601 454 542 454 c 0
 474 454 437 373 437 282 c 2
 437 0 l 1
 347 0 l 1
 347 328 l 2
 347 407 309 454 251 454 c 0
 181 454 141 383 141 292 c 2
 141 0 l 1
 57 0 l 1
 57 532 l 1
 141 532 l 1
 141 451 l 1
 165 502 207 536 272 536 c 0
 344 536 388 486 410 432 c 1
EndSplineSet
EndChar

StartChar: n
Encoding: 110 110 79
Width: 542
GlyphClass: 2
Flags: MW
HStem: 0 21G<57 145 57 57 384 471 384 384> 457 79<262 300>
VStem: 57 88<0 307 457 532> 384 87<0 323 323 330 0 362>
AnchorPoint: "Anchor-0" 297 0 basechar 0
LayerCount: 2
Fore
SplineSet
145 457 m 1
 171 507 229 536 295 536 c 0
 395 536 471 457 471 330 c 2
 471 0 l 1
 384 0 l 1
 384 323 l 2
 384 401 334 457 266 457 c 0
 191 457 145 391 145 307 c 2
 145 0 l 1
 57 0 l 1
 57 532 l 1
 145 532 l 1
 145 457 l 1
EndSplineSet
EndChar

StartChar: o
Encoding: 111 111 80
Width: 575
GlyphClass: 2
Flags: MW
HStem: -6 85<239 325 239 346.5> 451 85<239 325>
VStem: 44 83<213 317 213 342.5> 437 83<213 317>
LayerCount: 2
Fore
SplineSet
282 -6 m 0
 155 -6 44 110 44 265 c 0
 44 420 153 536 282 536 c 0
 411 536 520 420 520 265 c 0
 520 110 411 -6 282 -6 c 0
282 451 m 0
 196 451 127 369 127 265 c 0
 127 161 196 79 282 79 c 0
 368 79 437 161 437 265 c 0
 437 369 368 451 282 451 c 0
EndSplineSet
Substitution2: "Single Substitution lookup 14 subtable" ordmasculine
Substitution2: "'aalt' Access All Alternates lookup 0 subtable" ordmasculine
EndChar

StartChar: p
Encoding: 112 112 81
Width: 607
GlyphClass: 2
Flags: MW
HStem: -194 21G<69 149 69 69> -4 76<273 343 257 368> 458 78<274.5 343>
VStem: 69 80<-194 86 205.5 324 446 532> 452 81<206 323.5>
LayerCount: 2
Fore
SplineSet
533 268 m 0
 533 106 430 -4 306 -4 c 0
 240 -4 181 28 149 86 c 1
 149 -194 l 1
 69 -194 l 1
 69 532 l 1
 149 532 l 1
 149 446 l 1
 183 505 241 536 308 536 c 0
 432 536 533 427 533 268 c 0
452 264 m 0
 452 383 387 458 299 458 c 0
 215 458 149 384 149 264 c 0
 149 147 215 72 299 72 c 0
 387 72 452 148 452 264 c 0
EndSplineSet
EndChar

StartChar: q
Encoding: 113 113 82
Width: 603
GlyphClass: 2
Flags: MW
HStem: -194 21G<437 517 437 437> -4 76<243 312.5> 458 78<243 311.5 216 329>
VStem: 53 81<206 323.5 206 347.5> 437 80<-194 86 86 86 205.5 324 446 532 -194 532>
LayerCount: 2
Fore
SplineSet
437 86 m 1
 404 28 345 -4 280 -4 c 0
 156 -4 53 106 53 268 c 0
 53 427 154 536 278 536 c 0
 345 536 404 504 437 446 c 1
 437 532 l 1
 517 532 l 1
 517 -194 l 1
 437 -194 l 1
 437 86 l 1
437 264 m 0
 437 384 371 458 287 458 c 0
 199 458 134 383 134 264 c 0
 134 148 199 72 287 72 c 0
 371 72 437 147 437 264 c 0
EndSplineSet
EndChar

StartChar: r
Encoding: 114 114 83
Width: 423
GlyphClass: 2
Flags: MW
HStem: 0 21G<57 137 57 57> 447 89<289.5 360 358 360 358 360>
VStem: 57 80<0 293 442 532>
AnchorPoint: "Anchor-0" 126 0 basechar 0
LayerCount: 2
Fore
SplineSet
57 532 m 1
 137 532 l 1
 137 442 l 1
 171 501 258 536 358 536 c 2
 360 536 l 1
 360 447 l 1
 341 447 l 2
 238 447 137 394 137 293 c 2
 137 0 l 1
 57 0 l 1
 57 532 l 1
EndSplineSet
EndChar

StartChar: s
Encoding: 115 115 84
Width: 486
GlyphClass: 2
Flags: MW
HStem: -11 76<211 271 211 284> 461 76<215.5 261>
VStem: 72 84<362 417.5 362 436.5> 348 82<120 174.5>
AnchorPoint: "Anchor-0" 262 -7 basechar 0
LayerCount: 2
Fore
SplineSet
72 382 m 0
 72 491 166 537 246 537 c 0
 301 537 367 517 415 483 c 1
 416 481 l 1
 382 412 l 1
 380 413 l 1
 333 442 284 461 238 461 c 0
 193 461 156 445 156 390 c 0
 156 334 210 318 253 304 c 0
 322 282 430 254 430 155 c 0
 430 45 330 -11 238 -11 c 0
 173 -11 95 23 41 71 c 1
 39 72 l 1
 83 137 l 1
 85 135 l 2
 131 94 179 65 243 65 c 0
 299 65 348 94 348 146 c 0
 348 203 276 216 231 231 c 0
 165 253 72 288 72 382 c 0
EndSplineSet
EndChar

StartChar: t
Encoding: 116 116 85
Width: 446
GlyphClass: 2
Flags: MW
HStem: -5 84<261 281.5> 433 75<40 130 40 130 216 382>
VStem: 130 86<171 433 508 658>
AnchorPoint: "Anchor-0" 264 0 basechar 0
LayerCount: 2
Fore
SplineSet
355 108 m 1
 358 109 l 1
 392 36 l 1
 390 34 l 1
 348 9 303 -5 260 -5 c 0
 191 -5 130 62 130 171 c 2
 130 433 l 1
 40 433 l 1
 40 508 l 1
 130 508 l 1
 130 658 l 1
 216 658 l 1
 216 508 l 1
 382 508 l 1
 382 433 l 1
 216 433 l 1
 216 168 l 2
 216 105 242 79 280 79 c 0
 303 79 324 88 355 108 c 1
EndSplineSet
EndChar

StartChar: u
Encoding: 117 117 86
Width: 535
GlyphClass: 2
Flags: MW
HStem: -4 79<218 259> 512 20G<53 136 136 136 375 463 463 463>
VStem: 53 83<202 209 209 532> 375 88<0 75 75 75 225 532 0 532>
LayerCount: 2
Fore
SplineSet
375 75 m 1
 349 25 292 -4 226 -4 c 0
 126 -4 53 75 53 202 c 2
 53 532 l 1
 136 532 l 1
 136 209 l 2
 136 131 184 75 252 75 c 0
 327 75 375 141 375 225 c 2
 375 532 l 1
 463 532 l 1
 463 0 l 1
 375 0 l 1
 375 75 l 1
EndSplineSet
EndChar

StartChar: v
Encoding: 118 118 87
Width: 566
GlyphClass: 2
Flags: MW
HStem: 0 21G<233 233 233 321> 512 20G<37 128 128 128 427 518 518 518>
LayerCount: 2
Fore
SplineSet
233 0 m 1
 37 532 l 1
 128 532 l 1
 277 84 l 1
 427 532 l 1
 518 532 l 1
 321 0 l 1
 233 0 l 1
EndSplineSet
EndChar

StartChar: w
Encoding: 119 119 88
Width: 836
GlyphClass: 2
Flags: MW
HStem: 0 21G<195 287 195 195 552 645 552 552> 512 20G<38 129 129 129 381 447 447 447 695 785 785 785>
LayerCount: 2
Fore
SplineSet
785 532 m 1
 645 0 l 1
 552 0 l 1
 413 410 l 1
 287 0 l 1
 195 0 l 1
 38 532 l 1
 129 532 l 1
 244 120 l 1
 381 532 l 1
 447 532 l 1
 586 120 l 1
 695 532 l 1
 785 532 l 1
EndSplineSet
EndChar

StartChar: x
Encoding: 120 120 89
Width: 553
GlyphClass: 2
Flags: MW
HStem: 0 21G<38 140 38 38 408 510 408 408> 512 20G<51 150 150 150 397 497 497 497>
LayerCount: 2
Fore
SplineSet
232 274 m 1
 51 532 l 1
 150 532 l 1
 274 337 l 1
 397 532 l 1
 497 532 l 1
 315 274 l 1
 510 0 l 1
 408 0 l 1
 274 211 l 1
 140 0 l 1
 38 0 l 1
 232 274 l 1
EndSplineSet
EndChar

StartChar: y
Encoding: 121 121 90
Width: 576
GlyphClass: 2
Flags: HMW
HStem: -199 76<153.5 178 153.5 198> 512 20G<37 127 127 127 437 528 528 528>
LayerCount: 2
Fore
SplineSet
437 532 m 1
 528 532 l 1
 307 -71 l 2
 280 -156 231 -199 165 -199 c 0
 118 -199 79 -184 42 -153 c 1
 41 -152 l 1
 73 -87 l 1
 75 -88 l 1
 100 -106 143 -123 164 -123 c 0
 192 -123 211 -110 241 -28 c 2
 255 10 l 1
 37 532 l 1
 127 532 l 1
 294 114 l 5
 437 532 l 1
EndSplineSet
EndChar

StartChar: z
Encoding: 122 122 91
Width: 529
GlyphClass: 2
Flags: MW
HStem: 0 78 453 79<57 341 57 57>
LayerCount: 2
Fore
SplineSet
459 531 m 1
 459 466 l 1
 168 78 l 1
 468 77 l 1
 468 -1 l 1
 48 0 l 1
 48 66 l 1
 341 453 l 1
 57 453 l 1
 57 532 l 1
 459 531 l 1
EndSplineSet
EndChar

StartChar: braceleft
Encoding: 123 123 92
Width: 325
GlyphClass: 2
Flags: MW
HStem: -128 96<202.5 305 302 305 302 305> 258 100<27 60 27 60> 648 98<267 302 302 305>
VStem: 101 109<13 37 37 201 409 416 416 580>
LayerCount: 2
Fore
SplineSet
210 580 m 2
 210 416 l 2
 210 355 192 323 147 308 c 1
 193 294 210 262 210 201 c 2
 210 37 l 2
 210 -11 232 -32 302 -32 c 2
 305 -32 l 1
 305 -128 l 1
 259 -128 l 2
 146 -128 101 -92 101 2 c 2
 101 208 l 2
 101 245 89 258 60 258 c 2
 27 258 l 1
 27 358 l 1
 60 358 l 2
 89 358 101 372 101 409 c 2
 101 616 l 2
 101 709 146 746 259 746 c 2
 305 746 l 1
 305 648 l 1
 302 648 l 2
 232 648 210 628 210 580 c 2
EndSplineSet
EndChar

StartChar: bar
Encoding: 124 124 93
Width: 251
GlyphClass: 2
Flags: MW
VStem: 71 92<-118 812>
LayerCount: 2
Fore
SplineSet
163 -118 m 1
 71 -118 l 1
 71 812 l 1
 163 812 l 1
 163 -118 l 1
EndSplineSet
EndChar

StartChar: braceright
Encoding: 125 125 94
Width: 402
GlyphClass: 2
Flags: MW
HStem: -128 96<101 104 104 139 101 147 101 104> 258 100<331.5 379 346 379> 648 98<101 104 101 147>
VStem: 196 109<37 201 201 208 416 580 580 604>
LayerCount: 2
Fore
SplineSet
379 358 m 1
 379 258 l 1
 346 258 l 2
 317 258 305 245 305 208 c 2
 305 2 l 2
 305 -92 260 -128 147 -128 c 2
 101 -128 l 1
 101 -32 l 1
 104 -32 l 2
 174 -32 196 -11 196 37 c 2
 196 201 l 2
 196 262 214 294 259 309 c 1
 213 323 196 355 196 416 c 2
 196 580 l 2
 196 628 174 648 104 648 c 2
 101 648 l 1
 101 746 l 1
 147 746 l 2
 260 746 305 709 305 616 c 2
 305 409 l 2
 305 372 317 358 346 358 c 2
 379 358 l 1
EndSplineSet
EndChar

StartChar: asciitilde
Encoding: 126 126 95
Width: 444
GlyphClass: 2
Flags: MW
HStem: 246 94<258.5 278.5 253.5 317.5> 302 96<155.5 173 115.5 180.5>
VStem: 51 85<252 255 252 301.5> 298 84<388 390 341.5 390>
LayerCount: 2
Fore
SplineSet
147 398 m 0x70
 199 398 238 340 269 340 c 0
 288 340 298 356 298 388 c 2
 298 390 l 1
 382 390 l 1
 382 388 l 2
 382 295 349 246 286 246 c 0xb0
 231 246 196 302 165 302 c 0
 146 302 136 287 136 255 c 2
 136 252 l 1
 51 252 l 1
 51 255 l 2
 51 348 84 398 147 398 c 0x70
EndSplineSet
EndChar

StartChar: exclamdown
Encoding: 161 161 97
Width: 201
GlyphClass: 2
Flags: MW
HStem: 430 112<89.5 120.5>
VStem: 48 113<470.5 501.5> 58 94<-162 12 -162 12>
LayerCount: 2
Fore
SplineSet
58 12 m 1xa0
 77 310 l 1
 134 310 l 1
 152 12 l 1
 152 -162 l 1
 58 -162 l 1
 58 12 l 1xa0
161 486 m 0xc0
 161 455 136 430 105 430 c 0
 74 430 48 455 48 486 c 0
 48 517 74 542 105 542 c 0
 136 542 161 517 161 486 c 0xc0
EndSplineSet
EndChar

StartChar: cent
Encoding: 162 162 98
Width: 527
GlyphClass: 2
Flags: MW
HStem: -6 82<235 235> 454 82<235 235>
VStem: 26 86<217.5 312.5 217.5 336.5> 235 64<-148 -8 -148 -6 -148 -6 76 454 454 454 538 686>
AnchorPoint: "Anchor-0" 288 0 basechar 0
LayerCount: 2
Fore
SplineSet
235 454 m 1
 164 436 112 360 112 265 c 0
 112 170 164 94 235 76 c 1
 235 454 l 1
235 686 m 1
 299 686 l 1
 299 538 l 1
 375 532 440 499 486 448 c 2
 487 447 l 1
 429 385 l 1
 427 387 l 2
 396 422 348 449 299 456 c 1
 299 74 l 1
 352 82 406 112 435 147 c 1
 437 150 l 1
 497 95 l 1
 495 93 l 1
 449 36 380 -2 299 -8 c 1
 299 -148 l 1
 235 -148 l 1
 235 -6 l 1
 125 12 26 122 26 265 c 0
 26 408 124 518 235 536 c 1
 235 686 l 1
EndSplineSet
EndChar

StartChar: sterling
Encoding: 163 163 99
Width: 509
GlyphClass: 2
Flags: MW
HStem: -2 100<28 111 234 479 28 111> 296 88<28 111 28 111 234 375> 596 112<290 336>
VStem: 111 123<98 296 384 480>
LayerCount: 2
Fore
SplineSet
234 98 m 1
 479 98 l 1
 479 -2 l 1
 28 -2 l 1
 28 98 l 1
 111 98 l 1
 111 296 l 1
 28 296 l 1
 28 384 l 1
 111 384 l 1
 111 483 l 2
 111 626 189 708 308 708 c 0
 369 708 440 676 491 617 c 1
 492 615 l 1
 443 519 l 1
 440 521 l 1
 398 571 355 596 317 596 c 0
 263 596 234 558 234 480 c 2
 234 384 l 1
 375 384 l 1
 375 296 l 1
 234 296 l 1
 234 98 l 1
EndSplineSet
EndChar

StartChar: currency
Encoding: 164 164 100
Width: 634
GlyphClass: 2
Flags: MW
HStem: -8 21G<94 94 535 535> 54 104<292 336> 484 102<291.5 337 291.5 353>
VStem: 78 97<291 347> 455 96<290.5 347 290.5 364>
LayerCount: 2
Fore
SplineSet
314 158 m 0
 392 158 455 231 455 319 c 0
 455 409 392 484 314 484 c 0
 237 484 175 410 175 319 c 0
 175 231 237 158 314 158 c 0
551 319 m 0
 551 262 532 209 501 167 c 1
 603 65 l 1
 535 -8 l 1
 434 98 l 1
 399 70 358 54 314 54 c 0
 270 54 229 71 195 98 c 1
 94 -8 l 1
 25 65 l 1
 127 167 l 1
 96 211 78 263 78 319 c 0
 78 375 96 428 125 470 c 1
 25 570 l 1
 94 643 l 1
 193 539 l 1
 229 569 269 586 314 586 c 0
 360 586 401 568 436 540 c 1
 535 643 l 1
 603 570 l 1
 503 470 l 1
 534 426 551 375 551 319 c 0
EndSplineSet
EndChar

StartChar: yen
Encoding: 165 165 101
Width: 574
GlyphClass: 2
Flags: MW
HStem: -2 21G<232 355 232 232> 136 56<73 232 73 232 355 522> 270 54<73 189 73 213 73 189 394 522> 682 20G<-3 121 121 121 460 585 585 585>
VStem: 232 123<-2 136 -2 136 192 228 228 228>
LayerCount: 2
Fore
SplineSet
394 324 m 1
 522 324 l 1
 522 270 l 1
 371 270 l 1
 355 233 l 1
 355 192 l 1
 522 192 l 1
 522 136 l 1
 355 136 l 1
 355 -2 l 1
 232 -2 l 1
 232 136 l 1
 73 136 l 1
 73 192 l 1
 232 192 l 1
 232 228 l 1
 213 270 l 1
 73 270 l 1
 73 324 l 1
 189 324 l 1
 -3 702 l 1
 121 702 l 1
 292 364 l 1
 460 702 l 1
 585 702 l 1
 394 324 l 1
EndSplineSet
EndChar

StartChar: brokenbar
Encoding: 166 166 102
Width: 251
GlyphClass: 2
Flags: MW
VStem: 71 92<-118 232 462 812>
LayerCount: 2
Fore
SplineSet
163 -118 m 1
 71 -118 l 1
 71 232 l 1
 163 232 l 1
 163 -118 l 1
163 462 m 1
 71 462 l 1
 71 812 l 1
 163 812 l 1
 163 462 l 1
EndSplineSet
EndChar

StartChar: section
Encoding: 167 167 103
Width: 449
GlyphClass: 2
Flags: MW
HStem: -88 88<193 241.5 193 268.5> 610 86<209.5 250.384>
VStem: 36 105<292.5 332.5 292.5 338.5> 57 101<524 570.5 499.5 593> 299 103<43.5 91.5 19 114> 316 107<281.5 321>
LayerCount: 2
Fore
SplineSet
219 374 m 0xe4
 168 374 141 350 141 315 c 0
 141 270 184 238 241 238 c 0
 292 238 316 264 316 299 c 0
 316 343 276 374 219 374 c 0xe4
366 563 m 1
 317.045898438 595.63671875 267.768554688 610 233 610 c 0
 186 610 158 587 158 554 c 0
 158 445 423 495 423 306 c 0xd4
 423 248 378 197 320 177 c 1
 376 151 402 120 402 63 c 0
 402 -25 318 -88 219 -88 c 0
 154 -88 76 -60 16 -11 c 1
 14 -10 l 1
 52 69 l 1
 54 67 l 1
 111 22 169 0 217 0 c 0
 266 0 299 27 299 60 c 0
 299 168 36 122 36 307 c 0xe8
 36 370 81 416 150 435 c 1
 81 465 57 498 57 550 c 0
 57 636 136 696 233 696 c 0
 285 696 342 679 402 643 c 1xd8
 404 642 l 1
 366 563 l 1
EndSplineSet
EndChar

StartChar: dieresis
Encoding: 168 168 104
Width: 374
GlyphClass: 2
Flags: MW
HStem: 642 113<65.5 96.5 242.5 273.5>
VStem: 24 113<683.5 714.5> 201 113<683.5 714.5>
LayerCount: 2
Fore
SplineSet
24 699 m 0
 24 730 50 755 81 755 c 0
 112 755 137 730 137 699 c 0
 137 668 112 642 81 642 c 0
 50 642 24 668 24 699 c 0
201 699 m 0
 201 730 227 755 258 755 c 0
 289 755 314 730 314 699 c 0
 314 668 289 642 258 642 c 0
 227 642 201 668 201 699 c 0
EndSplineSet
EndChar

StartChar: copyright
Encoding: 169 169 105
Width: 745
GlyphClass: 2
Flags: MW
HStem: 6 66<292 450.5 292 467> 174 60<345.5 395.492 345.5 401> 464 58<345.5 396.711> 626 66<293.5 452>
VStem: 32 62<272 424 272 441> 196 64<317.5 382 317.5 398> 652 62<274 426>
LayerCount: 2
Fore
SplineSet
379 234 m 0
 411.983398438 234 448.255859375 249.255859375 474 275 c 1
 512 232 l 1
 511 230 l 1
 476 196 426 174 376 174 c 0
 275 174 196 250 196 349 c 0
 196 447 276 522 378 522 c 0
 427 522 477 502 511 469 c 1
 512 467 l 1
 474 421 l 1
 447.569335938 447.430664062 414.422851562 464 379 464 c 0
 312 464 260 414 260 350 c 0
 260 285 312 234 379 234 c 0
373 626 m 0
 214 626 94 500 94 348 c 0
 94 196 213 72 371 72 c 0
 530 72 652 198 652 350 c 0
 652 502 531 626 373 626 c 0
373 692 m 0
 564 692 714 537 714 350 c 0
 714 164 563 6 371 6 c 0
 180 6 32 162 32 348 c 0
 32 534 181 692 373 692 c 0
EndSplineSet
EndChar

StartChar: ordfeminine
Encoding: 170 170 106
Width: 544
GlyphClass: 2
Flags: MW
HStem: 452 60<144.5 159.5> 598 46<152 168 168 246> 712 68<167.877 198>
VStem: 24 81<543.5 570 543.5 580> 246 85<559 598 598 598 644 655 655 664 456 672.5>
LayerCount: 2
Fore
SplineSet
162 512 m 0
 200 512 229 527 246 559 c 1
 246 598 l 1
 168 598 l 2
 127 598 105 583 105 557 c 0
 105 530 127 512 162 512 c 0
43 741 m 1
 90.4951171875 764.747070312 143.75390625 780 192 780 c 0
 280 780 331 737 331 664 c 2
 331 456 l 1
 247 456 l 1
 247 501 l 1
 221 469 184 452 135 452 c 0
 67 452 24 492 24 550 c 0
 24 610 71 643 152 644 c 2
 246 644 l 1
 246 655 l 2
 246 690 223 712 173 712 c 0
 141 712 105 701 67 682 c 1
 64 681 l 1
 43 741 l 1
EndSplineSet
EndChar

StartChar: guillemotleft
Encoding: 171 171 107
Width: 416
GlyphClass: 2
Flags: W
LayerCount: 2
Fore
SplineSet
275 260 m 1
 384 84 l 1
 282 84 l 1
 184 260 l 1
 282 436 l 1
 384 436 l 1
 275 260 l 1
127 260 m 1
 216 84 l 1
 134 84 l 1
 16 260 l 1
 134 436 l 1
 216 436 l 1
 127 260 l 1
EndSplineSet
EndChar

StartChar: logicalnot
Encoding: 172 172 108
Width: 497
GlyphClass: 2
Flags: MW
HStem: 322 84<26 344 26 433>
VStem: 344 89<142 322 322 322>
LayerCount: 2
Fore
SplineSet
433 406 m 1
 433 142 l 1
 344 142 l 1
 344 322 l 1
 26 322 l 1
 26 406 l 1
 433 406 l 1
EndSplineSet
EndChar

StartChar: softhyphen
Encoding: 173 173 109
Width: 356
GlyphClass: 2
Flags: MW
HStem: 262 84<47 298 47 298>
VStem: 47 251<262 346 262 346>
LayerCount: 2
Fore
SplineSet
298 262 m 1
 47 262 l 1
 47 346 l 1
 298 346 l 1
 298 262 l 1
EndSplineSet
EndChar

StartChar: registered
Encoding: 174 174 110
Width: 745
GlyphClass: 2
Flags: MW
HStem: 6 66<292 450.5 292 467> 290 52<304 380 380 394 304 380> 478 52<304 380 304 304> 626 66<293.5 452>
VStem: 32 62<272 424 272 441> 242 62<188 290 188 342 342 478> 460 60<389.5 432.5> 652 62<274 426>
LayerCount: 2
Fore
SplineSet
304 342 m 1
 380 342 l 2
 431 342 460 368 460 411 c 0
 460 454 431 478 380 478 c 2
 304 478 l 1
 304 342 l 1
520 412 m 0
 520 359 494 321 450 302 c 1
 529 188 l 1
 457 188 l 1
 394 290 l 1
 304 290 l 1
 304 188 l 1
 242 188 l 1
 242 530 l 1
 380 530 l 2
 469 530 520 488 520 412 c 0
371 72 m 0
 530 72 652 198 652 350 c 0
 652 502 531 626 373 626 c 0
 214 626 94 500 94 348 c 0
 94 196 213 72 371 72 c 0
373 692 m 0
 564 692 714 537 714 350 c 0
 714 164 563 6 371 6 c 0
 180 6 32 162 32 348 c 0
 32 534 181 692 373 692 c 0
EndSplineSet
EndChar

StartChar: macron
Encoding: 175 175 111
Width: 341
GlyphClass: 2
Flags: MW
HStem: 638 88<36 296 36 296>
VStem: 36 260<638 726 638 726>
LayerCount: 2
Fore
SplineSet
296 638 m 1
 36 638 l 1
 36 726 l 1
 296 726 l 1
 296 638 l 1
EndSplineSet
EndChar

StartChar: degree
Encoding: 176 176 112
Width: 339
GlyphClass: 2
Flags: MW
HStem: 578 56<163 199 163 213.5> 756 56<163 199>
VStem: 63 54<679 711.5 679 727> 246 54<679 711.5>
LayerCount: 2
Fore
SplineSet
181 756 m 0
 145 756 117 728 117 695 c 0
 117 663 145 634 181 634 c 0
 217 634 246 663 246 695 c 0
 246 728 217 756 181 756 c 0
181 812 m 0
 246 812 300 759 300 695 c 0
 300 631 246 578 181 578 c 0
 117 578 63 631 63 695 c 0
 63 759 116 812 181 812 c 0
EndSplineSet
EndChar

StartChar: plusminus
Encoding: 177 177 113
Width: 468
GlyphClass: 2
Flags: MW
HStem: 18 84<26 436 26 436> 350 82<26 192 26 192 272 436 26 272> 584 20G<192 272 272 272>
VStem: 192 80<178 350 178 350 432 604>
LayerCount: 2
Fore
SplineSet
26 102 m 1
 436 102 l 1
 436 18 l 1
 26 18 l 1
 26 102 l 1
436 432 m 1
 436 350 l 1
 272 350 l 1
 272 178 l 1
 192 178 l 1
 192 350 l 1
 26 350 l 1
 26 432 l 1
 192 432 l 1
 192 604 l 1
 272 604 l 1
 272 432 l 1
 436 432 l 1
EndSplineSet
EndChar

StartChar: twosuperior
Encoding: 178 178 114
Width: 532
GlyphClass: 2
Flags: MW
HStem: 284 72<142 328 142 328> 630 76<152.5 182>
VStem: 218 92<576 600>
LayerCount: 2
Fore
SplineSet
177 706 m 0
 252 706 310 664 310 598 c 0
 310 554 278 506 230 460 c 1
 142 356 l 1
 328 356 l 1
 328 284 l 1
 30 284 l 1
 30 344 l 1
 178 506 l 2
 201 534 218 565 218 586 c 0
 218 614 198 630 166 630 c 0
 138 630 95 611 58 579 c 1
 55 577 l 1
 20 644 l 1
 22 645 l 1
 71 682 128 706 177 706 c 0
EndSplineSet
EndChar

StartChar: threesuperior
Encoding: 179 179 115
Width: 544
GlyphClass: 2
Flags: MW
HStem: 280 70<132.803 178.5 132.803 208> 634 66<27 196 27 301>
VStem: 234 87<394.5 433.5>
LayerCount: 2
Fore
SplineSet
44 399 m 1
 75.4013671875 367.598632812 112.606445312 350 153 350 c 0
 204 350 234 375 234 414 c 0
 234 453 204 474 152 474 c 2
 88 474 l 1
 88 523 l 1
 196 634 l 1
 27 634 l 1
 27 700 l 1
 301 700 l 1
 301 648 l 1
 185 531 l 1
 202 529 l 2
 272 522 321 482 321 415 c 0
 321 336 257 280 159 280 c 0
 103 280 46 300 8 327 c 1
 6 328 l 1
 44 399 l 1
EndSplineSet
EndChar

StartChar: acute
Encoding: 180 180 116
Width: 333
GlyphClass: 2
Flags: MW
HStem: 606 154<58 168 58 168>
VStem: 58 193<606 717>
LayerCount: 2
Fore
SplineSet
251 717 m 1
 136 606 l 1
 58 606 l 1
 168 760 l 1
 251 717 l 1
EndSplineSet
EndChar

StartChar: mu
Encoding: 181 181 117
Width: 593
GlyphClass: 2
Flags: MW
HStem: -196 21G<76 76 76 159> -6 78<239.5 280.5> 514 20G<76 159 159 159 395 483 483 483>
VStem: 76 83<-196 23 168.5 208 208 534> 395 88<-2 73 73 73 224 534 -2 534>
LayerCount: 2
Fore
SplineSet
76 -196 m 1
 76 534 l 1
 159 534 l 1
 159 208 l 2
 159 129 206 72 273 72 c 0
 346 72 395 139 395 224 c 2
 395 534 l 1
 483 534 l 1
 483 -2 l 1
 395 -2 l 1
 395 73 l 1
 370 23 313 -6 248 -6 c 0
 213 -6 183 4 159 23 c 1
 159 -196 l 1
 76 -196 l 1
EndSplineSet
EndChar

StartChar: paragraph
Encoding: 182 182 118
Width: 571
GlyphClass: 2
Flags: MW
HStem: 668 76<307 408 307 307>
VStem: -3 310<507.5 595.5> 215 92<-112 354 354 354> 408 93<-112 668 668 668>
LayerCount: 2
Fore
SplineSet
501 -112 m 1xd0
 408 -112 l 1
 408 668 l 1
 307 668 l 1
 307 -112 l 1
 215 -112 l 1
 215 354 l 1xb0
 187 354 l 2
 36 354 -3 470 -3 545 c 0
 -3 646 62 744 225 744 c 2
 501 744 l 1
 501 -112 l 1xd0
EndSplineSet
EndChar

StartChar: periodcentered
Encoding: 183 183 119
Width: 203
GlyphClass: 2
Flags: MW
HStem: 222 131<79.5 114.5>
VStem: 35 125<268.5 306>
LayerCount: 2
Fore
SplineSet
97 353 m 0
 132 353 160 325 160 287 c 0
 160 250 132 222 97 222 c 0
 62 222 35 250 35 287 c 0
 35 325 62 353 97 353 c 0
EndSplineSet
EndChar

StartChar: cedilla
Encoding: 184 184 120
Width: 334
GlyphClass: 2
Flags: MW
HStem: -226 67<134 157.001 132.31 181> -86 99<146 157.001>
VStem: 187 73
LayerCount: 2
Fore
SplineSet
84 -138 m 1
 102.642578125 -150.428710938 121.618164062 -159 143.000976562 -159 c 0
 171.000976562 -159 187.000976562 -140 187.000976562 -121 c 0
 187.000976562 -104 173.000976562 -86 141.000976562 -86 c 0
 128.19140625 -86 112.83984375 -87.6640625 102 -92 c 1
 146 13 l 1
 220 13 l 1
 191 -48 l 1
 232 -57 260 -85 260 -129 c 0
 260 -189 211 -226 151 -226 c 0
 117 -226 85 -215 62 -198 c 1
 60 -197 l 1
 84 -138 l 1
EndSplineSet
EndChar

StartChar: onesuperior
Encoding: 185 185 121
Width: 517
GlyphClass: 2
Flags: MW
VStem: 94 89<284 618 618 618>
LayerCount: 2
Fore
SplineSet
94 284 m 1
 94 618 l 1
 11 598 l 1
 11 682 l 1
 183 723 l 1
 183 284 l 1
 94 284 l 1
EndSplineSet
EndChar

StartChar: ordmasculine
Encoding: 186 186 122
Width: 576
GlyphClass: 2
Flags: MW
HStem: 454 68<165 207 165 232.5> 708 70<165 207>
VStem: 22 86<587 643 587 664.5> 264 88<587 643>
LayerCount: 2
Fore
SplineSet
186 708 m 0
 144 708 108 671 108 615 c 0
 108 559 144 522 186 522 c 0
 228 522 264 559 264 615 c 0
 264 671 228 708 186 708 c 0
186 778 m 0
 279 778 352 713 352 616 c 0
 352 519 279 454 186 454 c 0
 93 454 22 519 22 616 c 0
 22 713 93 778 186 778 c 0
EndSplineSet
EndChar

StartChar: guillemotright
Encoding: 187 187 123
Width: 436
GlyphClass: 2
Flags: W
LayerCount: 2
Fore
SplineSet
314 261 m 1
 225 438 l 1
 307 438 l 1
 425 261 l 1
 307 84 l 1
 225 84 l 1
 314 261 l 1
166 261 m 1
 57 438 l 1
 159 438 l 1
 257 261 l 1
 159 84 l 1
 57 84 l 1
 166 261 l 1
EndSplineSet
EndChar

StartChar: onequarter
Encoding: 188 188 124
Width: 906
GlyphClass: 2
Flags: MW
HStem: -2 21G<42 42 42 160 743 827 743 743> 94 68<607 743 607 743 827 888> 628 74<11 94 11 183>
VStem: 94 89<284 628 628 628> 743 84<-2 94 -2 94 162 264>
LayerCount: 2
Fore
SplineSet
743 162 m 1
 743 264 l 1
 827 264 l 1
 827 162 l 1
 888 162 l 1
 888 94 l 1
 827 94 l 1
 827 -2 l 1
 743 -2 l 1
 743 94 l 1
 498 94 l 1
 498 157 l 1
 671 416 l 1
 769 416 l 1
 607 162 l 1
 743 162 l 1
42 -2 m 1
 637 702 l 1
 771 702 l 1
 160 -2 l 1
 42 -2 l 1
94 284 m 1
 94 628 l 1
 11 628 l 1
 11 702 l 1
 183 702 l 1
 183 284 l 1
 94 284 l 1
EndSplineSet
EndChar

StartChar: onehalf
Encoding: 189 189 125
Width: 730
GlyphClass: 2
Flags: MW
HStem: -2 72<518 702 518 702> 344 74<528.428 558> 628 74<11 94 11 183>
VStem: 94 89<284 628 628 628> 592 92<289.5 313.5>
LayerCount: 2
Fore
SplineSet
419 357 m 1
 457.489257812 395.489257812 504.85546875 418 552 418 c 0
 625 418 684 377 684 311 c 0
 684 267 651 219 603 173 c 1
 518 70 l 1
 702 70 l 1
 702 -2 l 1
 427 -2 l 1
 427 58 l 1
 553 219 l 2
 576 248 592 279 592 300 c 0
 592 327 574 344 542 344 c 0
 514 344 478 325 449 293 c 2
 447 291 l 1
 419 357 l 1
42 -2 m 1
 485 702 l 1
 578 702 l 1
 160 -2 l 1
 42 -2 l 1
94 284 m 1
 94 628 l 1
 11 628 l 1
 11 702 l 1
 183 702 l 1
 183 284 l 1
 94 284 l 1
EndSplineSet
EndChar

StartChar: threequarters
Encoding: 190 190 126
Width: 952
GlyphClass: 2
Flags: MW
HStem: -2 21G<106 106 106 223 791 875 791 791> 94 68<655 791 655 791 875 936> 280 70<132.803 178.5 132.803 208> 634 66<27 196 27 301>
VStem: 234 87<394.5 433.5> 791 84<-2 94 -2 94 162 264>
LayerCount: 2
Fore
SplineSet
791 162 m 1
 791 264 l 1
 875 264 l 1
 875 162 l 1
 936 162 l 1
 936 94 l 1
 875 94 l 1
 875 -2 l 1
 791 -2 l 1
 791 94 l 1
 547 94 l 1
 547 157 l 1
 719 416 l 1
 817 416 l 1
 655 162 l 1
 791 162 l 1
44 399 m 1
 75.4013671875 367.598632812 112.606445312 350 153 350 c 0
 204 350 234 375 234 414 c 0
 234 453 204 474 152 474 c 2
 88 474 l 1
 88 523 l 1
 196 634 l 1
 27 634 l 1
 27 700 l 1
 301 700 l 1
 301 648 l 1
 185 531 l 1
 202 529 l 2
 272 522 321 482 321 415 c 0
 321 336 257 280 159 280 c 0
 103 280 46 300 8 327 c 1
 6 328 l 1
 44 399 l 1
106 -2 m 1
 685 702 l 1
 819 702 l 1
 223 -2 l 1
 106 -2 l 1
EndSplineSet
EndChar

StartChar: questiondown
Encoding: 191 191 127
Width: 392
GlyphClass: 2
Flags: MW
HStem: -166 78<174.5 232.5 174.5 249> 430 112<191.5 216.5>
VStem: 23 82<-8 52 -8 81> 158 91<470.5 501.5> 167 76<138 203> 172 62<336 336> 299 80<36 38 -30 38>
LayerCount: 2
Fore
SplineSet
249 486 m 0xf2
 249 455 229 430 204 430 c 0
 179 430 158 455 158 486 c 0
 158 517 179 542 204 542 c 0
 229 542 249 517 249 486 c 0xf2
299 38 m 1
 379 38 l 1
 379 36 l 2
 379 -96 297 -166 201 -166 c 0
 107 -166 23 -77 23 23 c 0
 23 139 97 191 167 203 c 1xea
 172 336 l 1
 234 336 l 1xe6
 243 138 l 1xea
 216 138 l 2
 153 138 105 84 105 20 c 0
 105 -36 146 -88 203 -88 c 0
 262 -88 297 -31 299 36 c 2
 299 38 l 1
EndSplineSet
EndChar

StartChar: Agrave
Encoding: 192 192 128
Width: 721
GlyphClass: 2
Flags: MW
HStem: 0 21G<53 141 53 53 564 564 564 656> 182 74<231 474 231 501 205 474> 680 20G<321 389 389 389> 760 154<284 394 284 317>
VStem: 201 193<760 872>
LayerCount: 2
Fore
SplineSet
201 872 m 1
 284 914 l 1
 394 760 l 1
 317 760 l 1
 201 872 l 1
352 603 m 1
 231 256 l 1
 474 256 l 1
 352 603 l 1
501 182 m 1
 205 182 l 1
 141 0 l 1
 53 0 l 1
 321 700 l 1
 389 700 l 1
 656 0 l 1
 564 0 l 1
 501 182 l 1
EndSplineSet
Position2: "'cpsp' Capital Spacing lookup 0 subtable" dx=5 dy=0 dh=10 dv=0
EndChar

StartChar: Aacute
Encoding: 193 193 129
Width: 721
GlyphClass: 2
Flags: MW
HStem: 0 21G<53 141 53 53 564 564 564 656> 182 74<231 474 231 501 205 474> 680 20G<321 389 389 389> 761 154<314 424 314 424>
VStem: 314 193<761 872>
LayerCount: 2
Fore
SplineSet
507 872 m 1
 392 761 l 1
 314 761 l 1
 424 915 l 1
 507 872 l 1
352 603 m 1
 231 256 l 1
 474 256 l 1
 352 603 l 1
501 182 m 1
 205 182 l 1
 141 0 l 1
 53 0 l 1
 321 700 l 1
 389 700 l 1
 656 0 l 1
 564 0 l 1
 501 182 l 1
EndSplineSet
Position2: "'cpsp' Capital Spacing lookup 0 subtable" dx=5 dy=0 dh=10 dv=0
EndChar

StartChar: Acircumflex
Encoding: 194 194 130
Width: 721
GlyphClass: 2
Flags: MW
HStem: 0 21G<53 141 53 53 564 564 564 656> 182 74<231 474 231 501 205 474> 680 20G<321 389 389 389> 761 146<213 408 213 408 320 515 320 435>
VStem: 213 302<761 761>
LayerCount: 2
Fore
SplineSet
515 761 m 1
 435 761 l 1
 364 857 l 1
 293 761 l 1
 213 761 l 1
 320 907 l 1
 408 907 l 1
 515 761 l 1
352 603 m 1
 231 256 l 1
 474 256 l 1
 352 603 l 1
501 182 m 1
 205 182 l 1
 141 0 l 1
 53 0 l 1
 321 700 l 1
 389 700 l 1
 656 0 l 1
 564 0 l 1
 501 182 l 1
EndSplineSet
Position2: "'cpsp' Capital Spacing lookup 0 subtable" dx=5 dy=0 dh=10 dv=0
EndChar

StartChar: Atilde
Encoding: 195 195 131
Width: 721
GlyphClass: 2
Flags: MW
HStem: 0 21G<53 141 53 53 564 564 564 656> 182 74<231 474 231 501 205 474> 680 20G<321 389 389 389> 760 62<400 435 400 450> 840 62<281.5 316.5>
VStem: 203 59<766 769 766 813> 455 58<894 896 850.5 896>
LayerCount: 2
Fore
SplineSet
298 902 m 0
 349 902 381 822 419 822 c 0
 451 822 455 861 455 894 c 2
 455 896 l 1
 513 896 l 1
 513 894 l 2
 513 807 481 760 419 760 c 0
 364 760 336 840 297 840 c 0
 266 840 262 802 262 769 c 2
 262 766 l 1
 203 766 l 1
 203 769 l 2
 203 857 236 902 298 902 c 0
352 603 m 1
 231 256 l 1
 474 256 l 1
 352 603 l 1
501 182 m 1
 205 182 l 1
 141 0 l 1
 53 0 l 1
 321 700 l 1
 389 700 l 1
 656 0 l 1
 564 0 l 1
 501 182 l 1
EndSplineSet
Position2: "'cpsp' Capital Spacing lookup 0 subtable" dx=5 dy=0 dh=10 dv=0
EndChar

StartChar: Adieresis
Encoding: 196 196 132
Width: 721
GlyphClass: 2
Flags: MW
HStem: 0 21G<53 141 53 53 564 564 564 656> 182 74<231 474 231 501 205 474> 680 20G<321 389 389 389> 760 113<258.5 289.5 435.5 466.5>
VStem: 217 113<801.5 832.5> 394 113<801.5 832.5>
LayerCount: 2
Fore
SplineSet
217 817 m 0
 217 848 243 873 274 873 c 0
 305 873 330 848 330 817 c 0
 330 786 305 760 274 760 c 0
 243 760 217 786 217 817 c 0
394 817 m 0
 394 848 420 873 451 873 c 0
 482 873 507 848 507 817 c 0
 507 786 482 760 451 760 c 0
 420 760 394 786 394 817 c 0
352 603 m 1
 231 256 l 1
 474 256 l 1
 352 603 l 1
501 182 m 1
 205 182 l 1
 141 0 l 1
 53 0 l 1
 321 700 l 1
 389 700 l 1
 656 0 l 1
 564 0 l 1
 501 182 l 1
EndSplineSet
Position2: "'cpsp' Capital Spacing lookup 0 subtable" dx=5 dy=0 dh=10 dv=0
EndChar

StartChar: Aring
Encoding: 197 197 133
Width: 721
GlyphClass: 2
Flags: MW
HStem: 0 21G<53 141 53 53 564 564 564 656> 182 74<231 474 231 501 205 474> 680 20G<321 389 389 389> 692 58<340 376 340 391> 872 58<340 376>
VStem: 238 55<794.5 827.5 794.5 843> 424 55<794.5 827.5>
LayerCount: 2
Fore
SplineSet
358 872 m 0x1e
 322 872 293 844 293 811 c 0
 293 778 322 750 358 750 c 0
 394 750 424 778 424 811 c 0
 424 844 394 872 358 872 c 0x1e
358 930 m 0
 424 930 479 875 479 811 c 0
 479 746 424 692 358 692 c 0
 292 692 238 746 238 811 c 0
 238 875 292 930 358 930 c 0
352 603 m 1xe0
 231 256 l 1
 474 256 l 1
 352 603 l 1xe0
501 182 m 1
 205 182 l 1
 141 0 l 1
 53 0 l 1
 321 700 l 1
 389 700 l 1
 656 0 l 1
 564 0 l 1
 501 182 l 1
EndSplineSet
Position2: "'cpsp' Capital Spacing lookup 0 subtable" dx=5 dy=0 dh=10 dv=0
EndChar

StartChar: AE
Encoding: 198 198 134
Width: 1052
GlyphClass: 2
Flags: MW
HStem: 0 79<577 1013 577 1013> 182 74<238 493 238 493 194 493> 310 80<577 961 577 961> 625 75<577 1001 577 577>
VStem: 493 84<79 182 182 182 256 310 390 625>
AnchorPoint: "Anchor-0" 727 0 basechar 0
LayerCount: 2
Fore
SplineSet
454 626 m 1
 238 256 l 1
 493 256 l 1
 493 626 l 1
 454 626 l 1
493 182 m 1
 194 182 l 1
 89 0 l 1
 0 0 l 1
 414 700 l 1
 1001 700 l 1
 1001 625 l 1
 577 625 l 1
 577 390 l 1
 961 390 l 1
 961 310 l 1
 577 310 l 1
 577 79 l 1
 1013 79 l 1
 1013 0 l 1
 493 0 l 1
 493 182 l 1
EndSplineSet
Position2: "'cpsp' Capital Spacing lookup 0 subtable" dx=5 dy=0 dh=10 dv=0
EndChar

StartChar: Ccedilla
Encoding: 199 199 135
Width: 655
GlyphClass: 2
Flags: MW
HStem: -234 67<318 341 316.309 365> -94 99<330 341> -5 81<298.5 393.795 298.5 397.885> 622 81<298.5 394.5>
VStem: 48 87<275 428.5 275 450.5> 371 73<-138.5 -120.5>
AnchorPoint: "Anchor-0" 383 0 basechar 0
LayerCount: 2
Fore
SplineSet
268 -146 m 1xc4
 286.642578125 -158.428710938 305.6171875 -167 327 -167 c 0
 355 -167 371 -148 371 -129 c 0
 371 -112 357 -94 325 -94 c 0
 312.190429688 -94 296.83984375 -95.6640625 286 -100 c 1
 330 5 l 1
 404 5 l 1
 375 -56 l 1
 416 -65 444 -93 444 -137 c 0
 444 -197 395 -234 335 -234 c 0
 301 -234 269 -223 246 -206 c 1
 244 -205 l 1
 268 -146 l 1xc4
602 112 m 1x38
 531.37890625 41.37890625 438.76953125 -5 357 -5 c 0
 190 -5 48 150 48 351 c 0
 48 550 191 703 360 703 c 0
 441.866210938 703 533.318359375 660.681640625 601 593 c 1
 543 529 l 1
 541 531 l 2
 490 585 427 622 362 622 c 0
 235 622 135 505 135 352 c 0
 135 198 235 76 362 76 c 0
 425.58984375 76 494.78515625 121.78515625 546 173 c 1
 602 112 l 1x38
EndSplineSet
Position2: "'cpsp' Capital Spacing lookup 0 subtable" dx=5 dy=0 dh=10 dv=0
EndChar

StartChar: Egrave
Encoding: 200 200 136
Width: 580
GlyphClass: 2
Flags: MW
HStem: 0 79<141 517 141 517> 310 80<141 465 141 465> 625 75<141 505 141 141> 760 154<211 321 211 244>
VStem: 58 83<79 310 390 625> 128 193<760 872>
AnchorPoint: "Anchor-0" 331 0 basechar 0
LayerCount: 2
Fore
SplineSet
128 872 m 1x14
 211 914 l 1
 321 760 l 1
 244 760 l 1
 128 872 l 1x14
505 700 m 1xe8
 505 625 l 1
 141 625 l 1
 141 390 l 1
 465 390 l 1
 465 310 l 1
 141 310 l 1
 141 79 l 1
 517 79 l 1
 517 0 l 1
 58 0 l 1
 58 700 l 1
 505 700 l 1xe8
EndSplineSet
Position2: "'cpsp' Capital Spacing lookup 0 subtable" dx=5 dy=0 dh=10 dv=0
EndChar

StartChar: Eacute
Encoding: 201 201 137
Width: 580
GlyphClass: 2
Flags: MW
HStem: 0 79<141 517 141 517> 310 80<141 465 141 465> 625 75<141 505 141 141> 761 154<241 351 241 351>
VStem: 58 83<79 310 390 625> 241 193<761 872>
AnchorPoint: "Anchor-0" 331 0 basechar 0
LayerCount: 2
Fore
SplineSet
434 872 m 1
 319 761 l 1
 241 761 l 1
 351 915 l 1
 434 872 l 1
505 700 m 1
 505 625 l 1
 141 625 l 1
 141 390 l 1
 465 390 l 1
 465 310 l 1
 141 310 l 1
 141 79 l 1
 517 79 l 1
 517 0 l 1
 58 0 l 1
 58 700 l 1
 505 700 l 1
EndSplineSet
Position2: "'cpsp' Capital Spacing lookup 0 subtable" dx=5 dy=0 dh=10 dv=0
EndChar

StartChar: Ecircumflex
Encoding: 202 202 138
Width: 580
GlyphClass: 2
Flags: MW
HStem: 0 79<141 517 141 517> 310 80<141 465 141 465> 625 75<141 505 141 141> 761 146<140 335 140 335 247 442 247 362>
VStem: 58 83<79 310 390 625> 140 302<761 761>
AnchorPoint: "Anchor-0" 331 0 basechar 0
LayerCount: 2
Fore
SplineSet
442 761 m 1x14
 362 761 l 1
 291 857 l 1
 220 761 l 1
 140 761 l 1
 247 907 l 1
 335 907 l 1
 442 761 l 1x14
505 700 m 1xe8
 505 625 l 1
 141 625 l 1
 141 390 l 1
 465 390 l 1
 465 310 l 1
 141 310 l 1
 141 79 l 1
 517 79 l 1
 517 0 l 1
 58 0 l 1
 58 700 l 1
 505 700 l 1xe8
EndSplineSet
Position2: "'cpsp' Capital Spacing lookup 0 subtable" dx=5 dy=0 dh=10 dv=0
EndChar

StartChar: Edieresis
Encoding: 203 203 139
Width: 580
GlyphClass: 2
Flags: MW
HStem: 0 79<141 517 141 517> 310 80<141 465 141 465> 625 75<141 505 141 141> 760 113<186.5 217.5 363.5 394.5>
VStem: 58 83<79 310 390 625> 145 113<801.5 832.5> 322 113<801.5 832.5>
AnchorPoint: "Anchor-0" 331 0 basechar 0
LayerCount: 2
Fore
SplineSet
145 817 m 0
 145 848 171 873 202 873 c 0
 233 873 258 848 258 817 c 0
 258 786 233 760 202 760 c 0
 171 760 145 786 145 817 c 0
322 817 m 0
 322 848 348 873 379 873 c 0
 410 873 435 848 435 817 c 0
 435 786 410 760 379 760 c 0
 348 760 322 786 322 817 c 0
505 700 m 1
 505 625 l 1
 141 625 l 1
 141 390 l 1
 465 390 l 1
 465 310 l 1
 141 310 l 1
 141 79 l 1
 517 79 l 1
 517 0 l 1
 58 0 l 1
 58 700 l 1
 505 700 l 1
EndSplineSet
Position2: "'cpsp' Capital Spacing lookup 0 subtable" dx=5 dy=0 dh=10 dv=0
EndChar

StartChar: Igrave
Encoding: 204 204 140
Width: 253
GlyphClass: 2
Flags: MW
HStem: 0 21G<73 160 73 73> 680 20G<73 160 160 160> 760 154<50 160 50 83>
VStem: -33 193<0 872> 73 87<0 700 0 700>
LayerCount: 2
Fore
SplineSet
-33 872 m 1x30
 50 914 l 1
 160 760 l 1
 83 760 l 1
 -33 872 l 1x30
160 700 m 1xc8
 160 0 l 1
 73 0 l 1
 73 700 l 1
 160 700 l 1xc8
EndSplineSet
Position2: "'cpsp' Capital Spacing lookup 0 subtable" dx=5 dy=0 dh=10 dv=0
EndChar

StartChar: Iacute
Encoding: 205 205 141
Width: 253
GlyphClass: 2
Flags: MW
HStem: 0 21G<73 160 73 73> 680 20G<73 160 160 160> 761 154<80 190 80 190>
VStem: 73 87<0 700 0 700> 80 193<761 872>
LayerCount: 2
Fore
SplineSet
273 872 m 1x28
 158 761 l 1
 80 761 l 1
 190 915 l 1
 273 872 l 1x28
160 700 m 1xd0
 160 0 l 1
 73 0 l 1
 73 700 l 1
 160 700 l 1xd0
EndSplineSet
Position2: "'cpsp' Capital Spacing lookup 0 subtable" dx=5 dy=0 dh=10 dv=0
EndChar

StartChar: Icircumflex
Encoding: 206 206 142
Width: 253
GlyphClass: 2
Flags: MW
HStem: 0 21G<73 160 73 73> 680 20G<73 160 160 160> 761 146<-21 174 -21 174 86 281 86 201>
VStem: -21 302<761 761> 73 87<0 700 0 700>
LayerCount: 2
Fore
SplineSet
281 761 m 1x30
 201 761 l 1
 130 857 l 1
 59 761 l 1
 -21 761 l 1
 86 907 l 1
 174 907 l 1
 281 761 l 1x30
160 700 m 1xc8
 160 0 l 1
 73 0 l 1
 73 700 l 1
 160 700 l 1xc8
EndSplineSet
Position2: "'cpsp' Capital Spacing lookup 0 subtable" dx=5 dy=0 dh=10 dv=0
EndChar

StartChar: Idieresis
Encoding: 207 207 143
Width: 253
GlyphClass: 2
Flags: MW
HStem: 0 21G<73 160 73 73> 680 20G<73 160 160 160> 760 113<24.5 55.5 201.5 232.5>
VStem: -17 113<801.5 832.5> 73 87<0 700 0 700> 160 113<0 832.5 801.5 832.5>
LayerCount: 2
Fore
SplineSet
-17 817 m 0x34
 -17 848 9 873 40 873 c 0
 71 873 96 848 96 817 c 0
 96 786 71 760 40 760 c 0
 9 760 -17 786 -17 817 c 0x34
160 817 m 0
 160 848 186 873 217 873 c 0
 248 873 273 848 273 817 c 0
 273 786 248 760 217 760 c 0
 186 760 160 786 160 817 c 0
160 700 m 1xc8
 160 0 l 1
 73 0 l 1
 73 700 l 1
 160 700 l 1xc8
EndSplineSet
Position2: "'cpsp' Capital Spacing lookup 0 subtable" dx=5 dy=0 dh=10 dv=0
EndChar

StartChar: Eth
Encoding: 208 208 144
Width: 684
GlyphClass: 2
Flags: MW
HStem: 0 78<187 348> 314 74<-35 362 -35 362> 618 82<187 349 187 187>
VStem: 99 88<78 618 78 700 78 700> 577 84<273.5 430>
LayerCount: 2
Fore
SplineSet
-35 314 m 1
 -35 388 l 1
 362 388 l 1
 362 314 l 1
 -35 314 l 1
349 618 m 2
 187 618 l 1
 187 78 l 1
 353 78 l 2
 478 78 577 198 577 349 c 0
 577 511 476 618 349 618 c 2
99 0 m 1
 99 700 l 1
 350 700 l 2
 521 700 661 553 661 350 c 0
 661 148 521 0 348 0 c 2
 99 0 l 1
EndSplineSet
Position2: "'cpsp' Capital Spacing lookup 0 subtable" dx=5 dy=0 dh=10 dv=0
EndChar

StartChar: Ntilde
Encoding: 209 209 145
Width: 646
GlyphClass: 2
Flags: MW
HStem: 0 21G<58 146 58 58 473 570 473 473> 680 20G<58 155 155 155 484 570 570 570> 760 62<359 394 359 409> 840 62<240.5 275.5>
VStem: 58 88<0 577 0 700> 162 59<766 769 766 813> 414 58<894 896 850.5 896> 484 86<122 700 0 700>
AnchorPoint: "Anchor-0" 396 0 basechar 0
LayerCount: 2
Fore
SplineSet
257 902 m 0
 308 902 340 822 378 822 c 0
 410 822 414 861 414 894 c 2
 414 896 l 1
 472 896 l 1
 472 894 l 2
 472 807 440 760 378 760 c 0
 323 760 295 840 256 840 c 0
 225 840 221 802 221 769 c 2
 221 766 l 1
 162 766 l 1
 162 769 l 2
 162 857 195 902 257 902 c 0
570 700 m 1
 570 0 l 1
 473 0 l 1
 146 577 l 1
 146 0 l 1
 58 0 l 1
 58 700 l 1
 155 700 l 1
 484 122 l 1
 484 700 l 1
 570 700 l 1
EndSplineSet
Position2: "'cpsp' Capital Spacing lookup 0 subtable" dx=5 dy=0 dh=10 dv=0
EndChar

StartChar: Ograve
Encoding: 210 210 146
Width: 741
GlyphClass: 2
Flags: MW
HStem: -5 78<302 424 302 447> 622 82<301.5 424> 760 154<289 399 289 322>
VStem: 48 88<273.5 426.5 273.5 450.5> 206 193<760 872> 593 83<273.5 426>
LayerCount: 2
Fore
SplineSet
206 872 m 1
 289 914 l 1
 399 760 l 1
 322 760 l 1
 206 872 l 1
593 350 m 0
 593 502 485 622 363 622 c 0
 240 622 136 503 136 350 c 0
 136 197 241 73 363 73 c 0
 485 73 593 197 593 350 c 0
48 350 m 0
 48 551 192 704 362 704 c 0
 532 704 676 550 676 350 c 0
 676 150 532 -5 362 -5 c 0
 192 -5 48 150 48 350 c 0
EndSplineSet
Position2: "'cpsp' Capital Spacing lookup 0 subtable" dx=5 dy=0 dh=10 dv=0
EndChar

StartChar: Oacute
Encoding: 211 211 147
Width: 741
GlyphClass: 2
Flags: MW
HStem: -5 78<302 424 302 447> 622 82<301.5 424> 761 154<319 429 319 429>
VStem: 48 88<273.5 426.5 273.5 450.5> 319 193<761 872> 593 83<273.5 426>
LayerCount: 2
Fore
SplineSet
512 872 m 1
 397 761 l 1
 319 761 l 1
 429 915 l 1
 512 872 l 1
593 350 m 0
 593 502 485 622 363 622 c 0
 240 622 136 503 136 350 c 0
 136 197 241 73 363 73 c 0
 485 73 593 197 593 350 c 0
48 350 m 0
 48 551 192 704 362 704 c 0
 532 704 676 550 676 350 c 0
 676 150 532 -5 362 -5 c 0
 192 -5 48 150 48 350 c 0
EndSplineSet
Position2: "'cpsp' Capital Spacing lookup 0 subtable" dx=5 dy=0 dh=10 dv=0
EndChar

StartChar: Ocircumflex
Encoding: 212 212 148
Width: 741
GlyphClass: 2
Flags: MW
HStem: -5 78<302 424 302 447> 622 82<301.5 424> 761 146<218 413 218 413 325 520 325 440>
VStem: 48 88<273.5 426.5 273.5 450.5> 218 302<761 761> 593 83<273.5 426>
LayerCount: 2
Fore
SplineSet
520 761 m 1
 440 761 l 1
 369 857 l 1
 298 761 l 1
 218 761 l 1
 325 907 l 1
 413 907 l 1
 520 761 l 1
593 350 m 0
 593 502 485 622 363 622 c 0
 240 622 136 503 136 350 c 0
 136 197 241 73 363 73 c 0
 485 73 593 197 593 350 c 0
48 350 m 0
 48 551 192 704 362 704 c 0
 532 704 676 550 676 350 c 0
 676 150 532 -5 362 -5 c 0
 192 -5 48 150 48 350 c 0
EndSplineSet
Position2: "'cpsp' Capital Spacing lookup 0 subtable" dx=5 dy=0 dh=10 dv=0
EndChar

StartChar: Otilde
Encoding: 213 213 149
Width: 741
GlyphClass: 2
Flags: MW
HStem: -5 78<302 424 302 447> 622 82<301.5 424> 760 62<405 440 405 455> 840 62<286.5 321.5>
VStem: 48 88<273.5 426.5 273.5 450.5> 208 59<766 769 766 813> 460 58<894 896 850.5 896> 593 83<273.5 426>
LayerCount: 2
Fore
SplineSet
303 902 m 0
 354 902 386 822 424 822 c 0
 456 822 460 861 460 894 c 2
 460 896 l 1
 518 896 l 1
 518 894 l 2
 518 807 486 760 424 760 c 0
 369 760 341 840 302 840 c 0
 271 840 267 802 267 769 c 2
 267 766 l 1
 208 766 l 1
 208 769 l 2
 208 857 241 902 303 902 c 0
593 350 m 0
 593 502 485 622 363 622 c 0
 240 622 136 503 136 350 c 0
 136 197 241 73 363 73 c 0
 485 73 593 197 593 350 c 0
48 350 m 0
 48 551 192 704 362 704 c 0
 532 704 676 550 676 350 c 0
 676 150 532 -5 362 -5 c 0
 192 -5 48 150 48 350 c 0
EndSplineSet
Position2: "'cpsp' Capital Spacing lookup 0 subtable" dx=5 dy=0 dh=10 dv=0
EndChar

StartChar: Odieresis
Encoding: 214 214 150
Width: 741
GlyphClass: 2
Flags: MW
HStem: -5 78<302 424 302 447> 622 82<301.5 424> 760 113<263.5 294.5 440.5 471.5>
VStem: 48 88<273.5 426.5 273.5 450.5> 222 113<801.5 832.5> 399 113<801.5 832.5> 593 83<273.5 426>
LayerCount: 2
Fore
SplineSet
222 817 m 0
 222 848 248 873 279 873 c 0
 310 873 335 848 335 817 c 0
 335 786 310 760 279 760 c 0
 248 760 222 786 222 817 c 0
399 817 m 0
 399 848 425 873 456 873 c 0
 487 873 512 848 512 817 c 0
 512 786 487 760 456 760 c 0
 425 760 399 786 399 817 c 0
593 350 m 0
 593 502 485 622 363 622 c 0
 240 622 136 503 136 350 c 0
 136 197 241 73 363 73 c 0
 485 73 593 197 593 350 c 0
48 350 m 0
 48 551 192 704 362 704 c 0
 532 704 676 550 676 350 c 0
 676 150 532 -5 362 -5 c 0
 192 -5 48 150 48 350 c 0
EndSplineSet
Position2: "'cpsp' Capital Spacing lookup 0 subtable" dx=5 dy=0 dh=10 dv=0
EndChar

StartChar: multiply
Encoding: 215 215 151
Width: 468
GlyphClass: 2
Flags: W
LayerCount: 2
Fore
SplineSet
399 448 m 1
 277 325 l 1
 399 201 l 1
 343 141 l 1
 229 266 l 1
 114 141 l 1
 58 201 l 1
 180 325 l 1
 58 448 l 1
 114 508 l 1
 229 383 l 1
 343 508 l 1
 399 448 l 1
EndSplineSet
EndChar

StartChar: Oslash
Encoding: 216 216 152
Width: 741
GlyphClass: 2
Flags: MW
HStem: -5 78<281 403 281 426> 622 82<280.5 403>
VStem: 27 88<273.5 426.5 273.5 450.5> 572 83<273.5 426>
LayerCount: 2
Fore
SplineSet
114 -122 m 1
 373 811 l 1
 434 811 l 1
 175 -122 l 1
 114 -122 l 1
572 350 m 0
 572 502 464 622 342 622 c 0
 219 622 115 503 115 350 c 0
 115 197 220 73 342 73 c 0
 464 73 572 197 572 350 c 0
27 350 m 0
 27 551 171 704 341 704 c 0
 511 704 655 550 655 350 c 0
 655 150 511 -5 341 -5 c 0
 171 -5 27 150 27 350 c 0
EndSplineSet
Position2: "'cpsp' Capital Spacing lookup 0 subtable" dx=5 dy=0 dh=10 dv=0
EndChar

StartChar: Ugrave
Encoding: 217 217 153
Width: 624
GlyphClass: 2
Flags: MW
HStem: -5 76<254.5 355 254.5 379.5> 680 20G<54 142 142 142 465 553 553 553> 760 154<232 342 232 265>
VStem: 54 88<290 700> 149 193<760 872> 465 88<288 290 290 700>
LayerCount: 2
Fore
SplineSet
149 872 m 1
 232 914 l 1
 342 760 l 1
 265 760 l 1
 149 872 l 1
465 700 m 1
 553 700 l 1
 553 290 l 2
 553 107 455 -5 304 -5 c 0
 153 -5 54 107 54 290 c 2
 54 700 l 1
 142 700 l 1
 142 288 l 2
 142 151 204 71 305 71 c 0
 405 71 465 150 465 288 c 2
 465 700 l 1
EndSplineSet
Position2: "'cpsp' Capital Spacing lookup 0 subtable" dx=5 dy=0 dh=10 dv=0
EndChar

StartChar: Uacute
Encoding: 218 218 154
Width: 624
GlyphClass: 2
Flags: MW
HStem: -5 76<254.5 355 254.5 379.5> 680 20G<54 142 142 142 465 553 553 553> 761 154<262 372 262 372>
VStem: 54 88<290 700> 262 193<761 872> 465 88<288 290 290 700>
LayerCount: 2
Fore
SplineSet
455 872 m 1
 340 761 l 1
 262 761 l 1
 372 915 l 1
 455 872 l 1
465 700 m 1
 553 700 l 1
 553 290 l 2
 553 107 455 -5 304 -5 c 0
 153 -5 54 107 54 290 c 2
 54 700 l 1
 142 700 l 1
 142 288 l 2
 142 151 204 71 305 71 c 0
 405 71 465 150 465 288 c 2
 465 700 l 1
EndSplineSet
Position2: "'cpsp' Capital Spacing lookup 0 subtable" dx=5 dy=0 dh=10 dv=0
EndChar

StartChar: Ucircumflex
Encoding: 219 219 155
Width: 624
GlyphClass: 2
Flags: MW
HStem: -5 76<254.5 355 254.5 379.5> 680 20G<54 142 142 142 465 553 553 553> 761 146<161 356 161 356 268 463 268 383>
VStem: 54 88<290 700> 161 302<761 761> 465 88<288 290 290 700>
LayerCount: 2
Fore
SplineSet
463 761 m 1
 383 761 l 1
 312 857 l 1
 241 761 l 1
 161 761 l 1
 268 907 l 1
 356 907 l 1
 463 761 l 1
465 700 m 1
 553 700 l 1
 553 290 l 2
 553 107 455 -5 304 -5 c 0
 153 -5 54 107 54 290 c 2
 54 700 l 1
 142 700 l 1
 142 288 l 2
 142 151 204 71 305 71 c 0
 405 71 465 150 465 288 c 2
 465 700 l 1
EndSplineSet
Position2: "'cpsp' Capital Spacing lookup 0 subtable" dx=5 dy=0 dh=10 dv=0
EndChar

StartChar: Udieresis
Encoding: 220 220 156
Width: 624
GlyphClass: 2
Flags: MW
HStem: -5 76<254.5 355 254.5 379.5> 680 20G<54 142 142 142 465 553 553 553> 760 113<207.5 238.5 384.5 415.5>
VStem: 54 88<290 700> 166 113<801.5 832.5> 343 113<801.5 832.5> 465 88<288 290 290 700>
LayerCount: 2
Fore
SplineSet
166 817 m 0
 166 848 192 873 223 873 c 0
 254 873 279 848 279 817 c 0
 279 786 254 760 223 760 c 0
 192 760 166 786 166 817 c 0
343 817 m 0
 343 848 369 873 400 873 c 0
 431 873 456 848 456 817 c 0
 456 786 431 760 400 760 c 0
 369 760 343 786 343 817 c 0
465 700 m 1
 553 700 l 1
 553 290 l 2
 553 107 455 -5 304 -5 c 0
 153 -5 54 107 54 290 c 2
 54 700 l 1
 142 700 l 1
 142 288 l 2
 142 151 204 71 305 71 c 0
 405 71 465 150 465 288 c 2
 465 700 l 1
EndSplineSet
Position2: "'cpsp' Capital Spacing lookup 0 subtable" dx=5 dy=0 dh=10 dv=0
EndChar

StartChar: Yacute
Encoding: 221 221 157
Width: 641
GlyphClass: 2
Flags: MW
HStem: 0 21G<284 371 284 284> 680 20G<34 128 128 128 505 601 601 601> 761 154<271 381 271 381>
VStem: 271 193<761 872> 284 87<0 249 249 249>
LayerCount: 2
Fore
SplineSet
464 872 m 1x30
 349 761 l 1
 271 761 l 1
 381 915 l 1
 464 872 l 1x30
601 700 m 1xc8
 371 253 l 1
 371 0 l 1
 284 0 l 1
 284 249 l 1
 34 700 l 1
 128 700 l 1
 318 331 l 1
 505 700 l 1
 601 700 l 1xc8
EndSplineSet
Position2: "'cpsp' Capital Spacing lookup 0 subtable" dx=5 dy=0 dh=10 dv=0
EndChar

StartChar: Thorn
Encoding: 222 222 158
Width: 607
GlyphClass: 2
Flags: MW
HStem: 0 21G<74 167 74 74> 121 81<167 304 304 308 167 304> 520 82<167 308 167 304> 680 20G<74 167 167 167>
VStem: 74 93<0 121 202 520 602 700> 473 95<312.5 413.5>
LayerCount: 2
Fore
SplineSet
167 520 m 1
 167 202 l 1
 304 202 l 2
 408 202 473 261 473 364 c 0
 473 463 408 520 304 520 c 2
 167 520 l 1
167 700 m 1
 167 602 l 1
 308 602 l 2
 463 602 568 517 568 367 c 0
 568 211 463 121 308 121 c 2
 167 121 l 1
 167 0 l 1
 74 0 l 1
 74 700 l 1
 167 700 l 1
EndSplineSet
Position2: "'cpsp' Capital Spacing lookup 0 subtable" dx=5 dy=0 dh=10 dv=0
EndChar

StartChar: germandbls
Encoding: 223 223 159
Width: 594
GlyphClass: 2
Flags: MW
HStem: 0 94<62 322 261 315 261 322> 322 94<279 281 281 291 279 281> 649 98<260.5 324>
VStem: 62 119<0 487 487 495 0 565.5> 392 108<514 570> 423 117<211 244>
LayerCount: 2
Fore
SplineSet
62 487 m 2xf8
 62 644 159 747 296 747 c 0
 406 747 500 671 500 552 c 0xf8
 500 476 458 410 397 381 c 1
 478 361 540 304 540 211 c 1
 551 88 446 0 315 0 c 2
 261 0 l 1
 261 94 l 1
 322 94 l 2
 390 94 434 141 423 208 c 1xf4
 423 280 371 322 291 322 c 2
 279 322 l 1
 279 416 l 1
 281 416 l 2
 349 416 392 462 392 534 c 0
 392 606 353 649 295 649 c 0
 226 649 181 590 181 495 c 2
 181 0 l 1
 62 0 l 1
 62 487 l 2xf8
EndSplineSet
EndChar

StartChar: agrave
Encoding: 224 224 160
Width: 529
GlyphClass: 2
Flags: MW
HStem: -5 78<198 243.5> 238 69<225 239 239 378> 455 81<231.5 290> 593 154<204 314 204 237>
VStem: 44 82<131 187.5 131 210> 121 193<593 705> 378 84
LayerCount: 2
Fore
SplineSet
121 705 m 1x14
 204 747 l 1
 314 593 l 1
 237 593 l 1
 121 705 l 1x14
462 0 m 1xea
 379 0 l 1
 379 61 l 1
 345 16 274 -5 213 -5 c 0
 117 -5 44 66 44 161 c 0
 44 259 119 306 225 307 c 2
 378 307 l 1
 378 355 l 2
 378 429 324 455 256 455 c 0
 207 455 161 433 117 397 c 1
 115 396 l 1
 74 467 l 1
 76 469 l 1
 145 513 190 536 273 536 c 0
 382 536 460 465 461 348 c 2
 462 0 l 1xea
126 161 m 0
 126 101 168 73 228 73 c 0
 295 73 378 103 378 168 c 2
 378 238 l 1
 239 238 l 2
 178 238 126 214 126 161 c 0
EndSplineSet
EndChar

StartChar: aacute
Encoding: 225 225 161
Width: 529
GlyphClass: 2
Flags: MW
HStem: -5 78<198 243.5> 238 69<225 239 239 378> 455 81<231.5 290> 594 154<234 344 234 344>
VStem: 44 82<131 187.5 131 210> 234 193<594 705> 378 84
LayerCount: 2
Fore
SplineSet
427 705 m 1x14
 312 594 l 1
 234 594 l 1
 344 748 l 1
 427 705 l 1x14
462 0 m 1xea
 379 0 l 1
 379 61 l 1
 345 16 274 -5 213 -5 c 0
 117 -5 44 66 44 161 c 0
 44 259 119 306 225 307 c 2
 378 307 l 1
 378 355 l 2
 378 429 324 455 256 455 c 0
 207 455 161 433 117 397 c 1
 115 396 l 1
 74 467 l 1
 76 469 l 1
 145 513 190 536 273 536 c 0
 382 536 460 465 461 348 c 2
 462 0 l 1xea
126 161 m 0
 126 101 168 73 228 73 c 0
 295 73 378 103 378 168 c 2
 378 238 l 1
 239 238 l 2
 178 238 126 214 126 161 c 0
EndSplineSet
EndChar

StartChar: acircumflex
Encoding: 226 226 162
Width: 529
GlyphClass: 2
Flags: MW
HStem: -5 78<198 243.5> 238 69<225 239 239 378> 455 81<231.5 290> 594 146<133 328 133 328 240 435 240 355>
VStem: 44 82<131 187.5 131 210> 133 302<594 594> 378 84
LayerCount: 2
Fore
SplineSet
435 594 m 1x14
 355 594 l 1
 284 690 l 1
 213 594 l 1
 133 594 l 1
 240 740 l 1
 328 740 l 1
 435 594 l 1x14
462 0 m 1xea
 379 0 l 1
 379 61 l 1
 345 16 274 -5 213 -5 c 0
 117 -5 44 66 44 161 c 0
 44 259 119 306 225 307 c 2
 378 307 l 1
 378 355 l 2
 378 429 324 455 256 455 c 0
 207 455 161 433 117 397 c 1
 115 396 l 1
 74 467 l 1
 76 469 l 1
 145 513 190 536 273 536 c 0
 382 536 460 465 461 348 c 2
 462 0 l 1xea
126 161 m 0
 126 101 168 73 228 73 c 0
 295 73 378 103 378 168 c 2
 378 238 l 1
 239 238 l 2
 178 238 126 214 126 161 c 0
EndSplineSet
EndChar

StartChar: atilde
Encoding: 227 227 163
Width: 529
GlyphClass: 2
Flags: MW
HStem: -5 78<198 243.5> 238 69<225 239 239 378> 455 81<231.5 290> 593 62<320 355 320 370> 673 62<201.5 236.5>
VStem: 44 82<131 187.5 131 210> 123 59<599 602 599 646> 375 58<727 729 683.5 729> 378 84
LayerCount: 2
Fore
SplineSet
218 735 m 0x1b
 269 735 301 655 339 655 c 0
 371 655 375 694 375 727 c 2
 375 729 l 1
 433 729 l 1
 433 727 l 2
 433 640 401 593 339 593 c 0
 284 593 256 673 217 673 c 0
 186 673 182 635 182 602 c 2
 182 599 l 1
 123 599 l 1
 123 602 l 2
 123 690 156 735 218 735 c 0x1b
462 0 m 1xe480
 379 0 l 1
 379 61 l 1
 345 16 274 -5 213 -5 c 0
 117 -5 44 66 44 161 c 0
 44 259 119 306 225 307 c 2
 378 307 l 1
 378 355 l 2
 378 429 324 455 256 455 c 0
 207 455 161 433 117 397 c 1
 115 396 l 1
 74 467 l 1
 76 469 l 1
 145 513 190 536 273 536 c 0
 382 536 460 465 461 348 c 2
 462 0 l 1xe480
126 161 m 0
 126 101 168 73 228 73 c 0
 295 73 378 103 378 168 c 2
 378 238 l 1
 239 238 l 2
 178 238 126 214 126 161 c 0
EndSplineSet
EndChar

StartChar: adieresis
Encoding: 228 228 164
Width: 529
GlyphClass: 2
Flags: MW
HStem: -5 78<198 243.5> 238 69<225 239 239 378> 455 81<231.5 290> 593 113<178.5 209.5 355.5 386.5>
VStem: 44 82<131 187.5 131 210> 137 113<634.5 665.5> 314 113<634.5 665.5> 378 84
LayerCount: 2
Fore
SplineSet
137 650 m 0x16
 137 681 163 706 194 706 c 0
 225 706 250 681 250 650 c 0
 250 619 225 593 194 593 c 0
 163 593 137 619 137 650 c 0x16
314 650 m 0
 314 681 340 706 371 706 c 0
 402 706 427 681 427 650 c 0
 427 619 402 593 371 593 c 0
 340 593 314 619 314 650 c 0
462 0 m 1xe9
 379 0 l 1
 379 61 l 1
 345 16 274 -5 213 -5 c 0
 117 -5 44 66 44 161 c 0
 44 259 119 306 225 307 c 2
 378 307 l 1
 378 355 l 2
 378 429 324 455 256 455 c 0
 207 455 161 433 117 397 c 1
 115 396 l 1
 74 467 l 1
 76 469 l 1
 145 513 190 536 273 536 c 0
 382 536 460 465 461 348 c 2
 462 0 l 1xe9
126 161 m 0
 126 101 168 73 228 73 c 0
 295 73 378 103 378 168 c 2
 378 238 l 1
 239 238 l 2
 178 238 126 214 126 161 c 0
EndSplineSet
EndChar

StartChar: aring
Encoding: 229 229 165
Width: 529
GlyphClass: 2
Flags: MW
HStem: -5 78<198 243.5> 238 69<225 239 239 378> 455 81<231.5 290> 593 58<260 296 260 311> 773 58<260 296>
VStem: 44 82<131 187.5 131 210> 158 55<695.5 728.5 695.5 744> 344 55<695.5 728.5> 378 84
LayerCount: 2
Fore
SplineSet
278 773 m 0x1b
 242 773 213 745 213 712 c 0
 213 679 242 651 278 651 c 0
 314 651 344 679 344 712 c 0
 344 745 314 773 278 773 c 0x1b
278 831 m 0
 344 831 399 776 399 712 c 0
 399 647 344 593 278 593 c 0
 212 593 158 647 158 712 c 0
 158 776 212 831 278 831 c 0
462 0 m 1xe480
 379 0 l 1
 379 61 l 1
 345 16 274 -5 213 -5 c 0
 117 -5 44 66 44 161 c 0
 44 259 119 306 225 307 c 2
 378 307 l 1
 378 355 l 2
 378 429 324 455 256 455 c 0
 207 455 161 433 117 397 c 1
 115 396 l 1
 74 467 l 1
 76 469 l 1
 145 513 190 536 273 536 c 0
 382 536 460 465 461 348 c 2
 462 0 l 1xe480
126 161 m 0
 126 101 168 73 228 73 c 0
 295 73 378 103 378 168 c 2
 378 238 l 1
 239 238 l 2
 178 238 126 214 126 161 c 0
EndSplineSet
EndChar

StartChar: ae
Encoding: 230 230 166
Width: 915
GlyphClass: 2
Flags: MW
HStem: -5 73<189 242.5 189 243> -4 98<581.501 656.056 581.501 663.5> 242 66<214 231 231 362 214 363> 459 77<229.001 275>
VStem: 33 83<139.5 189 139.5 204.5> 362 82<306 365 306 397>
LayerCount: 2
Fore
SplineSet
371 188 m 1xbc
 373 191 l 1
 391 176 l 1
 389 183 388 188 387 193 c 1
 363 198 l 1
 363 242 l 1
 231 242 l 2
 171 242 116 213 116 165 c 0
 116 114 164 68 214 68 c 0
 271 68 343 108 371 188 c 1xbc
615 464 m 0
 531 464 457 390 444 306 c 1
 789 306 l 1
 784 391 700 464 615 464 c 0
241 459 m 0
 194.536132812 459 136.103515625 438.735351562 84.0009765625 404 c 1
 63.0009765625 471 l 1
 65.0009765625 472 l 1
 135.000976562 513 198.000976562 536 260.000976562 536 c 0
 330.000976562 536 387.000976562 508 423.000976562 458 c 1
 470.000976562 509 535.000976562 536 614.000976562 536 c 2
 625.000976562 536 l 1
 787.000976562 531 887.000976562 413 881.000976562 242 c 1
 881.000976562 239 l 1
 444.000976562 239 l 1
 457.000976562 149 537.000976562 94 626.000976562 94 c 0
 686.110351562 94 736.734375 116.734375 777 157 c 1
 842 89 l 1
 841 87 l 1
 787 29 710 -4 617 -4 c 0x7c
 512 -4 431 43 389 121 c 1
 348 37 285 -5 201 -5 c 0
 107 -5 33 61 33 156 c 0
 33 253 110 307 214 308 c 2
 362 308 l 1
 362 365 l 2
 362 429 309 459 241 459 c 0
EndSplineSet
EndChar

StartChar: ccedilla
Encoding: 231 231 167
Width: 543
GlyphClass: 2
Flags: MW
HStem: -235 67<244 267 242.309 291> -95 99<256 267> -6 81<243 311.5 243 324.5> 455 81<243 310>
VStem: 44 86<211.5 318.5 211.5 342.5> 297 73<-139.5 -121.5>
AnchorPoint: "Anchor-0" 289 0 basechar 0
LayerCount: 2
Fore
SplineSet
194 -147 m 1xc4
 212.642578125 -159.428710938 231.6171875 -168 253 -168 c 0
 281 -168 297 -149 297 -130 c 0
 297 -113 283 -95 251 -95 c 0
 238.190429688 -95 222.83984375 -96.6640625 212 -101 c 1
 256 4 l 1
 330 4 l 1
 301 -57 l 1
 342 -66 370 -94 370 -138 c 0
 370 -198 321 -235 261 -235 c 0
 227 -235 195 -224 172 -207 c 1
 170 -206 l 1
 194 -147 l 1xc4
490 97 m 1x38
 489 95 l 1
 439 32 362 -6 287 -6 c 0
 160 -6 44 110 44 265 c 0
 44 420 157 536 287 536 c 0
 357 536 429 502 479 446 c 1
 481 444 l 1
 422 383 l 1
 421 385 l 1
 385 425 333 455 287 455 c 0
 199 455 130 372 130 265 c 0
 130 158 199 75 287 75 c 0
 336 75 396 110 429 150 c 1
 431 152 l 1
 490 97 l 1x38
EndSplineSet
EndChar

StartChar: egrave
Encoding: 232 232 168
Width: 550
GlyphClass: 2
Flags: MW
HStem: -6 80<239 308 239 319> 228 70<131 412 130 495 131 131> 455 81<236 321> 593 154<202 312 202 235>
VStem: 44 87<228 228 228 332.5> 119 193<593 705> 412 86<298 300 300 331.5>
AnchorPoint: "Anchor-0" 301 0 basechar 0
LayerCount: 2
Fore
SplineSet
119 705 m 1x14
 202 747 l 1
 312 593 l 1
 235 593 l 1
 119 705 l 1x14
275 455 m 0xea
 197 455 141 389 130 298 c 1
 412 298 l 1
 412 300 l 2
 412 363 367 455 275 455 c 0xea
495 228 m 1
 131 228 l 1
 144 139 202 74 276 74 c 0
 340 74 393 112 419 148 c 1
 421 150 l 1
 475 90 l 1
 473 88 l 1
 422 29 355 -6 283 -6 c 0
 140 -6 44 130 44 265 c 0
 44 400 137 536 275 536 c 0
 413 536 498 399 498 265 c 0
 498 250 496 239 495 230 c 2
 495 228 l 1
EndSplineSet
EndChar

StartChar: eacute
Encoding: 233 233 169
Width: 550
GlyphClass: 2
Flags: MW
HStem: -6 80<239 308 239 319> 228 70<131 412 130 495 131 131> 455 81<236 321> 594 154<232 342 232 342>
VStem: 44 87<228 228 228 332.5> 232 193<594 705> 412 86<298 300 300 331.5>
AnchorPoint: "Anchor-0" 301 0 basechar 0
LayerCount: 2
Fore
SplineSet
425 705 m 1x14
 310 594 l 1
 232 594 l 1
 342 748 l 1
 425 705 l 1x14
275 455 m 0xea
 197 455 141 389 130 298 c 1
 412 298 l 1
 412 300 l 2
 412 363 367 455 275 455 c 0xea
495 228 m 1
 131 228 l 1
 144 139 202 74 276 74 c 0
 340 74 393 112 419 148 c 1
 421 150 l 1
 475 90 l 1
 473 88 l 1
 422 29 355 -6 283 -6 c 0
 140 -6 44 130 44 265 c 0
 44 400 137 536 275 536 c 0
 413 536 498 399 498 265 c 0
 498 250 496 239 495 230 c 2
 495 228 l 1
EndSplineSet
EndChar

StartChar: ecircumflex
Encoding: 234 234 170
Width: 550
GlyphClass: 2
Flags: MW
HStem: -6 80<239 308 239 319> 228 70<131 412 130 495 131 131> 455 81<236 321> 594 146<131 326 131 326 238 433 238 353>
VStem: 44 87<228 228 228 332.5> 131 302<594 594> 412 86<298 300 300 331.5>
AnchorPoint: "Anchor-0" 301 0 basechar 0
LayerCount: 2
Fore
SplineSet
433 594 m 1x14
 353 594 l 1
 282 690 l 1
 211 594 l 1
 131 594 l 1
 238 740 l 1
 326 740 l 1
 433 594 l 1x14
275 455 m 0xea
 197 455 141 389 130 298 c 1
 412 298 l 1
 412 300 l 2
 412 363 367 455 275 455 c 0xea
495 228 m 1
 131 228 l 1
 144 139 202 74 276 74 c 0
 340 74 393 112 419 148 c 1
 421 150 l 1
 475 90 l 1
 473 88 l 1
 422 29 355 -6 283 -6 c 0
 140 -6 44 130 44 265 c 0
 44 400 137 536 275 536 c 0
 413 536 498 399 498 265 c 0
 498 250 496 239 495 230 c 2
 495 228 l 1
EndSplineSet
EndChar

StartChar: edieresis
Encoding: 235 235 171
Width: 550
GlyphClass: 2
Flags: MW
HStem: -6 80<239 308 239 319> 228 70<131 412 130 495 131 131> 455 81<236 321> 593 113<176.5 207.5 353.5 384.5>
VStem: 44 87<228 228 228 332.5> 135 113<634.5 665.5> 312 113<634.5 665.5> 412 86<298 300 300 331.5>
AnchorPoint: "Anchor-0" 301 0 basechar 0
LayerCount: 2
Fore
SplineSet
135 650 m 0x16
 135 681 161 706 192 706 c 0
 223 706 248 681 248 650 c 0
 248 619 223 593 192 593 c 0
 161 593 135 619 135 650 c 0x16
312 650 m 0
 312 681 338 706 369 706 c 0
 400 706 425 681 425 650 c 0
 425 619 400 593 369 593 c 0
 338 593 312 619 312 650 c 0
275 455 m 0xe9
 197 455 141 389 130 298 c 1
 412 298 l 1
 412 300 l 2
 412 363 367 455 275 455 c 0xe9
495 228 m 1
 131 228 l 1
 144 139 202 74 276 74 c 0
 340 74 393 112 419 148 c 1
 421 150 l 1
 475 90 l 1
 473 88 l 1
 422 29 355 -6 283 -6 c 0
 140 -6 44 130 44 265 c 0
 44 400 137 536 275 536 c 0
 413 536 498 399 498 265 c 0
 498 250 496 239 495 230 c 2
 495 228 l 1
EndSplineSet
EndChar

StartChar: igrave
Encoding: 236 236 172
Width: 268
GlyphClass: 2
Flags: MW
HStem: 0 21G<81 168 81 81> 512 20G<81 168 168 168> 593 154<60 170 60 93>
VStem: -23 193<593 705> 81 87<0 532 0 532>
LayerCount: 2
Fore
SplineSet
-23 705 m 1x30
 60 747 l 1
 170 593 l 1
 93 593 l 1
 -23 705 l 1x30
168 532 m 1xc8
 168 0 l 1
 81 0 l 1
 81 532 l 1
 168 532 l 1xc8
EndSplineSet
EndChar

StartChar: iacute
Encoding: 237 237 173
Width: 268
GlyphClass: 2
Flags: MW
HStem: 0 21G<81 168 81 81> 512 20G<81 168 168 168> 594 154<90 200 90 200>
VStem: 81 87<0 532 0 532> 90 193<594 705>
LayerCount: 2
Fore
SplineSet
283 705 m 1x28
 168 594 l 1
 90 594 l 1
 200 748 l 1
 283 705 l 1x28
168 532 m 1xd0
 168 0 l 1
 81 0 l 1
 81 532 l 1
 168 532 l 1xd0
EndSplineSet
EndChar

StartChar: icircumflex
Encoding: 238 238 174
Width: 268
GlyphClass: 2
Flags: MW
HStem: 0 21G<81 168 81 81> 512 20G<81 168 168 168> 594 146<-11 184 -11 184 96 291 96 211>
VStem: -11 302<594 594> 81 87<0 532 0 532>
LayerCount: 2
Fore
SplineSet
291 594 m 1x30
 211 594 l 1
 140 690 l 1
 69 594 l 1
 -11 594 l 1
 96 740 l 1
 184 740 l 1
 291 594 l 1x30
168 532 m 1xc8
 168 0 l 1
 81 0 l 1
 81 532 l 1
 168 532 l 1xc8
EndSplineSet
EndChar

StartChar: idieresis
Encoding: 239 239 175
Width: 268
GlyphClass: 2
Flags: MW
HStem: 0 21G<81 168 81 81> 512 20G<81 168 168 168> 593 113<34.5 65.5 211.5 242.5>
VStem: -7 113<634.5 665.5> 81 87<0 532 0 532> 170 113<634.5 665.5>
LayerCount: 2
Fore
SplineSet
-7 650 m 0x34
 -7 681 19 706 50 706 c 0
 81 706 106 681 106 650 c 0
 106 619 81 593 50 593 c 0
 19 593 -7 619 -7 650 c 0x34
170 650 m 0
 170 681 196 706 227 706 c 0
 258 706 283 681 283 650 c 0
 283 619 258 593 227 593 c 0
 196 593 170 619 170 650 c 0
168 532 m 1xc8
 168 0 l 1
 81 0 l 1
 81 532 l 1
 168 532 l 1xc8
EndSplineSet
EndChar

StartChar: eth
Encoding: 240 240 176
Width: 535
GlyphClass: 2
Flags: MW
HStem: -5 107 359 85 727 20G<185 186 186 186>
VStem: 29 115 374 127
LayerCount: 2
Fore
SplineSet
144 234 m 0
 144 153 189 102 258 102 c 0
 329 102 374 152 374 228 c 0
 374 308 329 359 258 359 c 0
 188 359 144 310 144 234 c 0
429 697 m 1
 449.000976562 632.000976562 l 1
 356.000976562 600.000976562 l 1
 446.000976562 504.000976562 501.000976562 386.000976562 501.000976562 265.000976562 c 0
 501.000976562 101.000976562 392.000976562 -4.9990234375 252.000976562 -4.9990234375 c 0
 127.000976562 -4.9990234375 29.0009765625 85.0009765625 29.0009765625 224.000976562 c 0
 29.0009765625 357.000976562 119.000976562 444.000976562 237.000976562 444.000976562 c 0
 294.000976562 444.000976562 347.000976562 417.000976562 376.000976562 375.000976562 c 1
 356.000976562 440.000976562 317.000976562 507.000976562 268.000976562 564.000976562 c 1
 144.000976562 513.000976562 l 1
 123.000976562 578.000976562 l 1
 219.000976562 615.000976562 l 1
 187.942382812 643.98828125 153.706054688 670.647460938 113 691 c 1
 185 747 l 1
 186 747 l 1
 232 721 274 688 310 652 c 1
 429 697 l 1
EndSplineSet
EndChar

StartChar: ntilde
Encoding: 241 241 177
Width: 542
GlyphClass: 2
Flags: MW
HStem: 0 21G<57 145 57 57 384 471 384 384> 457 79<262 300> 593 62<309 344 309 359> 673 62<190.5 225.5>
VStem: 57 88<0 307 457 532> 112 59<599 602 599 646> 364 58<727 729 683.5 729> 384 87<0 323 323 330 0 362>
AnchorPoint: "Anchor-0" 336 0 basechar 0
LayerCount: 2
Fore
SplineSet
207 735 m 0x36
 258 735 290 655 328 655 c 0
 360 655 364 694 364 727 c 2
 364 729 l 1
 422 729 l 1
 422 727 l 2
 422 640 390 593 328 593 c 0
 273 593 245 673 206 673 c 0
 175 673 171 635 171 602 c 2
 171 599 l 1
 112 599 l 1
 112 602 l 2
 112 690 145 735 207 735 c 0x36
145 457 m 1xc9
 171 507 229 536 295 536 c 0
 395 536 471 457 471 330 c 2
 471 0 l 1
 384 0 l 1
 384 323 l 2
 384 401 334 457 266 457 c 0
 191 457 145 391 145 307 c 2
 145 0 l 1
 57 0 l 1
 57 532 l 1
 145 532 l 1
 145 457 l 1xc9
EndSplineSet
EndChar

StartChar: ograve
Encoding: 242 242 178
Width: 575
GlyphClass: 2
Flags: MW
HStem: -6 85<239 325 239 346.5> 451 85<239 325> 593 154<208 318 208 241>
VStem: 44 83<213 317 213 342.5> 125 193<593 705> 437 83<213 317>
LayerCount: 2
Fore
SplineSet
125 705 m 1x28
 208 747 l 1
 318 593 l 1
 241 593 l 1
 125 705 l 1x28
282 -6 m 0xd4
 155 -6 44 110 44 265 c 0
 44 420 153 536 282 536 c 0
 411 536 520 420 520 265 c 0
 520 110 411 -6 282 -6 c 0xd4
282 451 m 0
 196 451 127 369 127 265 c 0
 127 161 196 79 282 79 c 0
 368 79 437 161 437 265 c 0
 437 369 368 451 282 451 c 0
EndSplineSet
EndChar

StartChar: oacute
Encoding: 243 243 179
Width: 575
GlyphClass: 2
Flags: MW
HStem: -6 85<239 325 239 346.5> 451 85<239 325> 594 154<238 348 238 348>
VStem: 44 83<213 317 213 342.5> 238 193<594 705> 437 83<213 317>
LayerCount: 2
Fore
SplineSet
431 705 m 1
 316 594 l 1
 238 594 l 1
 348 748 l 1
 431 705 l 1
282 -6 m 0
 155 -6 44 110 44 265 c 0
 44 420 153 536 282 536 c 0
 411 536 520 420 520 265 c 0
 520 110 411 -6 282 -6 c 0
282 451 m 0
 196 451 127 369 127 265 c 0
 127 161 196 79 282 79 c 0
 368 79 437 161 437 265 c 0
 437 369 368 451 282 451 c 0
EndSplineSet
EndChar

StartChar: ocircumflex
Encoding: 244 244 180
Width: 575
GlyphClass: 2
Flags: MW
HStem: -6 85<239 325 239 346.5> 451 85<239 325> 594 146<137 332 137 332 244 439 244 359>
VStem: 44 83<213 317 213 342.5> 137 302<594 594> 437 83<213 317>
LayerCount: 2
Fore
SplineSet
439 594 m 1x28
 359 594 l 1
 288 690 l 1
 217 594 l 1
 137 594 l 1
 244 740 l 1
 332 740 l 1
 439 594 l 1x28
282 -6 m 0xd4
 155 -6 44 110 44 265 c 0
 44 420 153 536 282 536 c 0
 411 536 520 420 520 265 c 0
 520 110 411 -6 282 -6 c 0xd4
282 451 m 0
 196 451 127 369 127 265 c 0
 127 161 196 79 282 79 c 0
 368 79 437 161 437 265 c 0
 437 369 368 451 282 451 c 0
EndSplineSet
EndChar

StartChar: otilde
Encoding: 245 245 181
Width: 575
GlyphClass: 2
Flags: MW
HStem: -6 85<239 325 239 346.5> 451 85<239 325> 593 62<324 359 324 374> 673 62<205.5 240.5>
VStem: 44 83<213 317 213 342.5> 127 59<599 602 599 646> 379 58<727 729> 437 83<213 317>
LayerCount: 2
Fore
SplineSet
222 735 m 0x36
 273 735 305 655 343 655 c 0
 375 655 379 694 379 727 c 2
 379 729 l 1
 437 729 l 1
 437 727 l 2
 437 640 405 593 343 593 c 0
 288 593 260 673 221 673 c 0
 190 673 186 635 186 602 c 2
 186 599 l 1
 127 599 l 1
 127 602 l 2
 127 690 160 735 222 735 c 0x36
282 -6 m 0xc9
 155 -6 44 110 44 265 c 0
 44 420 153 536 282 536 c 0
 411 536 520 420 520 265 c 0
 520 110 411 -6 282 -6 c 0xc9
282 451 m 0
 196 451 127 369 127 265 c 0
 127 161 196 79 282 79 c 0
 368 79 437 161 437 265 c 0
 437 369 368 451 282 451 c 0
EndSplineSet
EndChar

StartChar: odieresis
Encoding: 246 246 182
Width: 575
GlyphClass: 2
Flags: MW
HStem: -6 85<239 325 239 346.5> 451 85<239 325> 593 113<183.5 214.5 360.5 391.5>
VStem: 44 83<213 317 213 342.5> 142 113<634.5 665.5> 319 113<634.5 665.5> 437 83<213 317>
LayerCount: 2
Fore
SplineSet
142 650 m 0
 142 681 168 706 199 706 c 0
 230 706 255 681 255 650 c 0
 255 619 230 593 199 593 c 0
 168 593 142 619 142 650 c 0
319 650 m 0
 319 681 345 706 376 706 c 0
 407 706 432 681 432 650 c 0
 432 619 407 593 376 593 c 0
 345 593 319 619 319 650 c 0
282 -6 m 0
 155 -6 44 110 44 265 c 0
 44 420 153 536 282 536 c 0
 411 536 520 420 520 265 c 0
 520 110 411 -6 282 -6 c 0
282 451 m 0
 196 451 127 369 127 265 c 0
 127 161 196 79 282 79 c 0
 368 79 437 161 437 265 c 0
 437 369 368 451 282 451 c 0
EndSplineSet
EndChar

StartChar: divide
Encoding: 247 247 183
Width: 487
GlyphClass: 2
Flags: MW
HStem: 88 132<216.5 253.5> 282 84<28 452 28 452> 442 132<216.5 253.5>
VStem: 171 129<135 172.5 490 527.5>
LayerCount: 2
Fore
SplineSet
171 154 m 0
 171 191 198 220 235 220 c 0
 272 220 300 191 300 154 c 0
 300 116 272 88 235 88 c 0
 198 88 171 116 171 154 c 0
452 366 m 1
 452 282 l 1
 28 282 l 1
 28 366 l 1
 452 366 l 1
171 509 m 0
 171 546 198 574 235 574 c 0
 272 574 300 546 300 509 c 0
 300 471 272 442 235 442 c 0
 198 442 171 471 171 509 c 0
EndSplineSet
EndChar

StartChar: oslash
Encoding: 248 248 184
Width: 549
GlyphClass: 2
Flags: MW
HStem: -6 82<265.5 313 265.5 334.5> 454 82<227 274.5>
VStem: 32 83<227 318 227 341.5> 425 83<212 302.5>
LayerCount: 2
Fore
SplineSet
425 265 m 0
 425 340 391 405 339 435 c 1
 245 79 l 1
 253 77 261 76 270 76 c 0
 356 76 425 159 425 265 c 0
203 95 m 1
 296 451 l 1
 287 453 279 454 270 454 c 0
 184 454 115 371 115 265 c 0
 115 189 151 125 203 95 c 1
181 14 m 1
 98 54 32 148 32 264 c 0
 32 419 141 536 270 536 c 0
 287 536 303 534 318 530 c 1
 353 665 l 1
 400 665 l 1
 360 516 l 1
 444 476 508 381 508 265 c 0
 508 110 399 -6 270 -6 c 0
 254 -6 239 -5 224 -1 c 1
 186 -146 l 1
 139 -146 l 1
 181 14 l 1
EndSplineSet
EndChar

StartChar: ugrave
Encoding: 249 249 185
Width: 535
GlyphClass: 2
Flags: MW
HStem: -4 79<218 259> 512 20G<53 136 136 136 375 463 463 463> 593 154<186 296 186 219>
VStem: 53 83<202 209 209 532> 103 193<593 705> 375 88<0 75 75 75 225 532 0 532>
LayerCount: 2
Fore
SplineSet
103 705 m 1x28
 186 747 l 1
 296 593 l 1
 219 593 l 1
 103 705 l 1x28
375 75 m 1xd4
 349 25 292 -4 226 -4 c 0
 126 -4 53 75 53 202 c 2
 53 532 l 1
 136 532 l 1
 136 209 l 2
 136 131 184 75 252 75 c 0
 327 75 375 141 375 225 c 2
 375 532 l 1
 463 532 l 1
 463 0 l 1
 375 0 l 1
 375 75 l 1xd4
EndSplineSet
EndChar

StartChar: uacute
Encoding: 250 250 186
Width: 535
GlyphClass: 2
Flags: MW
HStem: -4 79<218 259> 512 20G<53 136 136 136 375 463 463 463> 594 154<216 326 216 326>
VStem: 53 83<202 209 209 532> 216 193<594 705> 375 88<0 75 75 75 225 532 0 532>
LayerCount: 2
Fore
SplineSet
409 705 m 1x28
 294 594 l 1
 216 594 l 1
 326 748 l 1
 409 705 l 1x28
375 75 m 1xd4
 349 25 292 -4 226 -4 c 0
 126 -4 53 75 53 202 c 2
 53 532 l 1
 136 532 l 1
 136 209 l 2
 136 131 184 75 252 75 c 0
 327 75 375 141 375 225 c 2
 375 532 l 1
 463 532 l 1
 463 0 l 1
 375 0 l 1
 375 75 l 1xd4
EndSplineSet
EndChar

StartChar: ucircumflex
Encoding: 251 251 187
Width: 535
GlyphClass: 2
Flags: MW
HStem: -4 79<218 259> 512 20G<53 136 136 136 375 463 463 463> 594 146<115 310 115 310 222 417 222 337>
VStem: 53 83<202 209 209 532> 115 302<594 594> 375 88<0 75 75 75 225 532 0 532>
LayerCount: 2
Fore
SplineSet
417 594 m 1x28
 337 594 l 1
 266 690 l 1
 195 594 l 1
 115 594 l 1
 222 740 l 1
 310 740 l 1
 417 594 l 1x28
375 75 m 1xd4
 349 25 292 -4 226 -4 c 0
 126 -4 53 75 53 202 c 2
 53 532 l 1
 136 532 l 1
 136 209 l 2
 136 131 184 75 252 75 c 0
 327 75 375 141 375 225 c 2
 375 532 l 1
 463 532 l 1
 463 0 l 1
 375 0 l 1
 375 75 l 1xd4
EndSplineSet
EndChar

StartChar: udieresis
Encoding: 252 252 188
Width: 535
GlyphClass: 2
Flags: MW
HStem: -4 79<218 259> 512 20G<53 136 136 136 375 463 463 463> 593 113<161.5 192.5 338.5 369.5>
VStem: 53 83<202 209 209 532> 120 113<634.5 665.5> 297 113<634.5 665.5> 375 88<0 75 75 75 225 532 0 532>
LayerCount: 2
Fore
SplineSet
120 650 m 0x2c
 120 681 146 706 177 706 c 0
 208 706 233 681 233 650 c 0
 233 619 208 593 177 593 c 0
 146 593 120 619 120 650 c 0x2c
297 650 m 0
 297 681 323 706 354 706 c 0
 385 706 410 681 410 650 c 0
 410 619 385 593 354 593 c 0
 323 593 297 619 297 650 c 0
375 75 m 1xd2
 349 25 292 -4 226 -4 c 0
 126 -4 53 75 53 202 c 2
 53 532 l 1
 136 532 l 1
 136 209 l 2
 136 131 184 75 252 75 c 0
 327 75 375 141 375 225 c 2
 375 532 l 1
 463 532 l 1
 463 0 l 1
 375 0 l 1
 375 75 l 1xd2
EndSplineSet
EndChar

StartChar: yacute
Encoding: 253 253 189
Width: 576
GlyphClass: 2
Flags: MW
HStem: -199 76<153.5 178 153.5 198> 512 20G<37 127 127 127 437 528 528 528> 594 154<237 347 237 347>
VStem: 237 193<594 705>
LayerCount: 2
Fore
SplineSet
430 705 m 1
 315 594 l 1
 237 594 l 1
 347 748 l 1
 430 705 l 1
437 532 m 1
 528 532 l 1
 307 -71 l 2
 280 -156 231 -199 165 -199 c 0
 118 -199 79 -184 42 -153 c 1
 41 -152 l 1
 73 -87 l 1
 75 -88 l 1
 100 -106 143 -123 164 -123 c 0
 192 -123 221 -110 251 -28 c 2
 265 10 l 1
 37 532 l 1
 127 532 l 1
 300 98 l 1
 437 532 l 1
EndSplineSet
EndChar

StartChar: thorn
Encoding: 254 254 190
Width: 604
GlyphClass: 2
Flags: MW
HStem: -194 21G<82 162 82 82> -4 74<286 356 270 381> 460 76<287.5 356> 722 20G<82 162 162 162>
VStem: 82 80<-194 86 204.5 325 446 742> 466 81<205 324.5>
AnchorPoint: "Anchor-0" 148 0 basechar 0
LayerCount: 2
Fore
SplineSet
547 268 m 0
 547 106 443 -4 319 -4 c 0
 253 -4 194 28 162 86 c 1
 162 -194 l 1
 82 -194 l 1
 82 742 l 1
 162 742 l 1
 162 446 l 1
 195 505 254 536 321 536 c 0
 446 536 547 427 547 268 c 0
466 264 m 0
 466 385 400 460 312 460 c 0
 228 460 162 386 162 264 c 0
 162 145 228 70 312 70 c 0
 400 70 466 146 466 264 c 0
EndSplineSet
EndChar

StartChar: ydieresis
Encoding: 255 255 191
Width: 576
GlyphClass: 2
Flags: MW
HStem: -199 76<153.5 178 153.5 198> 512 20G<37 127 127 127 437 528 528 528> 593 113<181.5 212.5 358.5 389.5>
VStem: 140 113<634.5 665.5> 317 113<634.5 665.5>
LayerCount: 2
Fore
SplineSet
140 650 m 0
 140 681 166 706 197 706 c 0
 228 706 253 681 253 650 c 0
 253 619 228 593 197 593 c 0
 166 593 140 619 140 650 c 0
317 650 m 0
 317 681 343 706 374 706 c 0
 405 706 430 681 430 650 c 0
 430 619 405 593 374 593 c 0
 343 593 317 619 317 650 c 0
437 532 m 1
 528 532 l 1
 307 -71 l 2
 280 -156 231 -199 165 -199 c 0
 118 -199 79 -184 42 -153 c 1
 41 -152 l 1
 73 -87 l 1
 75 -88 l 1
 100 -106 143 -123 164 -123 c 0
 192 -123 221 -110 251 -28 c 2
 265 10 l 1
 37 532 l 1
 127 532 l 1
 300 98 l 1
 437 532 l 1
EndSplineSet
EndChar

StartChar: Amacron
Encoding: 256 256 192
Width: 721
GlyphClass: 2
Flags: MW
HStem: 0 21G<53 141 53 53 564 564 564 656> 182 74<231 474 231 501 205 474> 680 20G<321 389 389 389> 770 78<229 489 229 489>
VStem: 229 260<770 848 770 848>
LayerCount: 2
Fore
SplineSet
489 770 m 1
 229 770 l 1
 229 848 l 1
 489 848 l 1
 489 770 l 1
352 603 m 1
 231 256 l 1
 474 256 l 1
 352 603 l 1
501 182 m 1
 205 182 l 1
 141 0 l 1
 53 0 l 1
 321 700 l 1
 389 700 l 1
 656 0 l 1
 564 0 l 1
 501 182 l 1
EndSplineSet
Position2: "'cpsp' Capital Spacing lookup 0 subtable" dx=5 dy=0 dh=10 dv=0
EndChar

StartChar: amacron
Encoding: 257 257 193
Width: 529
GlyphClass: 2
Flags: MW
HStem: -5 78<198 243.5> 238 69<225 239 239 378> 455 81<231.5 290> 603 78<149 409 149 409>
VStem: 44 82<131 187.5 131 210> 149 260<603 681 603 681> 378 84
LayerCount: 2
Fore
SplineSet
409 603 m 1x14
 149 603 l 1
 149 681 l 1
 409 681 l 1
 409 603 l 1x14
462 0 m 1xea
 379 0 l 1
 379 61 l 1
 345 16 274 -5 213 -5 c 0
 117 -5 44 66 44 161 c 0
 44 259 119 306 225 307 c 2
 378 307 l 1
 378 355 l 2
 378 429 324 455 256 455 c 0
 207 455 161 433 117 397 c 1
 115 396 l 1
 74 467 l 1
 76 469 l 1
 145 513 190 536 273 536 c 0
 382 536 460 465 461 348 c 2
 462 0 l 1xea
126 161 m 0
 126 101 168 73 228 73 c 0
 295 73 378 103 378 168 c 2
 378 238 l 1
 239 238 l 2
 178 238 126 214 126 161 c 0
EndSplineSet
EndChar

StartChar: Abreve
Encoding: 258 258 194
Width: 721
GlyphClass: 2
Flags: MW
HStem: 0 21G<53 141 53 53 564 564 564 656> 182 74<231 474 231 501 205 474> 680 20G<321 389 389 389> 760 82<346 380 346 403.5> 888 20G<219 302 302 302 423 506 506 506>
VStem: 219 83<905 908 905 908> 423 83<905 908 905 908>
LayerCount: 2
Fore
SplineSet
423 908 m 1
 506 908 l 1
 506 905 l 2
 503 819 444 760 363 760 c 0
 282 760 222 819 219 905 c 2
 219 908 l 1
 302 908 l 1
 302 905 l 2
 304 868 329 842 363 842 c 0
 397 842 421 868 423 905 c 2
 423 908 l 1
352 603 m 1
 231 256 l 1
 474 256 l 1
 352 603 l 1
501 182 m 1
 205 182 l 1
 141 0 l 1
 53 0 l 1
 321 700 l 1
 389 700 l 1
 656 0 l 1
 564 0 l 1
 501 182 l 1
EndSplineSet
Position2: "'cpsp' Capital Spacing lookup 0 subtable" dx=5 dy=0 dh=10 dv=0
EndChar

StartChar: abreve
Encoding: 259 259 195
Width: 529
GlyphClass: 2
Flags: MW
HStem: -5 78<198 243.5> 238 69<225 239 239 378> 455 81<231.5 290> 593 82<266 300 266 323.5> 721 20G<139 222 222 222 343 426 426 426>
VStem: 44 82<131 187.5 131 210> 139 83<738 741 738 741> 343 83<738 741 738 741> 378 84
LayerCount: 2
Fore
SplineSet
343 741 m 1x1b
 426 741 l 1
 426 738 l 2
 423 652 364 593 283 593 c 0
 202 593 142 652 139 738 c 2
 139 741 l 1
 222 741 l 1
 222 738 l 2
 224 701 249 675 283 675 c 0
 317 675 341 701 343 738 c 2
 343 741 l 1x1b
462 0 m 1xe480
 379 0 l 1
 379 61 l 1
 345 16 274 -5 213 -5 c 0
 117 -5 44 66 44 161 c 0
 44 259 119 306 225 307 c 2
 378 307 l 1
 378 355 l 2
 378 429 324 455 256 455 c 0
 207 455 161 433 117 397 c 1
 115 396 l 1
 74 467 l 1
 76 469 l 1
 145 513 190 536 273 536 c 0
 382 536 460 465 461 348 c 2
 462 0 l 1xe480
126 161 m 0
 126 101 168 73 228 73 c 0
 295 73 378 103 378 168 c 2
 378 238 l 1
 239 238 l 2
 178 238 126 214 126 161 c 0
EndSplineSet
EndChar

StartChar: Aogonek
Encoding: 260 260 196
Width: 676
GlyphClass: 2
Flags: MW
HStem: -209 70<396.5 411> -126 20G<454 454> 0 21G<53 141 53 53 564 564 564 656> 182 74<231 474 231 501 205 474> 680 20G<321 389 389 389>
VStem: 310 66<-119.5 -107.5>
LayerCount: 2
Fore
SplineSet
371 9 m 1
 437 9 l 1
 434 6 l 1
 394 -48 376 -86 376 -110 c 0
 376 -129 388 -139 405 -139 c 0
 421 -139 437 -127 452 -108 c 2
 454 -106 l 1
 490 -149 l 1
 489 -150 l 1
 466 -187 430 -209 392 -209 c 0
 352 -209 310 -185 310 -128 c 0
 310 -87 333 -43 371 8 c 1
 371 9 l 1
352 603 m 1
 231 256 l 1
 474 256 l 1
 352 603 l 1
501 182 m 1
 205 182 l 1
 141 0 l 1
 53 0 l 1
 321 700 l 1
 389 700 l 1
 656 0 l 1
 564 0 l 1
 501 182 l 1
EndSplineSet
Position2: "'cpsp' Capital Spacing lookup 0 subtable" dx=5 dy=0 dh=10 dv=0
EndChar

StartChar: aogonek
Encoding: 261 261 197
Width: 488
GlyphClass: 2
Flags: MW
HStem: -214 70<468.5 483> -131 20G<526 526> -5 78<198 243.5> 238 69<225 239 239 378> 455 81<231.5 290>
VStem: 44 82<131 187.5 131 210> 378 84 382 66<-124.5 -112.5>
LayerCount: 2
Fore
SplineSet
443 4 m 1xc1
 509 4 l 1
 506 1 l 1
 466 -53 448 -91 448 -115 c 0
 448 -134 460 -144 477 -144 c 0
 493 -144 509 -132 524 -113 c 2
 526 -111 l 1
 562 -154 l 1
 561 -155 l 1
 538 -192 502 -214 464 -214 c 0
 424 -214 382 -190 382 -133 c 0
 382 -92 405 -48 443 3 c 1
 443 4 l 1xc1
462 0 m 1x3e
 379 0 l 1
 379 61 l 1
 345 16 274 -5 213 -5 c 0
 117 -5 44 66 44 161 c 0
 44 259 119 306 225 307 c 2
 378 307 l 1
 378 355 l 2
 378 429 324 455 256 455 c 0
 207 455 161 433 117 397 c 1
 115 396 l 1
 74 467 l 1
 76 469 l 1
 145 513 190 536 273 536 c 0
 382 536 460 465 461 348 c 2
 462 0 l 1x3e
126 161 m 0
 126 101 168 73 228 73 c 0
 295 73 378 103 378 168 c 2
 378 238 l 1
 239 238 l 2
 178 238 126 214 126 161 c 0
EndSplineSet
EndChar

StartChar: Cacute
Encoding: 262 262 198
Width: 655
GlyphClass: 2
Flags: MW
HStem: -5 81<298.5 393.795 298.5 397.885> 622 81<298.5 394.5> 761 154<330 440 330 440>
VStem: 48 87<275 428.5 275 450.5> 330 193<761 872>
AnchorPoint: "Anchor-0" 383 0 basechar 0
LayerCount: 2
Fore
SplineSet
523 872 m 1
 408 761 l 1
 330 761 l 1
 440 915 l 1
 523 872 l 1
602 112 m 1
 531.37890625 41.37890625 438.76953125 -5 357 -5 c 0
 190 -5 48 150 48 351 c 0
 48 550 191 703 360 703 c 0
 441.866210938 703 533.318359375 660.681640625 601 593 c 1
 543 529 l 1
 541 531 l 2
 490 585 427 622 362 622 c 0
 235 622 135 505 135 352 c 0
 135 198 235 76 362 76 c 0
 425.58984375 76 494.78515625 121.78515625 546 173 c 1
 602 112 l 1
EndSplineSet
Position2: "'cpsp' Capital Spacing lookup 0 subtable" dx=5 dy=0 dh=10 dv=0
EndChar

StartChar: cacute
Encoding: 263 263 199
Width: 543
GlyphClass: 2
Flags: MW
HStem: -6 81<243 311.5 243 324.5> 455 81<243 310> 594 154<252 362 252 362>
VStem: 44 86<211.5 318.5 211.5 342.5> 252 193<594 705>
AnchorPoint: "Anchor-0" 289 0 basechar 0
LayerCount: 2
Fore
SplineSet
445 705 m 1
 330 594 l 1
 252 594 l 1
 362 748 l 1
 445 705 l 1
490 97 m 1
 489 95 l 1
 439 32 362 -6 287 -6 c 0
 160 -6 44 110 44 265 c 0
 44 420 157 536 287 536 c 0
 357 536 429 502 479 446 c 1
 481 444 l 1
 422 383 l 1
 421 385 l 1
 385 425 333 455 287 455 c 0
 199 455 130 372 130 265 c 0
 130 158 199 75 287 75 c 0
 336 75 396 110 429 150 c 1
 431 152 l 1
 490 97 l 1
EndSplineSet
EndChar

StartChar: Ccircumflex
Encoding: 264 264 200
Width: 655
GlyphClass: 2
Flags: MW
HStem: -5 81<298.5 393.795 298.5 397.885> 622 81<298.5 394.5> 761 146<229 424 229 424 336 531 336 451>
VStem: 48 87<275 428.5 275 450.5> 229 302<761 761>
LayerCount: 2
Fore
SplineSet
531 761 m 1
 451 761 l 1
 380 857 l 1
 309 761 l 1
 229 761 l 1
 336 907 l 1
 424 907 l 1
 531 761 l 1
602 112 m 1
 531.37890625 41.37890625 438.76953125 -5 357 -5 c 0
 190 -5 48 150 48 351 c 0
 48 550 191 703 360 703 c 0
 441.866210938 703 533.318359375 660.681640625 601 593 c 1
 543 529 l 1
 541 531 l 2
 490 585 427 622 362 622 c 0
 235 622 135 505 135 352 c 0
 135 198 235 76 362 76 c 0
 425.58984375 76 494.78515625 121.78515625 546 173 c 1
 602 112 l 1
EndSplineSet
EndChar

StartChar: ccircumflex
Encoding: 265 265 201
Width: 543
GlyphClass: 2
Flags: MW
HStem: -6 81<243 311.5 243 324.5> 455 81<243 310> 594 146<151 346 151 346 258 453 258 373>
VStem: 44 86<211.5 318.5 211.5 342.5> 151 302<594 594>
LayerCount: 2
Fore
SplineSet
453 594 m 1
 373 594 l 1
 302 690 l 1
 231 594 l 1
 151 594 l 1
 258 740 l 1
 346 740 l 1
 453 594 l 1
490 97 m 1
 489 95 l 1
 439 32 362 -6 287 -6 c 0
 160 -6 44 110 44 265 c 0
 44 420 157 536 287 536 c 0
 357 536 429 502 479 446 c 1
 481 444 l 1
 422 383 l 1
 421 385 l 1
 385 425 333 455 287 455 c 0
 199 455 130 372 130 265 c 0
 130 158 199 75 287 75 c 0
 336 75 396 110 429 150 c 1
 431 152 l 1
 490 97 l 1
EndSplineSet
EndChar

StartChar: Cdotaccent
Encoding: 266 266 202
Width: 655
GlyphClass: 2
Flags: MW
HStem: -5 81<298.5 393.795 298.5 397.885> 622 81<298.5 394.5> 761 143<344.5 383.5>
VStem: 48 87<275 428.5 275 450.5> 293 143<812.5 851.5>
LayerCount: 2
Fore
SplineSet
293 832 m 0
 293 871 325 904 364 904 c 0
 403 904 436 871 436 832 c 0
 436 793 403 761 364 761 c 0
 325 761 293 793 293 832 c 0
602 112 m 1
 531.37890625 41.37890625 438.76953125 -5 357 -5 c 0
 190 -5 48 150 48 351 c 0
 48 550 191 703 360 703 c 0
 441.866210938 703 533.318359375 660.681640625 601 593 c 1
 543 529 l 1
 541 531 l 2
 490 585 427 622 362 622 c 0
 235 622 135 505 135 352 c 0
 135 198 235 76 362 76 c 0
 425.58984375 76 494.78515625 121.78515625 546 173 c 1
 602 112 l 1
EndSplineSet
EndChar

StartChar: cdotaccent
Encoding: 267 267 203
Width: 543
GlyphClass: 2
Flags: MW
HStem: -6 81<243 311.5 243 324.5> 455 81<243 310> 594 143<266.5 305.5>
VStem: 44 86<211.5 318.5 211.5 342.5> 215 143<645.5 684.5>
LayerCount: 2
Fore
SplineSet
215 665 m 0
 215 704 247 737 286 737 c 0
 325 737 358 704 358 665 c 0
 358 626 325 594 286 594 c 0
 247 594 215 626 215 665 c 0
490 97 m 1
 489 95 l 1
 439 32 362 -6 287 -6 c 0
 160 -6 44 110 44 265 c 0
 44 420 157 536 287 536 c 0
 357 536 429 502 479 446 c 1
 481 444 l 1
 422 383 l 1
 421 385 l 1
 385 425 333 455 287 455 c 0
 199 455 130 372 130 265 c 0
 130 158 199 75 287 75 c 0
 336 75 396 110 429 150 c 1
 431 152 l 1
 490 97 l 1
EndSplineSet
EndChar

StartChar: Ccaron
Encoding: 268 268 204
Width: 655
GlyphClass: 2
Flags: MW
HStem: -5 81<298.5 393.795 298.5 397.885> 622 81<298.5 394.5> 760 156<222 430 222 334>
VStem: 48 87<275 428.5 275 450.5> 222 320<916 916>
AnchorPoint: "Anchor-0" 383 0 basechar 0
LayerCount: 2
Fore
SplineSet
222 916 m 1
 310 916 l 1
 382 814 l 1
 454 916 l 1
 542 916 l 1
 430 760 l 1
 334 760 l 1
 222 916 l 1
602 112 m 1
 531.37890625 41.37890625 438.76953125 -5 357 -5 c 0
 190 -5 48 150 48 351 c 0
 48 550 191 703 360 703 c 0
 441.866210938 703 533.318359375 660.681640625 601 593 c 1
 543 529 l 1
 541 531 l 2
 490 585 427 622 362 622 c 0
 235 622 135 505 135 352 c 0
 135 198 235 76 362 76 c 0
 425.58984375 76 494.78515625 121.78515625 546 173 c 1
 602 112 l 1
EndSplineSet
Position2: "'cpsp' Capital Spacing lookup 0 subtable" dx=5 dy=0 dh=10 dv=0
EndChar

StartChar: ccaron
Encoding: 269 269 205
Width: 543
GlyphClass: 2
Flags: MW
HStem: -6 81<243 311.5 243 324.5> 455 81<243 310> 593 156<144 352 144 256>
VStem: 44 86<211.5 318.5 211.5 342.5> 144 320<749 749>
AnchorPoint: "Anchor-0" 289 0 basechar 0
LayerCount: 2
Fore
SplineSet
144 749 m 1
 232 749 l 1
 304 647 l 1
 376 749 l 1
 464 749 l 1
 352 593 l 1
 256 593 l 1
 144 749 l 1
490 97 m 1
 489 95 l 1
 439 32 362 -6 287 -6 c 0
 160 -6 44 110 44 265 c 0
 44 420 157 536 287 536 c 0
 357 536 429 502 479 446 c 1
 481 444 l 1
 422 383 l 1
 421 385 l 1
 385 425 333 455 287 455 c 0
 199 455 130 372 130 265 c 0
 130 158 199 75 287 75 c 0
 336 75 396 110 429 150 c 1
 431 152 l 1
 490 97 l 1
EndSplineSet
EndChar

StartChar: Dcaron
Encoding: 270 270 206
Width: 684
GlyphClass: 2
Flags: MW
HStem: 0 78<146 307> 618 82<146 308 146 146> 760 156<191 399 191 303>
VStem: 58 88<78 618 78 700 78 700> 191 320<916 916> 536 84<273.5 430>
LayerCount: 2
Fore
SplineSet
191 916 m 1
 279 916 l 1
 351 814 l 1
 423 916 l 1
 511 916 l 1
 399 760 l 1
 303 760 l 1
 191 916 l 1
308 618 m 2
 146 618 l 1
 146 78 l 1
 312 78 l 2
 437 78 536 198 536 349 c 0
 536 511 435 618 308 618 c 2
58 0 m 1
 58 700 l 1
 309 700 l 2
 480 700 620 553 620 350 c 0
 620 148 480 0 307 0 c 2
 58 0 l 1
EndSplineSet
Position2: "'cpsp' Capital Spacing lookup 0 subtable" dx=5 dy=0 dh=10 dv=0
EndChar

StartChar: dcaron
Encoding: 271 271 207
Width: 558
GlyphClass: 2
Flags: MW
HStem: -4 78<244 312.5> 460 76<244 314 219 330> 569 176<725.5 738 678 756.5> 722 20G<438 518 518 518>
VStem: 54 81<208.5 326 208.5 345> 438 80<0 86 86 86 208 326.5 446 742 0 742> 684 113<682 703.5 682 703.5>
LayerCount: 2
Fore
SplineSet
788 657 m 2x22
 738 569 l 1
 678 569 l 1
 718 636 l 1
 698 645 684 665 684 688 c 0
 684 719 710 745 741 745 c 0
 772 745 797 719 797 688 c 0
 797 676 793 665 788 657 c 2x22
54 264 m 0xdc
 54 426 157 536 281 536 c 0
 347 536 406 504 438 446 c 1
 438 742 l 1
 518 742 l 1
 518 0 l 1
 438 0 l 1
 438 86 l 1
 405 27 346 -4 279 -4 c 0
 154 -4 54 105 54 264 c 0xdc
135 268 m 0
 135 149 200 74 288 74 c 0
 372 74 438 148 438 268 c 0
 438 385 372 460 288 460 c 0
 200 460 135 384 135 268 c 0
EndSplineSet
EndChar

StartChar: Dcroat
Encoding: 272 272 208
Width: 688
GlyphClass: 2
Flags: MW
HStem: 0 78<163 322> 618 82<163 324 163 163> 814 78<208 419 208 419>
VStem: 74 89<78 618 78 700 78 700> 552 83<273.5 430>
LayerCount: 2
Fore
SplineSet
74 0 m 1
 74 700 l 1
 325 700 l 2
 496 700 635 553 635 350 c 0
 635 148 495 0 322 0 c 2
 74 0 l 1
419 892 m 1
 419 814 l 1
 208 814 l 1
 208 892 l 1
 419 892 l 1
324 618 m 2
 163 618 l 1
 163 78 l 1
 328 78 l 2
 453 78 552 198 552 349 c 0
 552 511 451 618 324 618 c 2
EndSplineSet
Position2: "'cpsp' Capital Spacing lookup 0 subtable" dx=5 dy=0 dh=10 dv=0
EndChar

StartChar: dcroat
Encoding: 273 273 209
Width: 609
GlyphClass: 2
Flags: MW
HStem: -4 76<229 297.5> 462 74<229 298 203.5 315> 611 71<321 422 321 422 503 586> 722 20G<422 503 503 503>
VStem: 38 81<207.5 327 207.5 345> 422 81<268 327.5 446 611 0 611 682 742>
LayerCount: 2
Fore
SplineSet
119 268 m 0
 119 147 185 72 273 72 c 0
 357 72 423 146 422 268 c 0
 422 387 357 462 273 462 c 0
 185 462 119 386 119 268 c 0
38 264 m 0
 38 426 142 536 265 536 c 0
 331 536 390 504 422 446 c 1
 422 611 l 1
 321 611 l 1
 321 682 l 1
 422 682 l 1
 422 742 l 1
 503 742 l 1
 503 682 l 1
 586 682 l 1
 586 611 l 1
 503 611 l 1
 503 0 l 1
 423 0 l 1
 423 86 l 1
 389 27 331 -4 264 -4 c 0
 140 -4 38 105 38 264 c 0
EndSplineSet
EndChar

StartChar: Emacron
Encoding: 274 274 210
Width: 580
GlyphClass: 2
Flags: MW
HStem: 0 79<141 517 141 517> 310 80<141 465 141 465> 625 75<141 505 141 141> 770 78<157 417 157 417>
VStem: 58 83<79 310 390 625> 157 260<770 848 770 848>
AnchorPoint: "Anchor-0" 331 0 basechar 0
LayerCount: 2
Fore
SplineSet
417 770 m 1
 157 770 l 1
 157 848 l 1
 417 848 l 1
 417 770 l 1
505 700 m 1
 505 625 l 1
 141 625 l 1
 141 390 l 1
 465 390 l 1
 465 310 l 1
 141 310 l 1
 141 79 l 1
 517 79 l 1
 517 0 l 1
 58 0 l 1
 58 700 l 1
 505 700 l 1
EndSplineSet
Position2: "'cpsp' Capital Spacing lookup 0 subtable" dx=5 dy=0 dh=10 dv=0
EndChar

StartChar: emacron
Encoding: 275 275 211
Width: 550
GlyphClass: 2
Flags: MW
HStem: -6 80<239 308 239 319> 228 70<131 412 130 495 131 131> 455 81<236 321> 603 78<147 407 147 407>
VStem: 44 87<228 228 228 332.5> 147 260<603 681 603 681> 412 86<298 300 300 331.5>
AnchorPoint: "Anchor-0" 301 0 basechar 0
LayerCount: 2
Fore
SplineSet
407 603 m 1
 147 603 l 1
 147 681 l 1
 407 681 l 1
 407 603 l 1
275 455 m 0
 197 455 141 389 130 298 c 1
 412 298 l 1
 412 300 l 2
 412 363 367 455 275 455 c 0
495 228 m 1
 131 228 l 1
 144 139 202 74 276 74 c 0
 340 74 393 112 419 148 c 1
 421 150 l 1
 475 90 l 1
 473 88 l 1
 422 29 355 -6 283 -6 c 0
 140 -6 44 130 44 265 c 0
 44 400 137 536 275 536 c 0
 413 536 498 399 498 265 c 0
 498 250 496 239 495 230 c 2
 495 228 l 1
EndSplineSet
EndChar

StartChar: Ebreve
Encoding: 276 276 212
Width: 580
GlyphClass: 2
Flags: MW
HStem: 0 79<141 517 141 517> 310 80<141 465 141 465> 625 75<141 505 141 141> 760 82<273 307 273 330.5> 888 20G<146 229 229 229 350 433 433 433>
VStem: 58 83<79 310 390 625> 146 83<905 908 905 908> 350 83<905 908 905 908>
LayerCount: 2
Fore
SplineSet
350 908 m 1
 433 908 l 1
 433 905 l 2
 430 819 371 760 290 760 c 0
 209 760 149 819 146 905 c 2
 146 908 l 1
 229 908 l 1
 229 905 l 2
 231 868 256 842 290 842 c 0
 324 842 348 868 350 905 c 2
 350 908 l 1
505 700 m 1
 505 625 l 1
 141 625 l 1
 141 390 l 1
 465 390 l 1
 465 310 l 1
 141 310 l 1
 141 79 l 1
 517 79 l 1
 517 0 l 1
 58 0 l 1
 58 700 l 1
 505 700 l 1
EndSplineSet
EndChar

StartChar: ebreve
Encoding: 277 277 213
Width: 550
GlyphClass: 2
Flags: MW
HStem: -6 80<239 308 239 319> 228 70<131 412 130 495 131 131> 455 81<236 321> 593 82<264 298 264 321.5> 721 20G<137 220 220 220 341 424 424 424>
VStem: 44 87<228 228 228 332.5> 137 83<738 741 738 741> 341 83<738 741 738 741> 412 86<298 300 300 331.5>
LayerCount: 2
Fore
SplineSet
341 741 m 1x1b
 424 741 l 1
 424 738 l 2
 421 652 362 593 281 593 c 0
 200 593 140 652 137 738 c 2
 137 741 l 1
 220 741 l 1
 220 738 l 2
 222 701 247 675 281 675 c 0
 315 675 339 701 341 738 c 2
 341 741 l 1x1b
275 455 m 0xe480
 197 455 141 389 130 298 c 1
 412 298 l 1
 412 300 l 2
 412 363 367 455 275 455 c 0xe480
495 228 m 1
 131 228 l 1
 144 139 202 74 276 74 c 0
 340 74 393 112 419 148 c 1
 421 150 l 1
 475 90 l 1
 473 88 l 1
 422 29 355 -6 283 -6 c 0
 140 -6 44 130 44 265 c 0
 44 400 137 536 275 536 c 0
 413 536 498 399 498 265 c 0
 498 250 496 239 495 230 c 2
 495 228 l 1
EndSplineSet
EndChar

StartChar: Edotaccent
Encoding: 278 278 214
Width: 580
GlyphClass: 2
Flags: MW
HStem: 0 79<141 517 141 517> 310 80<141 465 141 465> 625 75<141 505 141 141> 761 143<255.5 294.5>
VStem: 58 83<79 310 390 625> 204 143<812.5 851.5>
AnchorPoint: "Anchor-0" 331 0 basechar 0
LayerCount: 2
Fore
SplineSet
204 832 m 0
 204 871 236 904 275 904 c 0
 314 904 347 871 347 832 c 0
 347 793 314 761 275 761 c 0
 236 761 204 793 204 832 c 0
505 700 m 1
 505 625 l 1
 141 625 l 1
 141 390 l 1
 465 390 l 1
 465 310 l 1
 141 310 l 1
 141 79 l 1
 517 79 l 1
 517 0 l 1
 58 0 l 1
 58 700 l 1
 505 700 l 1
EndSplineSet
Position2: "'cpsp' Capital Spacing lookup 0 subtable" dx=5 dy=0 dh=10 dv=0
EndChar

StartChar: edotaccent
Encoding: 279 279 215
Width: 550
GlyphClass: 2
Flags: MW
HStem: -6 80<239 308 239 319> 228 70<131 412 130 495 131 131> 455 81<236 321> 594 143<246.5 285.5>
VStem: 44 87<228 228 228 332.5> 195 143<645.5 684.5> 412 86<298 300 300 331.5>
AnchorPoint: "Anchor-0" 301 0 basechar 0
LayerCount: 2
Fore
SplineSet
195 665 m 0
 195 704 227 737 266 737 c 0
 305 737 338 704 338 665 c 0
 338 626 305 594 266 594 c 0
 227 594 195 626 195 665 c 0
275 455 m 0
 197 455 141 389 130 298 c 1
 412 298 l 1
 412 300 l 2
 412 363 367 455 275 455 c 0
495 228 m 1
 131 228 l 1
 144 139 202 74 276 74 c 0
 340 74 393 112 419 148 c 1
 421 150 l 1
 475 90 l 1
 473 88 l 1
 422 29 355 -6 283 -6 c 0
 140 -6 44 130 44 265 c 0
 44 400 137 536 275 536 c 0
 413 536 498 399 498 265 c 0
 498 250 496 239 495 230 c 2
 495 228 l 1
EndSplineSet
EndChar

StartChar: Eogonek
Encoding: 280 280 216
Width: 528
GlyphClass: 2
Flags: MW
HStem: -209 70<340.5 355> -126 20G<398 398> 0 79<141 517 141 517> 310 80<141 465 141 465> 625 75<141 505 141 141>
VStem: 58 83<79 310 390 625> 254 66<-119.5 -107.5>
LayerCount: 2
Fore
SplineSet
315 9 m 1
 381 9 l 1
 378 6 l 1
 338 -48 320 -86 320 -110 c 0
 320 -129 332 -139 349 -139 c 0
 365 -139 381 -127 396 -108 c 2
 398 -106 l 1
 434 -149 l 1
 433 -150 l 1
 410 -187 374 -209 336 -209 c 0
 296 -209 254 -185 254 -128 c 0
 254 -87 277 -43 315 8 c 1
 315 9 l 1
505 700 m 1
 505 625 l 1
 141 625 l 1
 141 390 l 1
 465 390 l 1
 465 310 l 1
 141 310 l 1
 141 79 l 1
 517 79 l 1
 517 0 l 1
 58 0 l 1
 58 700 l 1
 505 700 l 1
EndSplineSet
Position2: "'cpsp' Capital Spacing lookup 0 subtable" dx=5 dy=0 dh=10 dv=0
EndChar

StartChar: eogonek
Encoding: 281 281 217
Width: 550
GlyphClass: 2
Flags: MW
HStem: -215 70<273.5 288> -132 20G<331 331> -6 80<239 308 239 319> 228 70<131 412 130 495 131 131> 455 81<236 321>
VStem: 44 87<228 228 228 332.5> 187 66<-125.5 -113.5> 412 86<298 300 300 331.5>
LayerCount: 2
Fore
SplineSet
248 3 m 1
 314 3 l 1
 311 0 l 1
 271 -54 253 -92 253 -116 c 0
 253 -135 265 -145 282 -145 c 0
 298 -145 314 -133 329 -114 c 2
 331 -112 l 1
 367 -155 l 1
 366 -156 l 1
 343 -193 307 -215 269 -215 c 0
 229 -215 187 -191 187 -134 c 0
 187 -93 210 -49 248 2 c 1
 248 3 l 1
275 455 m 0
 197 455 141 389 130 298 c 1
 412 298 l 1
 412 300 l 2
 412 363 367 455 275 455 c 0
495 228 m 1
 131 228 l 1
 144 139 202 74 276 74 c 0
 340 74 393 112 419 148 c 1
 421 150 l 1
 475 90 l 1
 473 88 l 1
 422 29 355 -6 283 -6 c 0
 140 -6 44 130 44 265 c 0
 44 400 137 536 275 536 c 0
 413 536 498 399 498 265 c 0
 498 250 496 239 495 230 c 2
 495 228 l 1
EndSplineSet
EndChar

StartChar: Ecaron
Encoding: 282 282 218
Width: 580
GlyphClass: 2
Flags: MW
HStem: 0 79<141 517 141 517> 310 80<141 465 141 465> 625 75<141 505 141 141> 760 156<133 341 133 245>
VStem: 58 83<79 310 390 625> 133 320<916 916>
AnchorPoint: "Anchor-0" 331 0 basechar 0
LayerCount: 2
Fore
SplineSet
133 916 m 1x14
 221 916 l 1
 293 814 l 1
 365 916 l 1
 453 916 l 1
 341 760 l 1
 245 760 l 1
 133 916 l 1x14
505 700 m 1xe8
 505 625 l 1
 141 625 l 1
 141 390 l 1
 465 390 l 1
 465 310 l 1
 141 310 l 1
 141 79 l 1
 517 79 l 1
 517 0 l 1
 58 0 l 1
 58 700 l 1
 505 700 l 1xe8
EndSplineSet
Position2: "'cpsp' Capital Spacing lookup 0 subtable" dx=5 dy=0 dh=10 dv=0
EndChar

StartChar: ecaron
Encoding: 283 283 219
Width: 550
GlyphClass: 2
Flags: MW
HStem: -6 80<239 308 239 319> 228 70<131 412 130 495 131 131> 455 81<236 321> 593 156<124 332 124 236>
VStem: 44 87<228 228 228 332.5> 124 320<749 749> 412 86<298 300 300 331.5>
AnchorPoint: "Anchor-0" 301 0 basechar 0
LayerCount: 2
Fore
SplineSet
124 749 m 1x14
 212 749 l 1
 284 647 l 1
 356 749 l 1
 444 749 l 1
 332 593 l 1
 236 593 l 1
 124 749 l 1x14
275 455 m 0xea
 197 455 141 389 130 298 c 1
 412 298 l 1
 412 300 l 2
 412 363 367 455 275 455 c 0xea
495 228 m 1
 131 228 l 1
 144 139 202 74 276 74 c 0
 340 74 393 112 419 148 c 1
 421 150 l 1
 475 90 l 1
 473 88 l 1
 422 29 355 -6 283 -6 c 0
 140 -6 44 130 44 265 c 0
 44 400 137 536 275 536 c 0
 413 536 498 399 498 265 c 0
 498 250 496 239 495 230 c 2
 495 228 l 1
EndSplineSet
EndChar

StartChar: Gcircumflex
Encoding: 284 284 220
Width: 664
GlyphClass: 2
Flags: MW
HStem: -5 82<299.5 393 299.5 398> 298 83<360 521 360 596> 535 21G<550 550> 625 78<297.5 392.963> 761 146<230 425 230 425 337 532 337 452>
VStem: 48 83<270 425 270 450> 230 302<761 761> 521 75<139 298 298 298>
LayerCount: 2
Fore
SplineSet
532 761 m 1x0a
 452 761 l 1
 381 857 l 1
 310 761 l 1
 230 761 l 1
 337 907 l 1
 425 907 l 1
 532 761 l 1x0a
550 535 m 1xf5
 500.936523438 584.063476562 422.926757812 625 363 625 c 0
 232 625 131 500 131 350 c 0
 131 190 233 77 366 77 c 0
 420 77 474 108 521 139 c 1
 521 298 l 1
 360 298 l 1
 360 381 l 1
 596 381 l 1
 596 87 l 1
 595 86 l 1
 524 32 437 -5 359 -5 c 0
 190 -5 48 150 48 350 c 0
 48 550 192 703 365 703 c 0
 446 703 530 665 599 605 c 1
 600 604 l 1
 550 535 l 1xf5
EndSplineSet
EndChar

StartChar: gcircumflex
Encoding: 285 285 221
Width: 583
GlyphClass: 2
Flags: MW
HStem: -197 80<250 316.5 250 349> 25 79<232 307.5 232 308.5> 455 81<239.5 306.5 216 316> 594 146<132 327 132 327 239 434 239 354>
VStem: 57 83<229 330 229 357> 132 302<594 594> 414 84<50 53 53 108 108 108 211 345.5 452 532>
LayerCount: 2
Fore
SplineSet
434 594 m 1x14
 354 594 l 1
 283 690 l 1
 212 594 l 1
 132 594 l 1
 239 740 l 1
 327 740 l 1
 434 594 l 1x14
414 532 m 1xea
 498 532 l 1
 498 53 l 2
 498 -100 418 -197 280 -197 c 0
 212 -197 153 -171 91 -127 c 1
 89 -125 l 1
 131 -58 l 1
 133 -59 l 1
 174 -96 224 -117 276 -117 c 0
 357 -117 414 -70 414 50 c 2
 414 108 l 1
 384 54 340 25 277 25 c 0
 159 25 57 129 57 282 c 0
 57 432 158 536 274 536 c 0
 339 536 384 506 414 452 c 1
 414 532 l 1xea
140 278 m 0
 140 180 193 104 271 104 c 0
 344 104 414 144 414 278 c 0
 414 413 352 455 280 455 c 0
 199 455 140 382 140 278 c 0
EndSplineSet
EndChar

StartChar: Gbreve
Encoding: 286 286 222
Width: 664
GlyphClass: 2
Flags: MW
HStem: -5 82<299.5 393 299.5 398> 298 83<360 521 360 596> 535 21G<550 550> 625 78<297.5 392.963> 760 82<363 397 363 420.5> 888 20G<236 319 319 319 440 523 523 523>
VStem: 48 83<270 425 270 450> 236 83<905 908 905 908> 440 83<905 908 905 908> 521 75<139 298 298 298>
AnchorPoint: "Anchor-0" 387 0 basechar 0
LayerCount: 2
Fore
SplineSet
440 908 m 1x0d80
 523 908 l 1
 523 905 l 2
 520 819 461 760 380 760 c 0
 299 760 239 819 236 905 c 2
 236 908 l 1
 319 908 l 1
 319 905 l 2
 321 868 346 842 380 842 c 0
 414 842 438 868 440 905 c 2
 440 908 l 1x0d80
550 535 m 1xf240
 500.936523438 584.063476562 422.926757812 625 363 625 c 0
 232 625 131 500 131 350 c 0
 131 190 233 77 366 77 c 0
 420 77 474 108 521 139 c 1
 521 298 l 1
 360 298 l 1
 360 381 l 1
 596 381 l 1
 596 87 l 1
 595 86 l 1
 524 32 437 -5 359 -5 c 0
 190 -5 48 150 48 350 c 0
 48 550 192 703 365 703 c 0
 446 703 530 665 599 605 c 1
 600 604 l 1
 550 535 l 1xf240
EndSplineSet
Position2: "'cpsp' Capital Spacing lookup 0 subtable" dx=5 dy=0 dh=10 dv=0
EndChar

StartChar: gbreve
Encoding: 287 287 223
Width: 583
GlyphClass: 2
Flags: MW
HStem: -197 80<250 316.5 250 349> 25 79<232 307.5 232 308.5> 455 81<239.5 306.5 216 316> 593 82<265 299 265 322.5> 721 20G<138 221 221 221 342 425 425 425>
VStem: 57 83<229 330 229 357> 138 83<738 741 738 741> 342 83<738 741 738 741> 414 84<50 53 53 108 108 108 211 345.5 452 532>
LayerCount: 2
Fore
SplineSet
342 741 m 1x1b
 425 741 l 1
 425 738 l 2
 422 652 363 593 282 593 c 0
 201 593 141 652 138 738 c 2
 138 741 l 1
 221 741 l 1
 221 738 l 2
 223 701 248 675 282 675 c 0
 316 675 340 701 342 738 c 2
 342 741 l 1x1b
414 532 m 1xe480
 498 532 l 1
 498 53 l 2
 498 -100 418 -197 280 -197 c 0
 212 -197 153 -171 91 -127 c 1
 89 -125 l 1
 131 -58 l 1
 133 -59 l 1
 174 -96 224 -117 276 -117 c 0
 357 -117 414 -70 414 50 c 2
 414 108 l 1
 384 54 340 25 277 25 c 0
 159 25 57 129 57 282 c 0
 57 432 158 536 274 536 c 0
 339 536 384 506 414 452 c 1
 414 532 l 1xe480
140 278 m 0
 140 180 193 104 271 104 c 0
 344 104 414 144 414 278 c 0
 414 413 352 455 280 455 c 0
 199 455 140 382 140 278 c 0
EndSplineSet
EndChar

StartChar: Gdotaccent
Encoding: 288 288 224
Width: 664
GlyphClass: 2
Flags: MW
HStem: -5 82<299.5 393 299.5 398> 298 83<360 521 360 596> 535 21G<550 550> 625 78<297.5 392.963> 761 143<345.5 384.5>
VStem: 48 83<270 425 270 450> 294 143<812.5 851.5> 521 75<139 298 298 298>
LayerCount: 2
Fore
SplineSet
294 832 m 0
 294 871 326 904 365 904 c 0
 404 904 437 871 437 832 c 0
 437 793 404 761 365 761 c 0
 326 761 294 793 294 832 c 0
550 535 m 1
 500.936523438 584.063476562 422.926757812 625 363 625 c 0
 232 625 131 500 131 350 c 0
 131 190 233 77 366 77 c 0
 420 77 474 108 521 139 c 1
 521 298 l 1
 360 298 l 1
 360 381 l 1
 596 381 l 1
 596 87 l 1
 595 86 l 1
 524 32 437 -5 359 -5 c 0
 190 -5 48 150 48 350 c 0
 48 550 192 703 365 703 c 0
 446 703 530 665 599 605 c 1
 600 604 l 1
 550 535 l 1
EndSplineSet
EndChar

StartChar: gdotaccent
Encoding: 289 289 225
Width: 583
GlyphClass: 2
Flags: MW
HStem: -197 80<250 316.5 250 349> 25 79<232 307.5 232 308.5> 455 81<239.5 306.5 216 316> 594 143<247.5 286.5>
VStem: 57 83<229 330 229 357> 196 143<645.5 684.5> 414 84<50 53 53 108 108 108 211 345.5 452 532>
LayerCount: 2
Fore
SplineSet
196 665 m 0
 196 704 228 737 267 737 c 0
 306 737 339 704 339 665 c 0
 339 626 306 594 267 594 c 0
 228 594 196 626 196 665 c 0
414 532 m 1
 498 532 l 1
 498 53 l 2
 498 -100 418 -197 280 -197 c 0
 212 -197 153 -171 91 -127 c 1
 89 -125 l 1
 131 -58 l 1
 133 -59 l 1
 174 -96 224 -117 276 -117 c 0
 357 -117 414 -70 414 50 c 2
 414 108 l 1
 384 54 340 25 277 25 c 0
 159 25 57 129 57 282 c 0
 57 432 158 536 274 536 c 0
 339 536 384 506 414 452 c 1
 414 532 l 1
140 278 m 0
 140 180 193 104 271 104 c 0
 344 104 414 144 414 278 c 0
 414 413 352 455 280 455 c 0
 199 455 140 382 140 278 c 0
EndSplineSet
EndChar

StartChar: Gcommaaccent
Encoding: 290 290 226
Width: 664
GlyphClass: 2
Flags: MW
HStem: -254 208<345.5 351 287 380.5> -5 82<299.5 393 299.5 398> 298 83<360 521 360 596> 535 21G<550 550> 625 78<297.5 392.963>
VStem: 48 83<270 425 270 450> 299 128<-123 -94> 521 75<139 298 298 298>
AnchorPoint: "Anchor-0" 387 0 basechar 0
LayerCount: 2
Fore
SplineSet
364 -46 m 0
 397 -46 427 -72 427 -113 c 0
 427 -133 420 -150 409 -166 c 2
 351 -254 l 1
 287 -254 l 1
 325 -166 l 1
 307 -153 299 -134 299 -113 c 0
 299 -75 327 -46 364 -46 c 0
550 535 m 1
 500.936523438 584.063476562 422.926757812 625 363 625 c 0
 232 625 131 500 131 350 c 0
 131 190 233 77 366 77 c 0
 420 77 474 108 521 139 c 1
 521 298 l 1
 360 298 l 1
 360 381 l 1
 596 381 l 1
 596 87 l 1
 595 86 l 1
 524 32 437 -5 359 -5 c 0
 190 -5 48 150 48 350 c 0
 48 550 192 703 365 703 c 0
 446 703 530 665 599 605 c 1
 600 604 l 1
 550 535 l 1
EndSplineSet
Position2: "'cpsp' Capital Spacing lookup 0 subtable" dx=5 dy=0 dh=10 dv=0
EndChar

StartChar: gcommaaccent
Encoding: 291 291 227
Width: 563
GlyphClass: 2
Flags: MW
HStem: -197 80<234 300.5 234 333> 25 81<216 291.5 216 292.5> 458 78<223.5 290.5 200 300>
VStem: 41 83<231 332 231 357> 220 104<623 652> 398 84<50 53 53 108 108 108 213 347.5 452 532>
LayerCount: 2
Fore
SplineSet
324 642 m 0
 324 604 302 576 272 576 c 0
 245 576 220 601 220 642 c 0
 220 662 226 680 235 696 c 2
 282 783 l 1
 334 783 l 1
 303 695 l 1
 318 682 324 663 324 642 c 0
398 532 m 1
 482 532 l 1
 482 53 l 2
 482 -100 402 -197 264 -197 c 0
 196 -197 137 -171 75 -127 c 1
 73 -125 l 1
 115 -58 l 1
 117 -59 l 1
 158 -96 208 -117 260 -117 c 0
 341 -117 398 -70 398 50 c 2
 398 108 l 1
 368 54 324 25 261 25 c 0
 143 25 41 129 41 282 c 0
 41 432 142 536 258 536 c 0
 323 536 368 506 398 452 c 1
 398 532 l 1
124 280 m 0
 124 182 177 106 255 106 c 0
 328 106 398 146 398 280 c 0
 398 415 336 458 264 458 c 0
 183 458 124 384 124 280 c 0
EndSplineSet
EndChar

StartChar: Hcircumflex
Encoding: 292 292 228
Width: 664
GlyphClass: 2
Flags: MW
HStem: 0 21G<58 151 58 58 496 589 496 496> 300 81<151 496 151 496> 680 20G<58 151 151 151 496 589 589 589> 761 146<182 377 182 377 289 484 289 404>
VStem: 58 93<0 300 0 381 381 700> 182 302<761 761> 496 93<0 300 300 300 381 700 0 700>
LayerCount: 2
Fore
SplineSet
484 761 m 1
 404 761 l 1
 333 857 l 1
 262 761 l 1
 182 761 l 1
 289 907 l 1
 377 907 l 1
 484 761 l 1
589 700 m 1
 589 0 l 1
 496 0 l 1
 496 300 l 1
 151 300 l 1
 151 0 l 1
 58 0 l 1
 58 700 l 1
 151 700 l 1
 151 381 l 1
 496 381 l 1
 496 700 l 1
 589 700 l 1
EndSplineSet
EndChar

StartChar: hcircumflex
Encoding: 293 293 229
Width: 565
GlyphClass: 2
Flags: MW
HStem: 0 21G<58 151 58 58 407 494 407 407> 453 83<278 325> 722 20G<58 151 151 151> 800 146<135 330 135 330 242 437 242 357>
VStem: 58 93<0 262 453 742> 135 302<800 800> 407 87<0 328 328 330 0 367>
LayerCount: 2
Fore
SplineSet
437 800 m 1x14
 357 800 l 1
 286 896 l 1
 215 800 l 1
 135 800 l 1
 242 946 l 1
 330 946 l 1
 437 800 l 1x14
151 453 m 1xea
 189 515 242 536 314 536 c 0
 418 536 494 457 494 330 c 2
 494 0 l 1
 407 0 l 1
 407 328 l 2
 407 406 361 453 289 453 c 0
 197 453 151 374 151 262 c 2
 151 0 l 1
 58 0 l 1
 58 742 l 1
 151 742 l 1
 151 453 l 1xea
EndSplineSet
EndChar

StartChar: hbar
Encoding: 295 295 230
Width: 565
GlyphClass: 2
Flags: MW
HStem: 0 21G<87 180 87 87 436 523 436 436> 453 83<307 354> 594 64<-17 303 -17 303> 722 20G<87 180 180 180>
VStem: 87 93<0 262 453 742> 436 87<0 328 328 330 0 367>
AnchorPoint: "Anchor-0" 332 0 basechar 0
LayerCount: 2
Fore
SplineSet
303 594 m 1
 -17 594 l 1
 -17 658 l 1
 303 658 l 1
 303 594 l 1
180 453 m 1
 218 515 271 536 343 536 c 0
 447 536 523 457 523 330 c 2
 523 0 l 1
 436 0 l 1
 436 328 l 2
 436 406 390 453 318 453 c 0
 226 453 180 374 180 262 c 2
 180 0 l 1
 87 0 l 1
 87 742 l 1
 180 742 l 1
 180 453 l 1
EndSplineSet
EndChar

StartChar: Itilde
Encoding: 296 296 231
Width: 253
GlyphClass: 2
Flags: MW
HStem: 0 21G<73 160 73 73> 680 20G<73 160 160 160> 760 62<166 201 166 216> 840 62<47.5 82.5>
VStem: -31 59<766 769 766 813> 73 87<0 700 0 700> 221 58<894 896 850.5 896>
LayerCount: 2
Fore
SplineSet
64 902 m 0
 115 902 147 822 185 822 c 0
 217 822 221 861 221 894 c 2
 221 896 l 1
 279 896 l 1
 279 894 l 2
 279 807 247 760 185 760 c 0
 130 760 102 840 63 840 c 0
 32 840 28 802 28 769 c 2
 28 766 l 1
 -31 766 l 1
 -31 769 l 2
 -31 857 2 902 64 902 c 0
160 700 m 1
 160 0 l 1
 73 0 l 1
 73 700 l 1
 160 700 l 1
EndSplineSet
Position2: "'cpsp' Capital Spacing lookup 0 subtable" dx=5 dy=0 dh=10 dv=0
EndChar

StartChar: itilde
Encoding: 297 297 232
Width: 268
GlyphClass: 2
Flags: MW
HStem: 0 21G<81 168 81 81> 512 20G<81 168 168 168> 593 62<176 211 176 226> 673 62<57.5 92.5>
VStem: -21 59<599 602 599 646> 81 87<0 532 0 532> 231 58<727 729 683.5 729>
LayerCount: 2
Fore
SplineSet
74 735 m 0
 125 735 157 655 195 655 c 0
 227 655 231 694 231 727 c 2
 231 729 l 1
 289 729 l 1
 289 727 l 2
 289 640 257 593 195 593 c 0
 140 593 112 673 73 673 c 0
 42 673 38 635 38 602 c 2
 38 599 l 1
 -21 599 l 1
 -21 602 l 2
 -21 690 12 735 74 735 c 0
168 532 m 1
 168 0 l 1
 81 0 l 1
 81 532 l 1
 168 532 l 1
EndSplineSet
EndChar

StartChar: Imacron
Encoding: 298 298 233
Width: 253
GlyphClass: 2
Flags: MW
HStem: 0 21G<73 160 73 73> 680 20G<73 160 160 160> 770 78<-5 255 -5 255>
VStem: -5 260<770 848 770 848> 73 87<0 700 0 700>
LayerCount: 2
Fore
SplineSet
255 770 m 1x30
 -5 770 l 1
 -5 848 l 1
 255 848 l 1
 255 770 l 1x30
160 700 m 1xc8
 160 0 l 1
 73 0 l 1
 73 700 l 1
 160 700 l 1xc8
EndSplineSet
Position2: "'cpsp' Capital Spacing lookup 0 subtable" dx=5 dy=0 dh=10 dv=0
EndChar

StartChar: imacron
Encoding: 299 299 234
Width: 268
GlyphClass: 2
Flags: MW
HStem: 0 21G<81 168 81 81> 512 20G<81 168 168 168> 603 78<5 265 5 265>
VStem: 5 260<603 681 603 681> 81 87<0 532 0 532>
LayerCount: 2
Fore
SplineSet
265 603 m 1x30
 5 603 l 1
 5 681 l 1
 265 681 l 1
 265 603 l 1x30
168 532 m 1xc8
 168 0 l 1
 81 0 l 1
 81 532 l 1
 168 532 l 1xc8
EndSplineSet
EndChar

StartChar: Ibreve
Encoding: 300 300 235
Width: 253
GlyphClass: 2
Flags: MW
HStem: 0 21G<73 160 73 73> 680 20G<73 160 160 160> 760 82<112 146 112 169.5> 888 20G<-15 68 68 68 189 272 272 272>
VStem: -15 83<905 908 905 908> 73 87<0 700 0 700> 189 83<905 908 905 908>
LayerCount: 2
Fore
SplineSet
189 908 m 1
 272 908 l 1
 272 905 l 2
 269 819 210 760 129 760 c 0
 48 760 -12 819 -15 905 c 2
 -15 908 l 1
 68 908 l 1
 68 905 l 2
 70 868 95 842 129 842 c 0
 163 842 187 868 189 905 c 2
 189 908 l 1
160 700 m 1
 160 0 l 1
 73 0 l 1
 73 700 l 1
 160 700 l 1
EndSplineSet
EndChar

StartChar: ibreve
Encoding: 301 301 236
Width: 268
GlyphClass: 2
Flags: MW
HStem: 0 21G<81 168 81 81> 512 20G<81 168 168 168> 593 82<122 156 122 179.5> 721 20G<-5 78 78 78 199 282 282 282>
VStem: -5 83<738 741 738 741> 81 87<0 532 0 532> 199 83<738 741 738 741>
LayerCount: 2
Fore
SplineSet
199 741 m 1
 282 741 l 1
 282 738 l 2
 279 652 220 593 139 593 c 0
 58 593 -2 652 -5 738 c 2
 -5 741 l 1
 78 741 l 1
 78 738 l 2
 80 701 105 675 139 675 c 0
 173 675 197 701 199 738 c 2
 199 741 l 1
168 532 m 1
 168 0 l 1
 81 0 l 1
 81 532 l 1
 168 532 l 1
EndSplineSet
EndChar

StartChar: Iogonek
Encoding: 302 302 237
Width: 253
GlyphClass: 2
Flags: MW
HStem: -209 70<111.5 126> -126 20G<169 169> 0 21G<73 160 73 73> 680 20G<73 160 160 160>
VStem: 25 66<-119.5 -107.5> 73 87<0 700 0 700>
LayerCount: 2
Fore
SplineSet
86 9 m 1xc8
 152 9 l 1
 149 6 l 1
 109 -48 91 -86 91 -110 c 0
 91 -129 103 -139 120 -139 c 0
 136 -139 152 -127 167 -108 c 2
 169 -106 l 1
 205 -149 l 1
 204 -150 l 1
 181 -187 145 -209 107 -209 c 0
 67 -209 25 -185 25 -128 c 0
 25 -87 48 -43 86 8 c 1
 86 9 l 1xc8
160 700 m 1x34
 160 0 l 1
 73 0 l 1
 73 700 l 1
 160 700 l 1x34
EndSplineSet
Position2: "'cpsp' Capital Spacing lookup 0 subtable" dx=5 dy=0 dh=10 dv=0
EndChar

StartChar: iogonek
Encoding: 303 303 238
Width: 269
GlyphClass: 2
Flags: MW
HStem: -209 70<111.5 126> -126 20G<169 169> 0 21G<75 162 75 75> 512 20G<75 162 162 162> 641 113<103.5 134.5>
VStem: 25 66<-119.5 -107.5> 62 113<682.5 713.5> 75 87<0 532 0 532>
LayerCount: 2
Fore
SplineSet
86 9 m 1xc4
 152 9 l 1
 149 6 l 1
 109 -48 91 -86 91 -110 c 0
 91 -129 103 -139 120 -139 c 0
 136 -139 152 -127 167 -108 c 2
 169 -106 l 1
 205 -149 l 1
 204 -150 l 1
 181 -187 145 -209 107 -209 c 0
 67 -209 25 -185 25 -128 c 0
 25 -87 48 -43 86 8 c 1
 86 9 l 1xc4
162 532 m 1x39
 162 0 l 1
 75 0 l 1
 75 532 l 1
 162 532 l 1x39
119 641 m 0
 88 641 62 667 62 698 c 0
 62 729 88 754 119 754 c 0
 150 754 175 729 175 698 c 0x3a
 175 667 150 641 119 641 c 0
EndSplineSet
EndChar

StartChar: Idotaccent
Encoding: 304 304 239
Width: 253
GlyphClass: 2
Flags: MW
HStem: 0 21G<73 160 73 73> 680 20G<73 160 160 160> 761 143<94.5 133.5>
VStem: 43 143<812.5 851.5> 73 87<0 700 0 700>
LayerCount: 2
Fore
SplineSet
43 832 m 0x30
 43 871 75 904 114 904 c 0
 153 904 186 871 186 832 c 0
 186 793 153 761 114 761 c 0
 75 761 43 793 43 832 c 0x30
160 700 m 1xc8
 160 0 l 1
 73 0 l 1
 73 700 l 1
 160 700 l 1xc8
EndSplineSet
Position2: "'cpsp' Capital Spacing lookup 0 subtable" dx=5 dy=0 dh=10 dv=0
EndChar

StartChar: dotlessi
Encoding: 305 305 240
Width: 268
GlyphClass: 2
Flags: MW
HStem: 0 21G<81 168 81 81> 512 20G<81 168 168 168>
VStem: 81 87<0 532 0 532>
LayerCount: 2
Fore
SplineSet
168 532 m 1
 168 0 l 1
 81 0 l 1
 81 532 l 1
 168 532 l 1
EndSplineSet
EndChar

StartChar: IJ
Encoding: 306 306 241
Width: 705
GlyphClass: 2
Flags: MW
HStem: -5 80<406 462 406 482> 680 20G<88 175 175 175 537 621 621 621>
VStem: 88 87<0 700 0 700> 537 84<211 217 217 700>
LayerCount: 2
Fore
SplineSet
175 700 m 1
 175 0 l 1
 88 0 l 1
 88 700 l 1
 175 700 l 1
537 700 m 1
 621 700 l 1
 621 217 l 2
 621 76 537 -5 427 -5 c 0
 358 -5 301 32 259 96 c 1
 258 98 l 1
 310 156 l 1
 311 154 l 1
 348 102 383 75 429 75 c 0
 495 75 537 131 537 211 c 2
 537 700 l 1
EndSplineSet
Position2: "'cpsp' Capital Spacing lookup 0 subtable" dx=5 dy=0 dh=10 dv=0
EndChar

StartChar: ij
Encoding: 307 307 242
Width: 522
GlyphClass: 2
Flags: MW
HStem: -199 87<264 290.5 264 310> 0 21G<83 170 83 83> 512 20G<83 170 170 170 331 418 418 418> 641 113<111.5 142.5 359.5 390.5>
VStem: 70 111<682.5 713.5> 83 87<0 532 0 532> 321 110<682.5 713.5> 331 87<-4 532>
LayerCount: 2
Fore
SplineSet
170 532 m 1xf4
 170 0 l 1
 83 0 l 1
 83 532 l 1
 170 532 l 1xf4
127 641 m 0
 96 641 70 667 70 698 c 0
 70 729 96 754 127 754 c 0
 158 754 181 729 181 698 c 0xf8
 181 667 158 641 127 641 c 0
331 532 m 1xf1
 418 532 l 1
 418 -12 l 2
 418 -139 347 -199 273 -199 c 0
 240 -199 206 -186 180 -163 c 1
 179 -161 l 1
 213 -89 l 1
 215 -90 l 1
 233 -104 255 -112 273 -112 c 0
 308 -112 331 -70 331 -4 c 2
 331 532 l 1xf1
375 641 m 0
 344 641 321 667 321 698 c 0
 321 729 344 754 375 754 c 0
 406 754 431 729 431 698 c 0xf2
 431 667 406 641 375 641 c 0
EndSplineSet
EndChar

StartChar: Jcircumflex
Encoding: 308 308 243
Width: 495
GlyphClass: 2
Flags: MW
HStem: -5 80<210.5 267.5 210.5 287.5> 680 20G<344 428 428 428> 761 146<260 455 260 455 367 562 367 482>
VStem: 260 302<761 761> 344 84<211 217 217 700>
LayerCount: 2
Fore
SplineSet
562 761 m 1x30
 482 761 l 1
 411 857 l 1
 340 761 l 1
 260 761 l 1
 367 907 l 1
 455 907 l 1
 562 761 l 1x30
344 700 m 1xc8
 428 700 l 1
 428 217 l 2
 428 76 343 -5 232 -5 c 0
 163 -5 93 32 41 96 c 1
 39 98 l 1
 104 156 l 1
 106 154 l 1
 152 102 187 75 234 75 c 0
 301 75 344 131 344 211 c 2
 344 700 l 1xc8
EndSplineSet
Position2: "'cpsp' Capital Spacing lookup 0 subtable" dx=5 dy=0 dh=10 dv=0
EndChar

StartChar: jcircumflex
Encoding: 309 309 244
Width: 260
GlyphClass: 2
Flags: MW
HStem: -199 87<36.5 68.5 36.5 90> 512 20G<119 206 206 206> 594 146<-12 183 -12 183 95 290 95 210>
VStem: -12 302<594 594> 119 87<-4 532>
LayerCount: 2
Fore
SplineSet
290 594 m 1x30
 210 594 l 1
 139 690 l 1
 68 594 l 1
 -12 594 l 1
 95 740 l 1
 183 740 l 1
 290 594 l 1x30
119 532 m 1xc8
 206 532 l 1
 206 -12 l 2
 206 -139 133 -199 47 -199 c 0
 6 -199 -34 -186 -65 -163 c 1
 -67 -161 l 1
 -26 -89 l 1
 -24 -90 l 2
 -2 -104 26 -112 47 -112 c 0
 90 -112 119 -70 119 -4 c 2
 119 532 l 1xc8
EndSplineSet
EndChar

StartChar: Kcommaaccent
Encoding: 310 310 245
Width: 643
GlyphClass: 2
Flags: MW
HStem: -254 208<277.5 283 219 312.5> 0 21G<58 58 58 141 487 487 487 594> 680 20G<58 141 141 141 468 580 580 580>
VStem: 58 83<0 140 262 700> 231 128<-123 -94>
AnchorPoint: "Anchor-0" 353 0 basechar 0
LayerCount: 2
Fore
SplineSet
296 -46 m 0
 329 -46 359 -72 359 -113 c 0
 359 -133 352 -150 341 -166 c 2
 283 -254 l 1
 219 -254 l 1
 257 -166 l 1
 239 -153 231 -134 231 -113 c 0
 231 -75 259 -46 296 -46 c 0
58 0 m 1
 58 700 l 1
 141 700 l 1
 141 262 l 1
 468 700 l 1
 580 700 l 1
 338 401 l 1
 594 0 l 1
 487 0 l 1
 289 338 l 1
 141 140 l 1
 141 0 l 1
 58 0 l 1
EndSplineSet
Position2: "'cpsp' Capital Spacing lookup 0 subtable" dx=5 dy=0 dh=10 dv=0
EndChar

StartChar: kcedilla
Encoding: 311 311 246
Width: 553
GlyphClass: 2
Flags: MW
HStem: -254 208<60.5 66 2 95.5> 0 21G<58 143 58 58 401 503 401 401> 512 20G<380 489 489 489> 722 20G<58 143 143 143>
VStem: 14 128<-123 -94> 58 85<0 116 228 742>
AnchorPoint: "Anchor-0" 123 0 basechar 0
LayerCount: 2
Fore
SplineSet
79 -46 m 0x88
 112 -46 142 -72 142 -113 c 0
 142 -133 135 -150 124 -166 c 2
 66 -254 l 1
 2 -254 l 1
 40 -166 l 1
 22 -153 14 -134 14 -113 c 0
 14 -75 42 -46 79 -46 c 0x88
225 333 m 1x74
 380 532 l 1
 489 532 l 1
 310 326 l 1
 503 0 l 1
 401 0 l 1
 261 266 l 1
 143 116 l 1
 143 0 l 1
 58 0 l 1
 58 742 l 1
 143 742 l 1
 143 228 l 1
 224 331 l 1
 223 333 l 1
 225 333 l 1x74
EndSplineSet
EndChar

StartChar: kgreenlandic
Encoding: 312 312 247
Width: 535
GlyphClass: 2
Flags: MW
HStem: 0 21G<68 158 68 68 412 514 412 412> 512 20G<68 158 158 158 383 500 500 500>
VStem: 68 90<0 120 244 532>
AnchorPoint: "Anchor-0" 293 0 basechar 0
LayerCount: 2
Fore
SplineSet
158 244 m 1
 383 532 l 1
 500 532 l 1
 321 326 l 1
 514 0 l 1
 412 0 l 1
 272 265 l 1
 158 120 l 1
 158 0 l 1
 68 0 l 1
 68 532 l 1
 158 532 l 1
 158 244 l 1
EndSplineSet
EndChar

StartChar: Lacute
Encoding: 313 313 248
Width: 507
GlyphClass: 2
Flags: MW
HStem: 0 76<146 445 146 445> 680 20G<58 146 146 146> 761 154<60 170 60 170>
VStem: 58 88<76 700 76 700 76 700> 60 193<761 872>
AnchorPoint: "Anchor-0" 290 0 basechar 0
LayerCount: 2
Fore
SplineSet
253 872 m 1x28
 138 761 l 1
 60 761 l 1
 170 915 l 1
 253 872 l 1x28
146 700 m 1xd0
 146 76 l 1
 445 76 l 1
 445 0 l 1
 58 0 l 1
 58 700 l 1
 146 700 l 1xd0
EndSplineSet
Position2: "'cpsp' Capital Spacing lookup 0 subtable" dx=5 dy=0 dh=10 dv=0
EndChar

StartChar: lacute
Encoding: 314 314 249
Width: 250
GlyphClass: 2
Flags: MW
HStem: 0 21G<70 160 70 70> 722 20G<70 160 160 160> 800 154<78 188 78 188>
VStem: 70 90<0 742 0 742> 78 193<800 911>
AnchorPoint: "Anchor-0" 148 0 basechar 0
LayerCount: 2
Fore
SplineSet
271 911 m 1x28
 156 800 l 1
 78 800 l 1
 188 954 l 1
 271 911 l 1x28
160 742 m 1xd0
 160 0 l 1
 70 0 l 1
 70 742 l 1
 160 742 l 1xd0
EndSplineSet
EndChar

StartChar: Lcommaaccent
Encoding: 315 315 250
Width: 507
GlyphClass: 2
Flags: MW
HStem: -254 208<235.5 241 177 270.5> 0 76<146 445 146 445> 680 20G<58 146 146 146>
VStem: 58 88<76 700 76 700 76 700> 189 128<-123 -94>
AnchorPoint: "Anchor-0" 290 0 basechar 0
LayerCount: 2
Fore
SplineSet
254 -46 m 0
 287 -46 317 -72 317 -113 c 0
 317 -133 310 -150 299 -166 c 2
 241 -254 l 1
 177 -254 l 1
 215 -166 l 1
 197 -153 189 -134 189 -113 c 0
 189 -75 217 -46 254 -46 c 0
146 700 m 1
 146 76 l 1
 445 76 l 1
 445 0 l 1
 58 0 l 1
 58 700 l 1
 146 700 l 1
EndSplineSet
Position2: "'cpsp' Capital Spacing lookup 0 subtable" dx=5 dy=0 dh=10 dv=0
EndChar

StartChar: lcommaaccent
Encoding: 316 316 251
Width: 250
GlyphClass: 2
Flags: MW
HStem: -254 208<114.5 120 56 149.5> 0 21G<70 160 70 70> 722 20G<70 160 160 160>
VStem: 68 128<-123 -94> 70 90<0 742 0 742>
AnchorPoint: "Anchor-0" 148 0 basechar 0
LayerCount: 2
Fore
SplineSet
133 -46 m 0x90
 166 -46 196 -72 196 -113 c 0
 196 -133 189 -150 178 -166 c 2
 120 -254 l 1
 56 -254 l 1
 94 -166 l 1
 76 -153 68 -134 68 -113 c 0
 68 -75 96 -46 133 -46 c 0x90
160 742 m 1x68
 160 0 l 1
 70 0 l 1
 70 742 l 1
 160 742 l 1x68
EndSplineSet
EndChar

StartChar: Lcaron
Encoding: 317 317 252
Width: 455
GlyphClass: 2
Flags: MW
HStem: 0 76<146 445 146 445> 530 176<252.5 265 205 283.5> 680 20G<58 146 146 146>
VStem: 58 88<76 700 76 700 76 700> 211 113<643 664.5 643 664.5>
AnchorPoint: "Anchor-0" 290 0 basechar 0
LayerCount: 2
Fore
SplineSet
315 618 m 2x48
 265 530 l 1
 205 530 l 1
 245 597 l 1
 225 606 211 626 211 649 c 0
 211 680 237 706 268 706 c 0
 299 706 324 680 324 649 c 0
 324 637 320 626 315 618 c 2x48
146 700 m 1xb0
 146 76 l 1
 445 76 l 1
 445 0 l 1
 58 0 l 1
 58 700 l 1
 146 700 l 1xb0
EndSplineSet
Position2: "'cpsp' Capital Spacing lookup 0 subtable" dx=5 dy=0 dh=10 dv=0
EndChar

StartChar: lcaron
Encoding: 318 318 253
Width: 219
GlyphClass: 2
Flags: MW
HStem: 0 21G<70 160 70 70> 569 176<256.5 269 209 287.5> 722 20G<70 160 160 160>
VStem: 70 90<0 742 0 742> 215 113<682 703.5 682 703.5>
AnchorPoint: "Anchor-0" 148 0 basechar 0
LayerCount: 2
Fore
SplineSet
319 657 m 2x48
 269 569 l 1
 209 569 l 1
 249 636 l 1
 229 645 215 665 215 688 c 0
 215 719 241 745 272 745 c 0
 303 745 328 719 328 688 c 0
 328 676 324 665 319 657 c 2x48
160 742 m 1xb0
 160 0 l 1
 70 0 l 1
 70 742 l 1
 160 742 l 1xb0
EndSplineSet
EndChar

StartChar: Ldot
Encoding: 319 319 254
Width: 507
GlyphClass: 2
Flags: MW
HStem: 0 76<146 445 146 445> 286 131<239.5 274.5> 680 20G<58 146 146 146>
VStem: 58 88<76 700 76 700 76 700> 195 125<332.5 370>
AnchorPoint: "Anchor-0" 290 0 basechar 0
LayerCount: 2
Fore
SplineSet
257 417 m 0
 292 417 320 389 320 351 c 0
 320 314 292 286 257 286 c 0
 222 286 195 314 195 351 c 0
 195 389 222 417 257 417 c 0
146 700 m 1
 146 76 l 1
 445 76 l 1
 445 0 l 1
 58 0 l 1
 58 700 l 1
 146 700 l 1
EndSplineSet
Ligature2: "Ligature Substitution lookup 13 subtable" L periodcentered
Position2: "'cpsp' Capital Spacing lookup 0 subtable" dx=5 dy=0 dh=10 dv=0
EndChar

StartChar: ldot
Encoding: 320 320 255
Width: 384
GlyphClass: 2
Flags: MW
HStem: 0 21G<70 160 70 70> 222 131<343.5 378.5> 722 20G<70 160 160 160>
VStem: 70 90<0 742 0 742> 299 125<268.5 306>
AnchorPoint: "Anchor-0" 148 0 basechar 0
LayerCount: 2
Fore
SplineSet
361 353 m 0
 396 353 424 325 424 287 c 0
 424 250 396 222 361 222 c 0
 326 222 299 250 299 287 c 0
 299 325 326 353 361 353 c 0
160 742 m 1
 160 0 l 1
 70 0 l 1
 70 742 l 1
 160 742 l 1
EndSplineSet
Ligature2: "Ligature Substitution lookup 13 subtable" l periodcentered
EndChar

StartChar: Lslash
Encoding: 321 321 256
Width: 512
GlyphClass: 2
Flags: MW
HStem: 0 76<198 496 198 496> 514 20G<355 355> 680 20G<109 197 197 197>
VStem: 109 88<0 391 365 391 478 700>
AnchorPoint: "Anchor-0" 308 0 basechar 0
LayerCount: 2
Fore
SplineSet
109 365 m 1
 26 341 l 1
 5 421 l 1
 109 452 l 1
 109 700 l 1
 197 700 l 1
 197 478 l 1
 355 534 l 1
 372 453 l 1
 197 391 l 1
 198 76 l 1
 496 76 l 1
 496 0 l 1
 109 0 l 1
 109 365 l 1
EndSplineSet
Position2: "'cpsp' Capital Spacing lookup 0 subtable" dx=5 dy=0 dh=10 dv=0
EndChar

StartChar: lslash
Encoding: 322 322 257
Width: 323
GlyphClass: 2
Flags: MW
HStem: 0 21G<115 235 115 115> 513 20G<329 329> 722 20G<110 235 235 235>
VStem: 110 125<385 385 0 505 505 742>
AnchorPoint: "Anchor-0" 165 0 basechar 0
LayerCount: 2
Fore
SplineSet
350 452 m 1
 235 418 l 1
 235 0 l 1
 115 0 l 1
 110 385 l 1
 4 353 l 1
 -17 433 l 1
 110 471 l 1
 110 742 l 1
 235 742 l 1
 235 505 l 1
 329 533 l 1
 350 452 l 1
EndSplineSet
EndChar

StartChar: Nacute
Encoding: 323 323 258
Width: 646
GlyphClass: 2
Flags: MW
HStem: 0 21G<58 146 58 58 473 570 473 473> 680 20G<58 155 155 155 484 570 570 570> 761 154<273 383 273 383>
VStem: 58 88<0 577 0 700> 273 193<761 872> 484 86<122 700 0 700>
AnchorPoint: "Anchor-0" 396 0 basechar 0
LayerCount: 2
Fore
SplineSet
466 872 m 1
 351 761 l 1
 273 761 l 1
 383 915 l 1
 466 872 l 1
570 700 m 1
 570 0 l 1
 473 0 l 1
 146 577 l 1
 146 0 l 1
 58 0 l 1
 58 700 l 1
 155 700 l 1
 484 122 l 1
 484 700 l 1
 570 700 l 1
EndSplineSet
Position2: "'cpsp' Capital Spacing lookup 0 subtable" dx=5 dy=0 dh=10 dv=0
EndChar

StartChar: nacute
Encoding: 324 324 259
Width: 542
GlyphClass: 2
Flags: MW
HStem: 0 21G<57 145 57 57 384 471 384 384> 457 79<262 300> 594 154<223 333 223 333>
VStem: 57 88<0 307 457 532> 223 193<594 705> 384 87<0 323 323 330 0 362>
AnchorPoint: "Anchor-0" 336 0 basechar 0
LayerCount: 2
Fore
SplineSet
416 705 m 1x28
 301 594 l 1
 223 594 l 1
 333 748 l 1
 416 705 l 1x28
145 457 m 1xd4
 171 507 229 536 295 536 c 0
 395 536 471 457 471 330 c 2
 471 0 l 1
 384 0 l 1
 384 323 l 2
 384 401 334 457 266 457 c 0
 191 457 145 391 145 307 c 2
 145 0 l 1
 57 0 l 1
 57 532 l 1
 145 532 l 1
 145 457 l 1xd4
EndSplineSet
EndChar

StartChar: Ncommaaccent
Encoding: 325 325 260
Width: 646
GlyphClass: 2
Flags: MW
HStem: -254 208<320.5 326 262 355.5> 0 21G<58 146 58 58 473 570 473 473> 680 20G<58 155 155 155 484 570 570 570>
VStem: 58 88<0 577 0 700> 274 128<-123 -94> 484 86<122 700 0 700>
AnchorPoint: "Anchor-0" 396 0 basechar 0
LayerCount: 2
Fore
SplineSet
339 -46 m 0
 372 -46 402 -72 402 -113 c 0
 402 -133 395 -150 384 -166 c 2
 326 -254 l 1
 262 -254 l 1
 300 -166 l 1
 282 -153 274 -134 274 -113 c 0
 274 -75 302 -46 339 -46 c 0
570 700 m 1
 570 0 l 1
 473 0 l 1
 146 577 l 1
 146 0 l 1
 58 0 l 1
 58 700 l 1
 155 700 l 1
 484 122 l 1
 484 700 l 1
 570 700 l 1
EndSplineSet
Position2: "'cpsp' Capital Spacing lookup 0 subtable" dx=5 dy=0 dh=10 dv=0
EndChar

StartChar: ncommaaccent
Encoding: 326 326 261
Width: 542
GlyphClass: 2
Flags: MW
HStem: -254 208<253.5 259 195 288.5> 0 21G<57 145 57 57 384 471 384 384> 457 79<262 300>
VStem: 57 88<0 307 457 532> 207 128<-123 -94> 384 87<0 323 323 330 0 362>
AnchorPoint: "Anchor-0" 336 0 basechar 0
LayerCount: 2
Fore
SplineSet
272 -46 m 0
 305 -46 335 -72 335 -113 c 0
 335 -133 328 -150 317 -166 c 2
 259 -254 l 1
 195 -254 l 1
 233 -166 l 1
 215 -153 207 -134 207 -113 c 0
 207 -75 235 -46 272 -46 c 0
145 457 m 1
 171 507 229 536 295 536 c 0
 395 536 471 457 471 330 c 2
 471 0 l 1
 384 0 l 1
 384 323 l 2
 384 401 334 457 266 457 c 0
 191 457 145 391 145 307 c 2
 145 0 l 1
 57 0 l 1
 57 532 l 1
 145 532 l 1
 145 457 l 1
EndSplineSet
EndChar

StartChar: Ncaron
Encoding: 327 327 262
Width: 646
GlyphClass: 2
Flags: MW
HStem: 0 21G<58 146 58 58 473 570 473 473> 680 20G<58 155 155 155 484 570 570 570> 760 156<165 373 165 277>
VStem: 58 88<0 577 0 700> 165 320<916 916> 484 86<122 700 0 700>
AnchorPoint: "Anchor-0" 396 0 basechar 0
LayerCount: 2
Fore
SplineSet
165 916 m 1x28
 253 916 l 1
 325 814 l 1
 397 916 l 1
 485 916 l 1
 373 760 l 1
 277 760 l 1
 165 916 l 1x28
570 700 m 1xd4
 570 0 l 1
 473 0 l 1
 146 577 l 1
 146 0 l 1
 58 0 l 1
 58 700 l 1
 155 700 l 1
 484 122 l 1
 484 700 l 1
 570 700 l 1xd4
EndSplineSet
Position2: "'cpsp' Capital Spacing lookup 0 subtable" dx=5 dy=0 dh=10 dv=0
EndChar

StartChar: ncaron
Encoding: 328 328 263
Width: 542
GlyphClass: 2
Flags: MW
HStem: 0 21G<57 145 57 57 384 471 384 384> 457 79<262 300> 593 156<115 323 115 227>
VStem: 57 88<0 307 457 532> 115 320<749 749> 384 87<0 323 323 330 0 362>
AnchorPoint: "Anchor-0" 336 0 basechar 0
LayerCount: 2
Fore
SplineSet
115 749 m 1x28
 203 749 l 1
 275 647 l 1
 347 749 l 1
 435 749 l 1
 323 593 l 1
 227 593 l 1
 115 749 l 1x28
145 457 m 1xd4
 171 507 229 536 295 536 c 0
 395 536 471 457 471 330 c 2
 471 0 l 1
 384 0 l 1
 384 323 l 2
 384 401 334 457 266 457 c 0
 191 457 145 391 145 307 c 2
 145 0 l 1
 57 0 l 1
 57 532 l 1
 145 532 l 1
 145 457 l 1xd4
EndSplineSet
EndChar

StartChar: Omacron
Encoding: 332 332 264
Width: 741
GlyphClass: 2
Flags: MW
HStem: -5 78<302 424 302 447> 622 82<301.5 424> 770 78<234 494 234 494>
VStem: 48 88<273.5 426.5 273.5 450.5> 234 260<770 848 770 848> 593 83<273.5 426>
LayerCount: 2
Fore
SplineSet
494 770 m 1
 234 770 l 1
 234 848 l 1
 494 848 l 1
 494 770 l 1
593 350 m 0
 593 502 485 622 363 622 c 0
 240 622 136 503 136 350 c 0
 136 197 241 73 363 73 c 0
 485 73 593 197 593 350 c 0
48 350 m 0
 48 551 192 704 362 704 c 0
 532 704 676 550 676 350 c 0
 676 150 532 -5 362 -5 c 0
 192 -5 48 150 48 350 c 0
EndSplineSet
Position2: "'cpsp' Capital Spacing lookup 0 subtable" dx=5 dy=0 dh=10 dv=0
EndChar

StartChar: omacron
Encoding: 333 333 265
Width: 575
GlyphClass: 2
Flags: MW
HStem: -6 85<239 325 239 346.5> 451 85<239 325> 603 78<154 414 154 414>
VStem: 44 83<213 317 213 342.5> 154 260<603 681 603 681> 437 83<213 317>
LayerCount: 2
Fore
SplineSet
414 603 m 1
 154 603 l 1
 154 681 l 1
 414 681 l 1
 414 603 l 1
282 -6 m 0
 155 -6 44 110 44 265 c 0
 44 420 153 536 282 536 c 0
 411 536 520 420 520 265 c 0
 520 110 411 -6 282 -6 c 0
282 451 m 0
 196 451 127 369 127 265 c 0
 127 161 196 79 282 79 c 0
 368 79 437 161 437 265 c 0
 437 369 368 451 282 451 c 0
EndSplineSet
EndChar

StartChar: Obreve
Encoding: 334 334 266
Width: 741
GlyphClass: 2
Flags: MW
HStem: -5 78<302 424 302 447> 622 82<301.5 424> 760 82<351 385 351 408.5> 888 20G<224 307 307 307 428 511 511 511>
VStem: 48 88<273.5 426.5 273.5 450.5> 224 83<905 908 905 908> 428 83<905 908 905 908> 593 83<273.5 426>
LayerCount: 2
Fore
SplineSet
428 908 m 1
 511 908 l 1
 511 905 l 2
 508 819 449 760 368 760 c 0
 287 760 227 819 224 905 c 2
 224 908 l 1
 307 908 l 1
 307 905 l 2
 309 868 334 842 368 842 c 0
 402 842 426 868 428 905 c 2
 428 908 l 1
593 350 m 0
 593 502 485 622 363 622 c 0
 240 622 136 503 136 350 c 0
 136 197 241 73 363 73 c 0
 485 73 593 197 593 350 c 0
48 350 m 0
 48 551 192 704 362 704 c 0
 532 704 676 550 676 350 c 0
 676 150 532 -5 362 -5 c 0
 192 -5 48 150 48 350 c 0
EndSplineSet
EndChar

StartChar: obreve
Encoding: 335 335 267
Width: 575
GlyphClass: 2
Flags: MW
HStem: -6 85<239 325 239 346.5> 451 85<239 325> 593 82<270 304 270 327.5> 721 20G<143 226 226 226 347 430 430 430>
VStem: 44 83<213 317 213 342.5> 143 83<738 741 738 741> 347 83<738 741 738 741> 437 83<213 317>
LayerCount: 2
Fore
SplineSet
347 741 m 1
 430 741 l 1
 430 738 l 2
 427 652 368 593 287 593 c 0
 206 593 146 652 143 738 c 2
 143 741 l 1
 226 741 l 1
 226 738 l 2
 228 701 253 675 287 675 c 0
 321 675 345 701 347 738 c 2
 347 741 l 1
282 -6 m 0
 155 -6 44 110 44 265 c 0
 44 420 153 536 282 536 c 0
 411 536 520 420 520 265 c 0
 520 110 411 -6 282 -6 c 0
282 451 m 0
 196 451 127 369 127 265 c 0
 127 161 196 79 282 79 c 0
 368 79 437 161 437 265 c 0
 437 369 368 451 282 451 c 0
EndSplineSet
EndChar

StartChar: Ohungarumlaut
Encoding: 336 336 268
Width: 741
GlyphClass: 2
Flags: MW
HStem: -5 78<302 424 302 447> 622 82<301.5 424> 760 160<251 337 251 337 337 472 337 407>
VStem: 48 88<273.5 426.5 273.5 450.5> 251 315<760 874> 593 83<273.5 426>
LayerCount: 2
Fore
SplineSet
566 874 m 1
 472 760 l 1
 407 760 l 1
 484 920 l 1
 566 874 l 1
410 874 m 1
 326 760 l 1
 251 760 l 1
 337 920 l 1
 410 874 l 1
593 350 m 0
 593 502 485 622 363 622 c 0
 240 622 136 503 136 350 c 0
 136 197 241 73 363 73 c 0
 485 73 593 197 593 350 c 0
48 350 m 0
 48 551 192 704 362 704 c 0
 532 704 676 550 676 350 c 0
 676 150 532 -5 362 -5 c 0
 192 -5 48 150 48 350 c 0
EndSplineSet
Position2: "'cpsp' Capital Spacing lookup 0 subtable" dx=5 dy=0 dh=10 dv=0
EndChar

StartChar: ohungarumlaut
Encoding: 337 337 269
Width: 575
GlyphClass: 2
Flags: MW
HStem: -6 85<239 325 239 346.5> 451 85<239 325> 593 160<170 256 170 256 256 391 256 326>
VStem: 44 83<213 317 213 342.5> 170 315<593 707> 437 83<213 317>
LayerCount: 2
Fore
SplineSet
485 707 m 1x28
 391 593 l 1
 326 593 l 1
 403 753 l 1
 485 707 l 1x28
329 707 m 1
 245 593 l 1
 170 593 l 1
 256 753 l 1
 329 707 l 1
282 -6 m 0xd4
 155 -6 44 110 44 265 c 0
 44 420 153 536 282 536 c 0
 411 536 520 420 520 265 c 0
 520 110 411 -6 282 -6 c 0xd4
282 451 m 0
 196 451 127 369 127 265 c 0
 127 161 196 79 282 79 c 0
 368 79 437 161 437 265 c 0
 437 369 368 451 282 451 c 0
EndSplineSet
EndChar

StartChar: OE
Encoding: 338 338 270
Width: 1014
GlyphClass: 2
Flags: MW
HStem: 0 72<257.5 446 343 446 343 966> 0 79<529 966 529 966> 310 80<529 914 529 914> 622 78<342 343 343 446>
VStem: 29 88<273.5 426.5 273.5 450.5> 446 83<79 310 390 622 622 622>
AnchorPoint: "Anchor-0" 772 0 basechar 0
LayerCount: 2
Fore
SplineSet
343 72 m 2xbc
 446 72 l 1
 446 622 l 1
 343 622 l 2
 221 622 117 503 117 350 c 0
 117 197 222 72 343 72 c 2xbc
954 700 m 1
 954 625 l 1
 529 625 l 1
 529 390 l 1
 914 390 l 1
 914 310 l 1
 529 310 l 1
 529 79 l 1
 966 79 l 1
 966 0 l 1x7c
 342 0 l 2
 173 0 29 150 29 350 c 0
 29 551 173 700 342 700 c 2
 954 700 l 1
EndSplineSet
Position2: "'cpsp' Capital Spacing lookup 0 subtable" dx=5 dy=0 dh=10 dv=0
EndChar

StartChar: oe
Encoding: 339 339 271
Width: 945
GlyphClass: 2
Flags: MW
HStem: -6 82<227.5 311> 228 70<512 790 511 873 512 512> 454 82<227.5 311 206 312.5>
VStem: 33 83<212 318 212 342.5> 424 88<228 228 228 318> 790 86<298 300 300 332>
LayerCount: 2
Fore
SplineSet
655 458 m 0
 578 458 522 390 511 298 c 1
 790 298 l 1
 790 300 l 2
 790 364 746 458 655 458 c 0
270 454 m 0
 185 454 116 371 116 265 c 0
 116 159 185 76 270 76 c 0
 355 76 424 159 424 265 c 0
 424 371 355 454 270 454 c 0
876 265 m 0
 876 250.017578125 876.765625 235.530273438 873 228 c 1
 512 228 l 1
 528 139 600 73 691 73 c 0
 770 73 837 111 867 147 c 1
 869 149 l 1
 923 89 l 1
 921 88 l 1
 870 30 789 -6 700 -6 c 0
 590 -6 511 46 466 118 c 1
 420 42 352 -6 270 -6 c 0
 144 -6 33 110 33 265 c 0
 33 420 142 536 270 536 c 0
 352 536 420 488 466 413 c 1
 509 484 571 536 655 536 c 0
 792 536 876 400 876 265 c 0
EndSplineSet
EndChar

StartChar: Racute
Encoding: 340 340 272
Width: 613
GlyphClass: 2
Flags: MW
HStem: 0 21G<58 58 58 141 458 458 458 558> 281 74<141 303 141 327> 622 78<141 327 141 141> 761 154<138 248 138 248>
VStem: 58 83<0 281 0 355 355 622> 138 193<761 872> 461 83<436.5 521>
AnchorPoint: "Anchor-0" 360 0 basechar 0
LayerCount: 2
Fore
SplineSet
331 872 m 1x14
 216 761 l 1
 138 761 l 1
 248 915 l 1
 331 872 l 1x14
58 0 m 1xea
 58 700 l 1
 327 700 l 2
 454 700 544 618 544 485 c 0
 544 368 478 302 382 284 c 1
 558 0 l 1
 458 0 l 1
 303 281 l 1
 141 281 l 1
 141 0 l 1
 58 0 l 1xea
327 622 m 2
 141 622 l 1
 141 355 l 1
 327 355 l 2
 406 355 461 390 461 483 c 0
 461 559 430 622 327 622 c 2
EndSplineSet
Position2: "'cpsp' Capital Spacing lookup 0 subtable" dx=5 dy=0 dh=10 dv=0
EndChar

StartChar: racute
Encoding: 341 341 273
Width: 423
GlyphClass: 2
Flags: MW
HStem: 0 21G<57 137 57 57> 447 89<289.5 360 358 360 358 360> 594 154<168 278 168 278>
VStem: 57 80<0 293 442 532> 168 193<594 705>
AnchorPoint: "Anchor-0" 140 0 basechar 0
LayerCount: 2
Fore
SplineSet
361 705 m 1
 246 594 l 1
 168 594 l 1
 278 748 l 1
 361 705 l 1
57 532 m 1
 137 532 l 1
 137 442 l 1
 171 501 258 536 358 536 c 2
 360 536 l 1
 360 447 l 1
 341 447 l 2
 238 447 137 394 137 293 c 2
 137 0 l 1
 57 0 l 1
 57 532 l 1
EndSplineSet
EndChar

StartChar: Rcommaaccent
Encoding: 342 342 274
Width: 613
GlyphClass: 2
Flags: MW
HStem: -254 208<287.5 293 229 322.5> 0 21G<58 58 58 141 458 458 458 558> 281 74<141 303 141 327> 622 78<141 327 141 141>
VStem: 58 83<0 281 0 355 355 622> 241 128<-123 -94> 461 83<436.5 521>
AnchorPoint: "Anchor-0" 341 0 basechar 0
LayerCount: 2
Fore
SplineSet
306 -46 m 0
 339 -46 369 -72 369 -113 c 0
 369 -133 362 -150 351 -166 c 2
 293 -254 l 1
 229 -254 l 1
 267 -166 l 1
 249 -153 241 -134 241 -113 c 0
 241 -75 269 -46 306 -46 c 0
58 0 m 1
 58 700 l 1
 327 700 l 2
 454 700 544 618 544 485 c 0
 544 368 478 302 382 284 c 1
 558 0 l 1
 458 0 l 1
 303 281 l 1
 141 281 l 1
 141 0 l 1
 58 0 l 1
327 622 m 2
 141 622 l 1
 141 355 l 1
 327 355 l 2
 406 355 461 390 461 483 c 0
 461 559 430 622 327 622 c 2
EndSplineSet
Position2: "'cpsp' Capital Spacing lookup 0 subtable" dx=5 dy=0 dh=10 dv=0
EndChar

StartChar: rcommaaccent
Encoding: 343 343 275
Width: 423
GlyphClass: 2
Flags: MW
HStem: -254 208<99.5 105 41 134.5> 0 21G<57 137 57 57> 447 89<289.5 360 358 360 358 360>
VStem: 53 128<-123 -94> 57 80<0 293 442 532>
AnchorPoint: "Anchor-0" 140 0 basechar 0
LayerCount: 2
Fore
SplineSet
118 -46 m 0x90
 151 -46 181 -72 181 -113 c 0
 181 -133 174 -150 163 -166 c 2
 105 -254 l 1
 41 -254 l 1
 79 -166 l 1
 61 -153 53 -134 53 -113 c 0
 53 -75 81 -46 118 -46 c 0x90
57 532 m 1x68
 137 532 l 1
 137 442 l 1
 171 501 258 536 358 536 c 2
 360 536 l 1
 360 447 l 1
 341 447 l 2
 238 447 137 394 137 293 c 2
 137 0 l 1
 57 0 l 1
 57 532 l 1x68
EndSplineSet
EndChar

StartChar: Rcaron
Encoding: 344 344 276
Width: 613
GlyphClass: 2
Flags: MW
HStem: 0 21G<58 58 58 141 458 458 458 558> 281 74<141 303 141 327> 622 78<141 327 141 141> 760 156<30 238 30 142>
VStem: 30 320<916 916> 58 83<0 281 0 355 355 622> 461 83<436.5 521>
AnchorPoint: "Anchor-0" 341 0 basechar 0
LayerCount: 2
Fore
SplineSet
30 916 m 1x18
 118 916 l 1
 190 814 l 1
 262 916 l 1
 350 916 l 1
 238 760 l 1
 142 760 l 1
 30 916 l 1x18
58 0 m 1xe6
 58 700 l 1
 327 700 l 2
 454 700 544 618 544 485 c 0
 544 368 478 302 382 284 c 1
 558 0 l 1
 458 0 l 1
 303 281 l 1
 141 281 l 1
 141 0 l 1
 58 0 l 1xe6
327 622 m 2
 141 622 l 1
 141 355 l 1
 327 355 l 2
 406 355 461 390 461 483 c 0
 461 559 430 622 327 622 c 2
EndSplineSet
Position2: "'cpsp' Capital Spacing lookup 0 subtable" dx=5 dy=0 dh=10 dv=0
EndChar

StartChar: rcaron
Encoding: 345 345 277
Width: 423
GlyphClass: 2
Flags: MW
HStem: 0 21G<57 137 57 57> 447 89<289.5 360 358 360 358 360> 593 156<60 268 60 172>
VStem: 57 80<0 293 442 532> 60 320<749 749>
AnchorPoint: "Anchor-0" 140 0 basechar 0
LayerCount: 2
Fore
SplineSet
60 749 m 1x28
 148 749 l 1
 220 647 l 1
 292 749 l 1
 380 749 l 1
 268 593 l 1
 172 593 l 1
 60 749 l 1x28
57 532 m 1xd0
 137 532 l 1
 137 442 l 1
 171 501 258 536 358 536 c 2
 360 536 l 1
 360 447 l 1
 341 447 l 2
 238 447 137 394 137 293 c 2
 137 0 l 1
 57 0 l 1
 57 532 l 1xd0
EndSplineSet
EndChar

StartChar: Sacute
Encoding: 346 346 278
Width: 584
GlyphClass: 2
Flags: MW
HStem: -9 83<260 333.5 260 358> 622 83<262 327.5> 763 154<259 369 259 369>
VStem: 84 83<472.5 548 472.5 567> 259 193<763 874> 441 87<154 189 131 230>
AnchorPoint: "Anchor-0" 316 0 basechar 0
LayerCount: 2
Fore
SplineSet
452 874 m 1x28
 337 763 l 1
 259 763 l 1
 369 917 l 1
 452 874 l 1x28
84 514 m 0xd4
 84 620 181 705 305 705 c 0
 379 705 461 671 526 628 c 1
 528 627 l 1
 487 551 l 1
 484 552 l 1
 410 598 357 622 298 622 c 0
 226 622 167 585 167 511 c 0
 167 434 248 407 314 388 c 0
 401 362 537 339 528 189 c 1
 528 73 421 -9 295 -9 c 0
 205 -9 111 41 39 107 c 1
 38 108 l 1
 88 179 l 1
 91 177 l 1
 162 115 230 74 290 74 c 0
 377 74 441 116 441 192 c 0
 441 268 356 296 290 315 c 0
 207 339 84 370 84 514 c 0xd4
EndSplineSet
Position2: "'cpsp' Capital Spacing lookup 0 subtable" dx=5 dy=0 dh=10 dv=0
EndChar

StartChar: sacute
Encoding: 347 347 279
Width: 486
GlyphClass: 2
Flags: MW
HStem: -11 76<211 271 211 284> 461 76<215.5 261> 595 154<204 314 204 314>
VStem: 72 84<362 417.5 362 436.5> 204 193<595 706> 348 82<120 174.5>
AnchorPoint: "Anchor-0" 234 0 basechar 0
LayerCount: 2
Fore
SplineSet
397 706 m 1x28
 282 595 l 1
 204 595 l 1
 314 749 l 1
 397 706 l 1x28
72 382 m 0xd4
 72 491 166 537 246 537 c 0
 301 537 367 517 415 483 c 1
 416 481 l 1
 382 412 l 1
 380 413 l 1
 333 442 284 461 238 461 c 0
 193 461 156 445 156 390 c 0
 156 334 210 318 253 304 c 0
 322 282 430 254 430 155 c 0
 430 45 330 -11 238 -11 c 0
 173 -11 95 23 41 71 c 1
 39 72 l 1
 83 137 l 1
 85 135 l 2
 131 94 179 65 243 65 c 0
 299 65 348 94 348 146 c 0
 348 203 276 216 231 231 c 0
 165 253 72 288 72 382 c 0xd4
EndSplineSet
EndChar

StartChar: Scircumflex
Encoding: 348 348 280
Width: 584
GlyphClass: 2
Flags: MW
HStem: -9 83<260 333.5 260 358> 622 83<262 327.5> 763 146<158 353 158 353 265 460 265 380>
VStem: 84 83<472.5 548 472.5 567> 158 302<763 763> 441 87<154 189 131 230>
LayerCount: 2
Fore
SplineSet
460 763 m 1x28
 380 763 l 1
 309 859 l 1
 238 763 l 1
 158 763 l 1
 265 909 l 1
 353 909 l 1
 460 763 l 1x28
84 514 m 0xd4
 84 620 181 705 305 705 c 0
 379 705 461 671 526 628 c 1
 528 627 l 1
 487 551 l 1
 484 552 l 1
 410 598 357 622 298 622 c 0
 226 622 167 585 167 511 c 0
 167 434 248 407 314 388 c 0
 401 362 537 339 528 189 c 1
 528 73 421 -9 295 -9 c 0
 205 -9 111 41 39 107 c 1
 38 108 l 1
 88 179 l 1
 91 177 l 1
 162 115 230 74 290 74 c 0
 377 74 441 116 441 192 c 0
 441 268 356 296 290 315 c 0
 207 339 84 370 84 514 c 0xd4
EndSplineSet
EndChar

StartChar: scircumflex
Encoding: 349 349 281
Width: 486
GlyphClass: 2
Flags: MW
HStem: -11 76<211 271 211 284> 461 76<215.5 261> 595 146<103 298 103 298 210 405 210 325>
VStem: 72 84<362 417.5 362 436.5> 103 302<595 595> 348 82<120 174.5>
LayerCount: 2
Fore
SplineSet
405 595 m 1x28
 325 595 l 1
 254 691 l 1
 183 595 l 1
 103 595 l 1
 210 741 l 1
 298 741 l 1
 405 595 l 1x28
72 382 m 0xd4
 72 491 166 537 246 537 c 0
 301 537 367 517 415 483 c 1
 416 481 l 1
 382 412 l 1
 380 413 l 1
 333 442 284 461 238 461 c 0
 193 461 156 445 156 390 c 0
 156 334 210 318 253 304 c 0
 322 282 430 254 430 155 c 0
 430 45 330 -11 238 -11 c 0
 173 -11 95 23 41 71 c 1
 39 72 l 1
 83 137 l 1
 85 135 l 2
 131 94 179 65 243 65 c 0
 299 65 348 94 348 146 c 0
 348 203 276 216 231 231 c 0
 165 253 72 288 72 382 c 0xd4
EndSplineSet
EndChar

StartChar: Scedilla
Encoding: 350 350 282
Width: 584
GlyphClass: 2
Flags: MW
HStem: -238 67<241 264 239.309 288> -98 99<253 264> -9 83<260 333.5 260 358> 622 83<262 327.5>
VStem: 84 83<472.5 548> 294 73<-142.5 -124.5> 441 87<154 189 131 230>
AnchorPoint: "Anchor-0" 316 0 basechar 0
LayerCount: 2
Fore
SplineSet
191 -150 m 1xc4
 209.642578125 -162.428710938 228.6171875 -171 250 -171 c 0
 278 -171 294 -152 294 -133 c 0
 294 -116 280 -98 248 -98 c 0
 235.190429688 -98 219.83984375 -99.6640625 209 -104 c 1
 253 1 l 1
 327 1 l 1
 298 -60 l 1
 339 -69 367 -97 367 -141 c 0
 367 -201 318 -238 258 -238 c 0
 224 -238 192 -227 169 -210 c 1
 167 -209 l 1
 191 -150 l 1xc4
84 514 m 0x3a
 84 620 181 705 305 705 c 0
 379 705 461 671 526 628 c 1
 528 627 l 1
 487 551 l 1
 484 552 l 1
 410 598 357 622 298 622 c 0
 226 622 167 585 167 511 c 0
 167 434 248 407 314 388 c 0
 401 362 537 339 528 189 c 1
 528 73 421 -9 295 -9 c 0
 205 -9 111 41 39 107 c 1
 38 108 l 1
 88 179 l 1
 91 177 l 1
 162 115 230 74 290 74 c 0
 377 74 441 116 441 192 c 0
 441 268 356 296 290 315 c 0
 207 339 84 370 84 514 c 0x3a
EndSplineSet
Substitution2: "'locl' Localized Forms in Latin lookup 3 subtable" Scommaaccent
Substitution2: "'locl' Localized Forms in Latin lookup 2 subtable" Scommaaccent
Substitution2: "'aalt' Access All Alternates lookup 0 subtable" Scommaaccent
Position2: "'cpsp' Capital Spacing lookup 0 subtable" dx=5 dy=0 dh=10 dv=0
EndChar

StartChar: scedilla
Encoding: 351 351 283
Width: 486
GlyphClass: 2
Flags: MW
HStem: -240 67<187 210 185.309 234> -100 99<199 210> -11 76<211 271 211 284> 461 76<215.5 261>
VStem: 72 84<362 417.5 362 436.5> 240 73<-144.5 -126.5> 348 82<120 174.5>
AnchorPoint: "Anchor-0" 234 0 basechar 0
LayerCount: 2
Fore
SplineSet
137 -152 m 1xc4
 155.642578125 -164.428710938 174.6171875 -173 196 -173 c 0
 224 -173 240 -154 240 -135 c 0
 240 -118 226 -100 194 -100 c 0
 181.190429688 -100 165.83984375 -101.6640625 155 -106 c 1
 199 -1 l 1
 273 -1 l 1
 244 -62 l 1
 285 -71 313 -99 313 -143 c 0
 313 -203 264 -240 204 -240 c 0
 170 -240 138 -229 115 -212 c 1
 113 -211 l 1
 137 -152 l 1xc4
72 382 m 0x3a
 72 491 166 537 246 537 c 0
 301 537 367 517 415 483 c 1
 416 481 l 1
 382 412 l 1
 380 413 l 1
 333 442 284 461 238 461 c 0
 193 461 156 445 156 390 c 0
 156 334 210 318 253 304 c 0
 322 282 430 254 430 155 c 0
 430 45 330 -11 238 -11 c 0
 173 -11 95 23 41 71 c 1
 39 72 l 1
 83 137 l 1
 85 135 l 2
 131 94 179 65 243 65 c 0
 299 65 348 94 348 146 c 0
 348 203 276 216 231 231 c 0
 165 253 72 288 72 382 c 0x3a
EndSplineSet
Substitution2: "'locl' Localized Forms in Latin lookup 3 subtable" scommaaccent
Substitution2: "'locl' Localized Forms in Latin lookup 2 subtable" scommaaccent
Substitution2: "'aalt' Access All Alternates lookup 0 subtable" scommaaccent
EndChar

StartChar: Scaron
Encoding: 352 352 284
Width: 584
GlyphClass: 2
Flags: MW
HStem: -9 83<260 333.5 260 358> 622 83<262 327.5> 762 156<151 359 151 263>
VStem: 84 83<472.5 548 472.5 567> 151 320<918 918> 441 87<154 189 131 230>
AnchorPoint: "Anchor-0" 316 0 basechar 0
LayerCount: 2
Fore
SplineSet
151 918 m 1x28
 239 918 l 1
 311 816 l 1
 383 918 l 1
 471 918 l 1
 359 762 l 1
 263 762 l 1
 151 918 l 1x28
84 514 m 0xd4
 84 620 181 705 305 705 c 0
 379 705 461 671 526 628 c 1
 528 627 l 1
 487 551 l 1
 484 552 l 1
 410 598 357 622 298 622 c 0
 226 622 167 585 167 511 c 0
 167 434 248 407 314 388 c 0
 401 362 537 339 528 189 c 1
 528 73 421 -9 295 -9 c 0
 205 -9 111 41 39 107 c 1
 38 108 l 1
 88 179 l 1
 91 177 l 1
 162 115 230 74 290 74 c 0
 377 74 441 116 441 192 c 0
 441 268 356 296 290 315 c 0
 207 339 84 370 84 514 c 0xd4
EndSplineSet
Position2: "'cpsp' Capital Spacing lookup 0 subtable" dx=5 dy=0 dh=10 dv=0
EndChar

StartChar: scaron
Encoding: 353 353 285
Width: 486
GlyphClass: 2
Flags: MW
HStem: -11 76<211 271 211 284> 461 76<215.5 261> 594 156<96 304 96 208>
VStem: 72 84<362 417.5 362 436.5> 96 320<481 750> 348 82<120 174.5>
AnchorPoint: "Anchor-0" 234 0 basechar 0
LayerCount: 2
Fore
SplineSet
96 750 m 1x28
 184 750 l 1
 256 648 l 1
 328 750 l 1
 416 750 l 1
 304 594 l 1
 208 594 l 1
 96 750 l 1x28
72 382 m 0xd4
 72 491 166 537 246 537 c 0
 301 537 367 517 415 483 c 1
 416 481 l 1
 382 412 l 1
 380 413 l 1
 333 442 284 461 238 461 c 0
 193 461 156 445 156 390 c 0
 156 334 210 318 253 304 c 0
 322 282 430 254 430 155 c 0
 430 45 330 -11 238 -11 c 0
 173 -11 95 23 41 71 c 1
 39 72 l 1
 83 137 l 1
 85 135 l 2
 131 94 179 65 243 65 c 0
 299 65 348 94 348 146 c 0
 348 203 276 216 231 231 c 0
 165 253 72 288 72 382 c 0xd4
EndSplineSet
EndChar

StartChar: Tcedilla
Encoding: 354 354 286
Width: 614
GlyphClass: 2
Flags: MW
HStem: -229 67<247 270 245.309 294> -89 99<259 270> 0 21G<259 346 259 259> 623 77<39 256 39 562 344 562 344 344>
VStem: 259 87<0 0 0 10> 300 73<-133.5 -115.5>
AnchorPoint: "Anchor-0" 276 0 basechar 0
LayerCount: 2
Fore
SplineSet
197 -141 m 1xc4
 215.642578125 -153.428710938 234.6171875 -162 256 -162 c 0
 284 -162 300 -143 300 -124 c 0
 300 -107 286 -89 254 -89 c 0
 241.190429688 -89 225.83984375 -90.6640625 215 -95 c 1
 259 10 l 1
 333 10 l 1
 304 -51 l 1
 345 -60 373 -88 373 -132 c 0
 373 -192 324 -229 264 -229 c 0
 230 -229 198 -218 175 -201 c 1
 173 -200 l 1
 197 -141 l 1xc4
562 700 m 1x38
 562 623 l 1
 344 623 l 1
 346 0 l 1
 259 0 l 1
 256 623 l 1
 39 623 l 1
 39 700 l 1
 562 700 l 1x38
EndSplineSet
Substitution2: "'locl' Localized Forms in Latin lookup 3 subtable" Tcommaaccent
Substitution2: "'locl' Localized Forms in Latin lookup 2 subtable" Tcommaaccent
Substitution2: "'aalt' Access All Alternates lookup 0 subtable" Tcommaaccent
Position2: "'cpsp' Capital Spacing lookup 0 subtable" dx=5 dy=0 dh=10 dv=0
EndChar

StartChar: tcedilla
Encoding: 355 355 287
Width: 446
GlyphClass: 2
Flags: MW
HStem: -234 67<209 232 207.309 256> -94 99<221 232> -5 84<261 281.5> 433 75<40 130 40 130 216 382>
VStem: 130 86<171 433 508 658> 262 73<-138.5 -120.5>
AnchorPoint: "Anchor-0" 245 0 basechar 0
LayerCount: 2
Fore
SplineSet
159 -146 m 1xc4
 177.642578125 -158.428710938 196.6171875 -167 218 -167 c 0
 246 -167 262 -148 262 -129 c 0
 262 -112 248 -94 216 -94 c 0
 203.190429688 -94 187.83984375 -95.6640625 177 -100 c 1
 221 5 l 1
 295 5 l 1
 266 -56 l 1
 307 -65 335 -93 335 -137 c 0
 335 -197 286 -234 226 -234 c 0
 192 -234 160 -223 137 -206 c 1
 135 -205 l 1
 159 -146 l 1xc4
355 108 m 1x38
 358 109 l 1
 392 36 l 1
 390 34 l 1
 348 9 303 -5 260 -5 c 0
 191 -5 130 62 130 171 c 2
 130 433 l 1
 40 433 l 1
 40 508 l 1
 130 508 l 1
 130 658 l 1
 216 658 l 1
 216 508 l 1
 382 508 l 1
 382 433 l 1
 216 433 l 1
 216 168 l 2
 216 105 242 79 280 79 c 0
 303 79 324 88 355 108 c 1x38
EndSplineSet
Substitution2: "'locl' Localized Forms in Latin lookup 3 subtable" tcommaaccent
Substitution2: "'locl' Localized Forms in Latin lookup 2 subtable" tcommaaccent
Substitution2: "'aalt' Access All Alternates lookup 0 subtable" tcommaaccent
EndChar

StartChar: Tcaron
Encoding: 356 356 288
Width: 614
GlyphClass: 2
Flags: MW
HStem: 0 21G<259 346 259 259> 623 77<39 256 39 562 344 562 344 344> 760 156<147 355 147 259>
VStem: 147 320<916 916> 259 87<0 0>
AnchorPoint: "Anchor-0" 276 0 basechar 0
LayerCount: 2
Fore
SplineSet
147 916 m 1x30
 235 916 l 1
 307 814 l 1
 379 916 l 1
 467 916 l 1
 355 760 l 1
 259 760 l 1
 147 916 l 1x30
562 700 m 1xc8
 562 623 l 1
 344 623 l 1
 346 0 l 1
 259 0 l 1
 256 623 l 1
 39 623 l 1
 39 700 l 1
 562 700 l 1xc8
EndSplineSet
Position2: "'cpsp' Capital Spacing lookup 0 subtable" dx=5 dy=0 dh=10 dv=0
EndChar

StartChar: tcaron
Encoding: 357 357 289
Width: 380
GlyphClass: 2
Flags: MW
HStem: -5 84<261 281.5> 433 75<40 130 40 130 216 382> 565 176<307.5 320 260 338.5>
VStem: 130 86<171 433 508 658> 266 113<678 699.5 678 699.5>
AnchorPoint: "Anchor-0" 245 0 basechar 0
LayerCount: 2
Fore
SplineSet
370 653 m 2
 320 565 l 1
 260 565 l 1
 300 632 l 1
 280 641 266 661 266 684 c 0
 266 715 292 741 323 741 c 0
 354 741 379 715 379 684 c 0
 379 672 375 661 370 653 c 2
355 108 m 1
 358 109 l 1
 392 36 l 1
 390 34 l 1
 348 9 303 -5 260 -5 c 0
 191 -5 130 62 130 171 c 2
 130 433 l 1
 40 433 l 1
 40 508 l 1
 130 508 l 1
 130 658 l 1
 216 658 l 1
 216 508 l 1
 382 508 l 1
 382 433 l 1
 216 433 l 1
 216 168 l 2
 216 105 242 79 280 79 c 0
 303 79 324 88 355 108 c 1
EndSplineSet
EndChar

StartChar: Utilde
Encoding: 360 360 290
Width: 624
GlyphClass: 2
Flags: MW
HStem: -5 76<254.5 355 254.5 379.5> 680 20G<54 142 142 142 465 553 553 553> 760 62<348 383 348 398> 840 62<229.5 264.5>
VStem: 54 88<290 700> 151 59<766 769 766 813> 403 58<894 896 850.5 896> 465 88<288 290 290 700>
LayerCount: 2
Fore
SplineSet
246 902 m 0
 297 902 329 822 367 822 c 0
 399 822 403 861 403 894 c 2
 403 896 l 1
 461 896 l 1
 461 894 l 2
 461 807 429 760 367 760 c 0
 312 760 284 840 245 840 c 0
 214 840 210 802 210 769 c 2
 210 766 l 1
 151 766 l 1
 151 769 l 2
 151 857 184 902 246 902 c 0
465 700 m 1
 553 700 l 1
 553 290 l 2
 553 107 455 -5 304 -5 c 0
 153 -5 54 107 54 290 c 2
 54 700 l 1
 142 700 l 1
 142 288 l 2
 142 151 204 71 305 71 c 0
 405 71 465 150 465 288 c 2
 465 700 l 1
EndSplineSet
EndChar

StartChar: utilde
Encoding: 361 361 291
Width: 535
GlyphClass: 2
Flags: MW
HStem: -4 79<218 259> 512 20G<53 136 136 136 375 463 463 463> 593 62<302 337 302 352> 673 62<183.5 218.5>
VStem: 53 83<202 209 209 532> 105 59<599 602 599 646> 357 58<727 729 683.5 729> 375 88<0 75 75 75 225 532 0 532>
LayerCount: 2
Fore
SplineSet
200 735 m 0x36
 251 735 283 655 321 655 c 0
 353 655 357 694 357 727 c 2
 357 729 l 1
 415 729 l 1
 415 727 l 2
 415 640 383 593 321 593 c 0
 266 593 238 673 199 673 c 0
 168 673 164 635 164 602 c 2
 164 599 l 1
 105 599 l 1
 105 602 l 2
 105 690 138 735 200 735 c 0x36
375 75 m 1xc9
 349 25 292 -4 226 -4 c 0
 126 -4 53 75 53 202 c 2
 53 532 l 1
 136 532 l 1
 136 209 l 2
 136 131 184 75 252 75 c 0
 327 75 375 141 375 225 c 2
 375 532 l 1
 463 532 l 1
 463 0 l 1
 375 0 l 1
 375 75 l 1xc9
EndSplineSet
EndChar

StartChar: Umacron
Encoding: 362 362 292
Width: 624
GlyphClass: 2
Flags: MW
HStem: -5 76<254.5 355 254.5 379.5> 680 20G<54 142 142 142 465 553 553 553> 770 78<178 438 178 438>
VStem: 54 88<290 700> 178 260<770 848 770 848> 465 88<288 290 290 700>
LayerCount: 2
Fore
SplineSet
438 770 m 1
 178 770 l 1
 178 848 l 1
 438 848 l 1
 438 770 l 1
465 700 m 1
 553 700 l 1
 553 290 l 2
 553 107 455 -5 304 -5 c 0
 153 -5 54 107 54 290 c 2
 54 700 l 1
 142 700 l 1
 142 288 l 2
 142 151 204 71 305 71 c 0
 405 71 465 150 465 288 c 2
 465 700 l 1
EndSplineSet
Position2: "'cpsp' Capital Spacing lookup 0 subtable" dx=5 dy=0 dh=10 dv=0
EndChar

StartChar: umacron
Encoding: 363 363 293
Width: 535
GlyphClass: 2
Flags: MW
HStem: -4 79<218 259> 512 20G<53 136 136 136 375 463 463 463> 603 78<132 392 132 392>
VStem: 53 83<202 209 209 532> 132 260<603 681 603 681> 375 88<0 75 75 75 225 532 0 532>
LayerCount: 2
Fore
SplineSet
392 603 m 1x28
 132 603 l 1
 132 681 l 1
 392 681 l 1
 392 603 l 1x28
375 75 m 1xd4
 349 25 292 -4 226 -4 c 0
 126 -4 53 75 53 202 c 2
 53 532 l 1
 136 532 l 1
 136 209 l 2
 136 131 184 75 252 75 c 0
 327 75 375 141 375 225 c 2
 375 532 l 1
 463 532 l 1
 463 0 l 1
 375 0 l 1
 375 75 l 1xd4
EndSplineSet
EndChar

StartChar: Ubreve
Encoding: 364 364 294
Width: 624
GlyphClass: 2
Flags: MW
HStem: -5 76<254.5 355 254.5 379.5> 680 20G<54 142 142 142 465 553 553 553> 760 82<294 328 294 351.5> 888 20G<167 250 250 250 371 454 454 454>
VStem: 54 88<290 700> 167 83<905 908 905 908> 371 83<905 908 905 908> 465 88<288 290 290 700>
LayerCount: 2
Fore
SplineSet
371 908 m 1
 454 908 l 1
 454 905 l 2
 451 819 392 760 311 760 c 0
 230 760 170 819 167 905 c 2
 167 908 l 1
 250 908 l 1
 250 905 l 2
 252 868 277 842 311 842 c 0
 345 842 369 868 371 905 c 2
 371 908 l 1
465 700 m 1
 553 700 l 1
 553 290 l 2
 553 107 455 -5 304 -5 c 0
 153 -5 54 107 54 290 c 2
 54 700 l 1
 142 700 l 1
 142 288 l 2
 142 151 204 71 305 71 c 0
 405 71 465 150 465 288 c 2
 465 700 l 1
EndSplineSet
EndChar

StartChar: ubreve
Encoding: 365 365 295
Width: 535
GlyphClass: 2
Flags: MW
HStem: -4 79<218 259> 512 20G<53 136 136 136 375 463 463 463> 593 82<248 282 248 305.5> 721 20G<121 204 204 204 325 408 408 408>
VStem: 53 83<202 209 209 532> 121 83<738 741 738 741> 325 83<738 741 738 741> 375 88<0 75 75 75 225 532 0 532>
LayerCount: 2
Fore
SplineSet
325 741 m 1x36
 408 741 l 1
 408 738 l 2
 405 652 346 593 265 593 c 0
 184 593 124 652 121 738 c 2
 121 741 l 1
 204 741 l 1
 204 738 l 2
 206 701 231 675 265 675 c 0
 299 675 323 701 325 738 c 2
 325 741 l 1x36
375 75 m 1xc9
 349 25 292 -4 226 -4 c 0
 126 -4 53 75 53 202 c 2
 53 532 l 1
 136 532 l 1
 136 209 l 2
 136 131 184 75 252 75 c 0
 327 75 375 141 375 225 c 2
 375 532 l 1
 463 532 l 1
 463 0 l 1
 375 0 l 1
 375 75 l 1xc9
EndSplineSet
EndChar

StartChar: Uring
Encoding: 366 366 296
Width: 624
GlyphClass: 2
Flags: MW
HStem: -5 76<254.5 355 254.5 379.5> 680 20G<54 142 142 142 465 553 553 553> 760 58<288 324 288 339> 940 58<288 324>
VStem: 54 88<290 700> 186 55<862.5 895.5 862.5 911> 372 55<862.5 895.5> 465 88<288 290 290 700>
LayerCount: 2
Fore
SplineSet
306 940 m 0
 270 940 241 912 241 879 c 0
 241 846 270 818 306 818 c 0
 342 818 372 846 372 879 c 0
 372 912 342 940 306 940 c 0
306 998 m 0
 372 998 427 943 427 879 c 0
 427 814 372 760 306 760 c 0
 240 760 186 814 186 879 c 0
 186 943 240 998 306 998 c 0
465 700 m 1
 553 700 l 1
 553 290 l 2
 553 107 455 -5 304 -5 c 0
 153 -5 54 107 54 290 c 2
 54 700 l 1
 142 700 l 1
 142 288 l 2
 142 151 204 71 305 71 c 0
 405 71 465 150 465 288 c 2
 465 700 l 1
EndSplineSet
Position2: "'cpsp' Capital Spacing lookup 0 subtable" dx=5 dy=0 dh=10 dv=0
EndChar

StartChar: uring
Encoding: 367 367 297
Width: 535
GlyphClass: 2
Flags: MW
HStem: -4 79<218 259> 512 20G<53 136 136 136 375 463 463 463> 593 58<242 278 242 293> 773 58<242 278>
VStem: 53 83<202 209 209 532> 140 55<695.5 728.5 695.5 744> 326 55<695.5 728.5> 375 88<0 75 75 75 225 532 0 532>
LayerCount: 2
Fore
SplineSet
260 773 m 0x36
 224 773 195 745 195 712 c 0
 195 679 224 651 260 651 c 0
 296 651 326 679 326 712 c 0
 326 745 296 773 260 773 c 0x36
260 831 m 0
 326 831 381 776 381 712 c 0
 381 647 326 593 260 593 c 0
 194 593 140 647 140 712 c 0
 140 776 194 831 260 831 c 0
375 75 m 1xc9
 349 25 292 -4 226 -4 c 0
 126 -4 53 75 53 202 c 2
 53 532 l 1
 136 532 l 1
 136 209 l 2
 136 131 184 75 252 75 c 0
 327 75 375 141 375 225 c 2
 375 532 l 1
 463 532 l 1
 463 0 l 1
 375 0 l 1
 375 75 l 1xc9
EndSplineSet
EndChar

StartChar: Uhungarumlaut
Encoding: 368 368 298
Width: 624
GlyphClass: 2
Flags: MW
HStem: -5 76<254.5 355 254.5 379.5> 680 20G<54 142 142 142 465 553 553 553> 760 160<194 280 194 280 280 415 280 350>
VStem: 54 88<290 700> 194 315<760 874> 465 88<288 290 290 700>
LayerCount: 2
Fore
SplineSet
509 874 m 1x28
 415 760 l 1
 350 760 l 1
 427 920 l 1
 509 874 l 1x28
353 874 m 1
 269 760 l 1
 194 760 l 1
 280 920 l 1
 353 874 l 1
465 700 m 1xd4
 553 700 l 1
 553 290 l 2
 553 107 455 -5 304 -5 c 0
 153 -5 54 107 54 290 c 2
 54 700 l 1
 142 700 l 1
 142 288 l 2
 142 151 204 71 305 71 c 0
 405 71 465 150 465 288 c 2
 465 700 l 1xd4
EndSplineSet
Position2: "'cpsp' Capital Spacing lookup 0 subtable" dx=5 dy=0 dh=10 dv=0
EndChar

StartChar: uhungarumlaut
Encoding: 369 369 299
Width: 535
GlyphClass: 2
Flags: MW
HStem: -4 79<218 259> 512 20G<53 136 136 136 375 463 463 463> 593 160<148 234 148 234 234 369 234 304>
VStem: 53 83<202 209 209 532> 148 315<0 593> 375 88<0 75 75 75 225 532 0 532>
LayerCount: 2
Fore
SplineSet
463 707 m 1x28
 369 593 l 1
 304 593 l 1
 381 753 l 1
 463 707 l 1x28
307 707 m 1
 223 593 l 1
 148 593 l 1
 234 753 l 1
 307 707 l 1
375 75 m 1xd4
 349 25 292 -4 226 -4 c 0
 126 -4 53 75 53 202 c 2
 53 532 l 1
 136 532 l 1
 136 209 l 2
 136 131 184 75 252 75 c 0
 327 75 375 141 375 225 c 2
 375 532 l 1
 463 532 l 1
 463 0 l 1
 375 0 l 1
 375 75 l 1xd4
EndSplineSet
EndChar

StartChar: Uogonek
Encoding: 370 370 300
Width: 624
GlyphClass: 2
Flags: MW
HStem: -214 70<294.5 309> -131 20G<352 352> -5 76<254.5 355 254.5 379.5> 680 20G<54 142 142 142 465 553 553 553>
VStem: 54 88<290 700> 208 66<-124.5 -112.5> 465 88<288 290 290 700>
LayerCount: 2
Fore
SplineSet
269 4 m 1
 335 4 l 1
 332 1 l 1
 292 -53 274 -91 274 -115 c 0
 274 -134 286 -144 303 -144 c 0
 319 -144 335 -132 350 -113 c 2
 352 -111 l 1
 388 -154 l 1
 387 -155 l 1
 364 -192 328 -214 290 -214 c 0
 250 -214 208 -190 208 -133 c 0
 208 -92 231 -48 269 3 c 1
 269 4 l 1
465 700 m 1
 553 700 l 1
 553 290 l 2
 553 107 455 -5 304 -5 c 0
 153 -5 54 107 54 290 c 2
 54 700 l 1
 142 700 l 1
 142 288 l 2
 142 151 204 71 305 71 c 0
 405 71 465 150 465 288 c 2
 465 700 l 1
EndSplineSet
Position2: "'cpsp' Capital Spacing lookup 0 subtable" dx=5 dy=0 dh=10 dv=0
EndChar

StartChar: uogonek
Encoding: 371 371 301
Width: 492
GlyphClass: 2
Flags: MW
HStem: -213 70<466.5 481> -130 20G<524 524> -4 79<218 259> 512 20G<53 136 136 136 375 463 463 463>
VStem: 53 83<202 209 209 532> 375 88<0 75 75 75 225 532 0 532> 380 66<-123.5 -111.5>
LayerCount: 2
Fore
SplineSet
441 5 m 1xc2
 507 5 l 1
 504 2 l 1
 464 -52 446 -90 446 -114 c 0
 446 -133 458 -143 475 -143 c 0
 491 -143 507 -131 522 -112 c 2
 524 -110 l 1
 560 -153 l 1
 559 -154 l 1
 536 -191 500 -213 462 -213 c 0
 422 -213 380 -189 380 -132 c 0
 380 -91 403 -47 441 4 c 1
 441 5 l 1xc2
375 75 m 1x3c
 349 25 292 -4 226 -4 c 0
 126 -4 53 75 53 202 c 2
 53 532 l 1
 136 532 l 1
 136 209 l 2
 136 131 184 75 252 75 c 0
 327 75 375 141 375 225 c 2
 375 532 l 1
 463 532 l 1
 463 0 l 1
 375 0 l 1
 375 75 l 1x3c
EndSplineSet
EndChar

StartChar: Wcircumflex
Encoding: 372 372 302
Width: 1054
GlyphClass: 2
Flags: MW
HStem: 0 21G<268 364 268 268 680 775 680 680> 680 20G<34 127 127 127 556 556 923 1010 1010 1010> 761 146<375 570 375 570 482 677 482 597>
VStem: 375 302<761 761>
LayerCount: 2
Fore
SplineSet
677 761 m 1
 597 761 l 1
 526 857 l 1
 455 761 l 1
 375 761 l 1
 482 907 l 1
 570 907 l 1
 677 761 l 1
1010 700 m 1
 775 0 l 1
 680 0 l 1
 523 566 l 1
 364 0 l 1
 268 0 l 1
 34 700 l 1
 127 700 l 1
 321 119 l 1
 492 699 l 1
 556 700 l 1
 728 122 l 1
 923 700 l 1
 1010 700 l 1
EndSplineSet
Position2: "'cpsp' Capital Spacing lookup 0 subtable" dx=5 dy=0 dh=10 dv=0
EndChar

StartChar: wcircumflex
Encoding: 373 373 303
Width: 836
GlyphClass: 2
Flags: MW
HStem: 0 21G<195 287 195 195 552 645 552 552> 512 20G<38 129 129 129 381 447 447 447 695 785 785 785> 594 146<265 460 265 460 372 567 372 487>
VStem: 265 302<594 594>
LayerCount: 2
Fore
SplineSet
567 594 m 1
 487 594 l 1
 416 690 l 1
 345 594 l 1
 265 594 l 1
 372 740 l 1
 460 740 l 1
 567 594 l 1
785 532 m 1
 645 0 l 1
 552 0 l 1
 413 410 l 1
 287 0 l 1
 195 0 l 1
 38 532 l 1
 129 532 l 1
 244 120 l 1
 381 532 l 1
 447 532 l 1
 586 120 l 1
 695 532 l 1
 785 532 l 1
EndSplineSet
EndChar

StartChar: Ycircumflex
Encoding: 374 374 304
Width: 641
GlyphClass: 2
Flags: MW
HStem: 0 21G<284 371 284 284> 680 20G<34 128 128 128 505 601 601 601> 761 146<170 365 170 365 277 472 277 392>
VStem: 170 302<761 761> 284 87<0 249 249 249>
LayerCount: 2
Fore
SplineSet
472 761 m 1x30
 392 761 l 1
 321 857 l 1
 250 761 l 1
 170 761 l 1
 277 907 l 1
 365 907 l 1
 472 761 l 1x30
601 700 m 1xc8
 371 253 l 1
 371 0 l 1
 284 0 l 1
 284 249 l 1
 34 700 l 1
 128 700 l 1
 318 331 l 1
 505 700 l 1
 601 700 l 1xc8
EndSplineSet
Position2: "'cpsp' Capital Spacing lookup 0 subtable" dx=5 dy=0 dh=10 dv=0
EndChar

StartChar: ycircumflex
Encoding: 375 375 305
Width: 576
GlyphClass: 2
Flags: MW
HStem: -199 76<153.5 178 153.5 198> 512 20G<37 127 127 127 437 528 528 528> 594 146<136 331 136 331 243 438 243 358>
VStem: 136 302<594 594>
LayerCount: 2
Fore
SplineSet
438 594 m 1
 358 594 l 1
 287 690 l 1
 216 594 l 1
 136 594 l 1
 243 740 l 1
 331 740 l 1
 438 594 l 1
437 532 m 1
 528 532 l 1
 307 -71 l 2
 280 -156 231 -199 165 -199 c 0
 118 -199 79 -184 42 -153 c 1
 41 -152 l 1
 73 -87 l 1
 75 -88 l 1
 100 -106 143 -123 164 -123 c 0
 192 -123 221 -110 251 -28 c 2
 265 10 l 1
 37 532 l 1
 127 532 l 1
 300 98 l 1
 437 532 l 1
EndSplineSet
EndChar

